<svg xmlns="http://www.w3.org/2000/svg" xmlns:xlink="http://www.w3.org/1999/xlink" width="580" height="294" viewBox="0 0 580 294">
  <defs>
    <clipPath id="clip-path">
      <rect id="Rectangle_21591" data-name="Rectangle 21591" width="580" height="294" transform="translate(109 4029)" fill="#022d59"/>
    </clipPath>
  </defs>
  <g id="Mask_Group_121206" data-name="Mask Group 121206" transform="translate(-109 -4029)" clip-path="url(#clip-path)">
    <g id="Group_135262" data-name="Group 135262">
      <g id="Background_Complete" data-name="Background Complete" transform="translate(132.82 4042.555)">
        <path id="Path_101001" data-name="Path 101001" d="M199.61,59.21a10.18,10.18,0,0,0-3.819,1.844,5.364,5.364,0,0,1-1.251.727L189.562,41.5a2.784,2.784,0,0,0-3.367-2.041l-21.108,5.179.588,2.4a4.438,4.438,0,0,0,.713,1.536,9.219,9.219,0,0,1-5.664,14.427,9.3,9.3,0,0,1-10.62-6.223,9.152,9.152,0,0,1-.26-4.615,4.587,4.587,0,0,0-.024-1.994l-.412-1.68-21.4,5.179A3.419,3.419,0,0,0,125.5,57.8l4.6,18.819-1.457.358c-.165.04-.335.077-.505.106a11.25,11.25,0,1,0,3.481,18.561,4.317,4.317,0,0,1,.861-.314l1.871-.459,5.152,21a3.418,3.418,0,0,0,4.135,2.505l58.407-14.33a2.785,2.785,0,0,0,2.041-3.368l-5.246-21.379a5.536,5.536,0,0,1,1.142.127,10.208,10.208,0,0,0,6.265-.634A10.378,10.378,0,0,0,199.61,59.21Z" transform="translate(-54.236 -39.374)" fill="#23486e" opacity="0.996"/>
        <path id="Path_101002" data-name="Path 101002" d="M629.428,225.169a6.424,6.424,0,0,0,2.605.6,3.361,3.361,0,0,1,.9.135l-5.547,11.94a1.755,1.755,0,0,0,.853,2.331l12.424,5.771.655-1.409a2.794,2.794,0,0,0,.254-1.037,5.751,5.751,0,0,1,.529-2.143,5.819,5.819,0,0,1,10.714,4.525,5.757,5.757,0,0,1-1.69,2.372,2.886,2.886,0,0,0-.774.991l-.459.988,12.568,5.887a2.155,2.155,0,0,0,2.862-1.047L670.481,244l.858.4c.1.045.2.094.29.147a7.091,7.091,0,1,0,5.6-10.5,2.7,2.7,0,0,1-.547-.185l-1.1-.512,5.742-12.359a2.155,2.155,0,0,0-1.047-2.862L645.9,202.16a1.754,1.754,0,0,0-2.331.852L637.723,215.6a3.49,3.49,0,0,1-.512-.512,6.43,6.43,0,0,0-3.332-2.157,6.541,6.541,0,0,0-4.451,12.242Z" transform="translate(-142.743 -85.361)" fill="#23486e" opacity="0.996"/>
        <path id="Path_101003" data-name="Path 101003" d="M656.9,417.1a5.026,5.026,0,0,0,1.255-1.678,2.657,2.657,0,0,1,.383-.6l6.8,7.765a1.376,1.376,0,0,0,1.941.129l8.08-7.073-.8-.917a2.2,2.2,0,0,0-.662-.511,4.555,4.555,0,0,1-.8-7.616,4.6,4.6,0,0,1,6.073.313,4.522,4.522,0,0,1,1.164,1.965,2.256,2.256,0,0,0,.464.869l.563.643,8.209-7.14a1.689,1.689,0,0,0,.158-2.384l-6.3-7.208.558-.488c.064-.056.129-.11.2-.161a5.559,5.559,0,1,0-5.749-7.35,2.161,2.161,0,0,1-.306.334l-.716.627-7.036-8.038a1.689,1.689,0,0,0-2.384-.158l-22.358,19.571a1.376,1.376,0,0,0-.129,1.941l7.164,8.184a2.785,2.785,0,0,1-.529.2,5.038,5.038,0,0,0-2.6,1.7A5.128,5.128,0,0,0,656.9,417.1Z" transform="translate(-149.192 -135.798)" fill="#23486e" opacity="0.996"/>
        <path id="Path_101004" data-name="Path 101004" d="M508.073,75.049a8.025,8.025,0,0,0-3.336-.2,4.206,4.206,0,0,1-1.141.017L508,58.993a2.194,2.194,0,0,0-1.528-2.7l-16.51-4.582-.52,1.873a3.5,3.5,0,0,0-.1,1.332,7.268,7.268,0,0,1-9.459,7.734,7.335,7.335,0,0,1-4.9-8.375,7.211,7.211,0,0,1,1.6-3.274,3.6,3.6,0,0,0,.753-1.381l.365-1.314-16.713-4.695a2.7,2.7,0,0,0-3.318,1.876l-4.1,14.711-1.14-.317c-.13-.035-.26-.076-.388-.122a8.869,8.869,0,1,0-4.767,14.1,3.4,3.4,0,0,1,.713.116l1.464.406L444.89,90.811a2.694,2.694,0,0,0,1.876,3.318l45.686,12.679a2.194,2.194,0,0,0,2.7-1.528L499.8,88.558a4.355,4.355,0,0,1,.735.527,8.047,8.047,0,0,0,4.552,1.981,8.182,8.182,0,0,0,2.99-16.017Z" transform="translate(-103.009 -40.743)" fill="#23486e" opacity="0.996"/>
        <path id="Path_101005" data-name="Path 101005" d="M30.335,331.888a7.545,7.545,0,0,0,3.106.46,3.974,3.974,0,0,1,1.069.076l-5.4,14.494a2.061,2.061,0,0,0,1.213,2.651l15.081,5.616.638-1.711a3.277,3.277,0,0,0,.2-1.237,6.827,6.827,0,0,1,9.475-6.476,6.889,6.889,0,0,1,3.912,8.232,6.776,6.776,0,0,1-1.762,2.934,3.391,3.391,0,0,0-.815,1.231l-.447,1.2L71.869,365.1a2.531,2.531,0,0,0,3.256-1.489l5.021-13.436,1.041.388c.118.044.238.092.354.145a8.329,8.329,0,1,0,5.6-12.815,3.255,3.255,0,0,1-.658-.166l-1.337-.5,5.588-15a2.531,2.531,0,0,0-1.489-3.256l-41.73-15.543a2.062,2.062,0,0,0-2.651,1.213L39.17,319.914a4.062,4.062,0,0,1-.646-.553,7.557,7.557,0,0,0-4.1-2.22,7.685,7.685,0,0,0-4.089,14.747Z" transform="translate(-25.375 -111.084)" fill="#23486e" opacity="0.996"/>
      </g>
      <g id="Puzzle" transform="translate(231.548 4136.96)">
        <g id="Group_134783" data-name="Group 134783" transform="translate(0 0)">
          <g id="Group_134780" data-name="Group 134780" opacity="0.174">
            <g id="Group_134779" data-name="Group 134779">
              <path id="Path_101007" data-name="Path 101007" d="M272.346,252.858s-.123.019-.367.047a10.163,10.163,0,0,0-1.089.165,14.84,14.84,0,0,0-4.075,1.449c-3.39,1.73-7.838,5.681-11.187,12.278a29.25,29.25,0,0,0-3.292,11.759,21.594,21.594,0,0,0,.958,6.963,20.644,20.644,0,0,0,3.566,6.728,20.882,20.882,0,0,0,14.633,7.8,20.574,20.574,0,0,0,9.192-1.266,10.962,10.962,0,0,1,4.818-.909l5.042,0h.107v.108q.006,11.684.013,24.81,0,6.555.006,13.447,0,3.445,0,6.972,0,1.764,0,3.547a10.019,10.019,0,0,1-.122,1.8,9.628,9.628,0,0,1-.5,1.752,9.2,9.2,0,0,1-1.936,3.1,5.682,5.682,0,0,1-3.217,1.8,18.211,18.211,0,0,1-1.864.048h-5.6l-15.344,0-32.4.009-70.886.014h-9.366c-1.577-.015-3.128.033-4.737-.032a6.514,6.514,0,0,1-5.862-6.661q-.005-2.392-.009-4.795-.009-4.807-.017-9.66-.036-19.413-.073-39.518l.173.173h-2.963c-.991.016-1.991-.045-2.96.069a11.393,11.393,0,0,0-2.856.729,29.277,29.277,0,0,1-2.825,1.093,22.79,22.79,0,0,1-22.974-5.583,22.141,22.141,0,0,1-5.2-7.867c-.182-.5-.406-.98-.554-1.49l-.419-1.536a23.062,23.062,0,0,1,11.844-26.091,23.073,23.073,0,0,1,7.237-2.292,23.848,23.848,0,0,1,7.547.177,23.178,23.178,0,0,1,3.639.986c.59.214,1.174.447,1.742.713a17.848,17.848,0,0,0,1.7.731c2.309.911,4.834.578,7.3.641l-.172.172q0-14.373,0-28.376,0-7,0-13.9a21.448,21.448,0,0,1,.137-3.464,7.669,7.669,0,0,1,1.372-3.189,7.939,7.939,0,0,1,5.9-3.263l52.465-.019-.157.177c-.087-.7-.171-1.368-.254-2.037v-.019a11.426,11.426,0,0,0-.621-3.659c-.195-.59-.452-1.149-.7-1.733s-.454-1.174-.649-1.771a23.956,23.956,0,0,1-1.159-7.364l.1-1.853c.023-.307.019-.618.064-.922l.15-.912c.114-.6.167-1.22.331-1.811l.491-1.77a5.573,5.573,0,0,1,.3-.866l.337-.85a11.905,11.905,0,0,1,.739-1.665l.844-1.609,1-1.51a23.67,23.67,0,0,1,4.912-5.193l.692-.559.741-.489c.5-.319.984-.656,1.491-.956a25.767,25.767,0,0,1,3.182-1.5,24.066,24.066,0,0,1,6.747-1.617,23.7,23.7,0,0,1,3.438-.054c.57.038,1.142.048,1.706.11l1.685.255a24.521,24.521,0,0,1,11.819,5.909,24.065,24.065,0,0,1,7.352,23.072,25.364,25.364,0,0,1-2.035,5.672,12.371,12.371,0,0,0-.876,2.79,14.214,14.214,0,0,0-.183,2.9l-.124-.124L273,202.958l7.453-.023,1.816-.006c.6-.006,1.2-.007,1.805.036a7.923,7.923,0,0,1,3.363,1.134,7.818,7.818,0,0,1,3.674,5.593,30.355,30.355,0,0,1,.079,3.306q0,1.629-.005,3.217c-.035,16.937-.062,30.4-.082,39.871v.051h-.05c-1.642.022-3.169.1-4.6.069a11.527,11.527,0,0,1-3.814-1,25.342,25.342,0,0,0-5.631-2,17.31,17.31,0,0,0-3.5-.377c-.388,0-.677.007-.87.017s-.288.007-.288.007a11.107,11.107,0,0,1,1.158-.051,16.909,16.909,0,0,1,3.513.352,25.253,25.253,0,0,1,5.652,1.977,11.466,11.466,0,0,0,3.788.979c1.415.025,2.951-.055,4.59-.081l-.05.051c0-9.47,0-22.935,0-39.871q0-1.588,0-3.217a30.339,30.339,0,0,0-.082-3.28,7.621,7.621,0,0,0-3.59-5.449,7.724,7.724,0,0,0-3.278-1.1c-.584-.041-1.182-.039-1.786-.033l-1.815.008-7.454.031-32.765.137h-.123v-.124a14.445,14.445,0,0,1,.185-2.942,12.6,12.6,0,0,1,.891-2.849,25.078,25.078,0,0,0,2.014-5.625,23.8,23.8,0,0,0-7.285-22.811,24.246,24.246,0,0,0-11.685-5.833l-1.666-.251c-.559-.06-1.124-.07-1.687-.107a23.43,23.43,0,0,0-3.4.055,23.826,23.826,0,0,0-6.666,1.6,25.626,25.626,0,0,0-3.142,1.487c-.5.3-.98.632-1.472.946l-.732.483-.683.553a23.381,23.381,0,0,0-4.849,5.132l-.986,1.492-.832,1.59a11.719,11.719,0,0,0-.729,1.644l-.332.84a5.425,5.425,0,0,0-.291.855l-.483,1.748c-.161.584-.213,1.192-.326,1.789l-.147.9c-.045.3-.041.607-.064.911l-.1,1.83a23.666,23.666,0,0,0,1.147,7.268c.193.588.406,1.172.642,1.747s.508,1.149.707,1.752a11.752,11.752,0,0,1,.639,3.759v-.019c.084.669.167,1.338.255,2.036l.022.177h-.179l-52.442.035a7.6,7.6,0,0,0-5.648,3.127,7.326,7.326,0,0,0-1.314,3.053,21.288,21.288,0,0,0-.131,3.4q0,6.9,0,13.9,0,14,0,28.376v.173h-3.883a11.1,11.1,0,0,1-3.7-.66,18.184,18.184,0,0,1-1.728-.742c-.559-.262-1.134-.491-1.714-.7a22.851,22.851,0,0,0-3.585-.971,23.494,23.494,0,0,0-7.437-.174,22.609,22.609,0,0,0-17.4,13.005A23.02,23.02,0,0,0,98.5,280.117l.412,1.513c.146.5.367.978.546,1.467a21.792,21.792,0,0,0,5.123,7.748,22.438,22.438,0,0,0,22.623,5.5,29.088,29.088,0,0,0,2.8-1.085,11.745,11.745,0,0,1,2.943-.751c1.016-.117,2.011-.054,3-.07h3.136v.173q.034,20.088.066,39.518.008,4.853.016,9.66,0,2.4.008,4.795a6.179,6.179,0,0,0,5.558,6.328c1.544.063,3.142.018,4.7.032h9.366l70.886.014,32.4.009,15.344.005h5.6a18.256,18.256,0,0,0,1.826-.044,5.421,5.421,0,0,0,3.063-1.714,8.935,8.935,0,0,0,1.882-3.009,9.356,9.356,0,0,0,.485-1.7,9.743,9.743,0,0,0,.119-1.759q0-1.784,0-3.547,0-3.526,0-6.972,0-6.891.006-13.447.007-13.109.013-24.81l.108.108-5.042,0a10.734,10.734,0,0,0-4.746.891,20.771,20.771,0,0,1-9.281,1.266,21.052,21.052,0,0,1-14.747-7.882,20.8,20.8,0,0,1-3.583-6.786,21.724,21.724,0,0,1-.953-7.015,29.343,29.343,0,0,1,3.332-11.806c3.375-6.609,7.852-10.56,11.263-12.279a14.621,14.621,0,0,1,4.1-1.425,9.3,9.3,0,0,1,1.093-.15C272.223,252.866,272.346,252.858,272.346,252.858Z" transform="translate(-97.504 -162.433)" fill="#263238"/>
            </g>
          </g>
          <g id="Group_134782" data-name="Group 134782" transform="translate(135.932 40.919)">
            <path id="Path_101008" data-name="Path 101008" d="M527.56,275.024a23.2,23.2,0,0,0-9.459,2.009,12.187,12.187,0,0,1-3.167.931V230.337a6.348,6.348,0,0,0-6.348-6.348H459.03v5.623a10.107,10.107,0,0,0,.745,3.789,21.021,21.021,0,0,1-20.381,28.87,21.214,21.214,0,0,1-20.136-19.549,20.853,20.853,0,0,1,1.931-10.361,10.432,10.432,0,0,0,1.029-4.429v-3.943l-50.207-.16a7.8,7.8,0,0,0-7.8,7.8l-.048,44.169h-3.423c-.388,0-.783-.011-1.176-.039a25.651,25.651,0,1,0-2.376,42.994,9.83,9.83,0,0,1,2.078-.228h4.392v49.3a7.8,7.8,0,0,0,7.8,7.8H508.587a6.348,6.348,0,0,0,6.348-6.348V319.073a12.626,12.626,0,0,1,2.459.9,23.269,23.269,0,0,0,14.219,2,23.663,23.663,0,0,0-4.052-46.949Z" transform="translate(-291.652 -223.829)" fill="#5c6c7c" opacity="0.174"/>
          </g>
          <path id="Path_101115" data-name="Path 101115" d="M272.42,252.922a19.961,19.961,0,0,1,10.062,2.2,11.2,11.2,0,0,0,4.564,1.117l4.076-.093.048-45.309a7.772,7.772,0,0,0-7.8-7.748l-43.071.16v-.929a11.971,11.971,0,0,1,1.264-5.236,23.821,23.821,0,0,0,2.046-14.553,24.22,24.22,0,0,0-48.053,4.148,23.75,23.75,0,0,0,2.056,9.681,11.949,11.949,0,0,1,1.077,4.852l.254,2.037H147.042a7.772,7.772,0,0,0-7.8,7.748v44.3h-3.7a11.34,11.34,0,0,1-4.954-1.2,23.348,23.348,0,0,0-14.025-1.937,22.918,22.918,0,0,0,3.925,45.47,22.48,22.48,0,0,0,9.161-1.945,11.3,11.3,0,0,1,4.591-1.019h4.75l.1,54.19a6.329,6.329,0,0,0,6.348,6.31H284.365c3.506,0,6.253-4.4,6.253-7.886V298.035h-5.624a10.155,10.155,0,0,0-3.789.741,21.034,21.034,0,0,1-28.87-20.256C252.759,268,261.849,253.655,272.42,252.922Z" transform="translate(-97.578 -162.497)" fill="#34587c"/>
        </g>
      </g>
      <g id="Characters" transform="translate(300.304 4094.16)">
        <g id="Group_134790" data-name="Group 134790" transform="translate(102.015 143.044)">
          <path id="Path_101010" data-name="Path 101010" d="M381.045,313.058a7.366,7.366,0,0,1,4.238-.725c1.987.435,9.2,5.141,9.2,5.141l5.814-1.086,3.427,16.417-22.683,9.427Z" transform="translate(-362.078 -312.236)" fill="#ae7461"/>
          <path id="Path_101011" data-name="Path 101011" d="M354.889,318.831s5.2-.656,7.079-1.6,6.371-4.922,7.312-4.85,4.344.724,4.344.724l-1.376,4.126s6.8,4.127,8.832,5.647,8.4,8.325,8.687,9.991-.217,3.62-1.013,4.271-3.692-.651-3.692-.651a3.619,3.619,0,0,1-.651,2.968c-1.086,1.448-3.62.942-3.62.942s-.217,2.389-1.376,2.823-3.764-.869-3.764-.869-.787,2.027-1.732,2.244-3.625-1.375-3.625-1.375S358.71,334.9,356.1,333.666a13.35,13.35,0,0,0-3.4-1.3Z" transform="translate(-352.701 -312.284)" fill="#ffbe9d"/>
          <g id="Group_134784" data-name="Group 134784" transform="translate(21.253 26.751)">
            <path id="Path_101012" data-name="Path 101012" d="M386.157,355.53c-.052,0-.085-.2-.207-.509a9.134,9.134,0,0,0-.582-1.156,7.357,7.357,0,0,1-.9-1.65,4.073,4.073,0,0,1,1.2,1.476,4.3,4.3,0,0,1,.517,1.262C386.257,355.306,386.2,355.534,386.157,355.53Z" transform="translate(-384.462 -352.212)" fill="#eb996e"/>
          </g>
          <g id="Group_134785" data-name="Group 134785" transform="translate(24.718 24.384)">
            <path id="Path_101013" data-name="Path 101013" d="M392.683,352.952a18.441,18.441,0,0,1-1.461-2.187c-.792-1.206-1.64-2.01-1.579-2.085a5.1,5.1,0,0,1,1.868,1.89A7.031,7.031,0,0,1,392.683,352.952Z" transform="translate(-389.639 -348.674)" fill="#eb996e"/>
          </g>
          <g id="Group_134786" data-name="Group 134786" transform="translate(29.53 19.57)">
            <path id="Path_101014" data-name="Path 101014" d="M399.709,346.394c-.1.025-.425-1.227-1.225-2.578s-1.722-2.253-1.649-2.33a7.106,7.106,0,0,1,2.875,4.908Z" transform="translate(-396.83 -341.481)" fill="#eb996e"/>
          </g>
          <g id="Group_134787" data-name="Group 134787" transform="translate(28.973 15.448)">
            <path id="Path_101015" data-name="Path 101015" d="M396.041,335.321a6.519,6.519,0,0,1,.173,3.909,39.436,39.436,0,0,1-.173-3.909Z" transform="translate(-395.998 -335.321)" fill="#eb996e"/>
          </g>
          <path id="Path_101016" data-name="Path 101016" d="M370.875,321.214s1.81-5.791,2.462-6.515,6.705-2.317,6.705-2.317l1.876,4.851-1.343,1.421-2.895-.19A4.959,4.959,0,0,1,370.875,321.214Z" transform="translate(-358.713 -312.284)" fill="#ae7461"/>
          <path id="Path_101017" data-name="Path 101017" d="M354.094,342.695s-.828.638,0,2.158,3.072.434,3.8,0c0,0-1.086,2.533.29,3.33a5.4,5.4,0,0,0,3.04.579A2.958,2.958,0,0,0,363.1,351.3c1.955,1.013,2.461,0,2.461,0s.217,2.534,2.462,2.751,3.034-.554,3.034-.554l-1.007-1.5s1.3-2.656.289-3.814a3.469,3.469,0,0,0-2.678-1.014s.443-2.352-.849-3.007a2.376,2.376,0,0,0-3.423,1.053s-.145-2.578-2.027-2.52a4.189,4.189,0,0,0-2.9,1.217Z" transform="translate(-353.04 -322.312)" fill="#ae7461"/>
          <g id="Group_134788" data-name="Group 134788" transform="translate(8.211 22.901)">
            <path id="Path_101018" data-name="Path 101018" d="M367.113,346.46a9.526,9.526,0,0,1-2.132,3.623,7.867,7.867,0,0,1,.968-1.87A7.77,7.77,0,0,1,367.113,346.46Z" transform="translate(-364.971 -346.458)" fill="#6f4439"/>
          </g>
          <g id="Group_134789" data-name="Group 134789" transform="translate(12.168 25.181)">
            <path id="Path_101019" data-name="Path 101019" d="M373.386,349.868a7.887,7.887,0,0,1-2.5,3.649,75.12,75.12,0,0,1,2.5-3.649Z" transform="translate(-370.884 -349.866)" fill="#6f4439"/>
          </g>
        </g>
        <g id="Group_134958" data-name="Group 134958" transform="translate(0 7.254)">
          <g id="Group_134792" data-name="Group 134792" transform="translate(3.278 188.292)">
            <g id="Group_134791" data-name="Group 134791" transform="translate(54.774)">
              <path id="Path_101020" data-name="Path 101020" d="M300.8,390.693H289.814L287,430.625h11.01c1.874-6.082,6.559-37.775,6.559-37.775Z" transform="translate(-287.003 -390.693)" fill="#263238"/>
            </g>
            <path id="Path_101021" data-name="Path 101021" d="M211.524,390.693s-7.028,16.479-6.324,23.15,4.649,16.782,4.649,16.782h54.387a124.992,124.992,0,0,0,2.689-13.811c1.171-8.24,4.334-26.121,4.334-26.121Z" transform="translate(-205.15 -390.693)" fill="#263238"/>
          </g>
          <g id="Group_134947" data-name="Group 134947" transform="translate(11.851)">
            <g id="Group_134794" data-name="Group 134794">
              <g id="Group_134793" data-name="Group 134793">
                <path id="Path_101022" data-name="Path 101022" d="M287.634,138.565c-1.837-2.318-4.107-4.55-4.578-7.471-.432-2.684.741-5.624-.462-8.062-1.481-3-5.738-3.585-7.585-6.376-.894-1.35-1.105-3.062-1.987-4.421-1.5-2.315-4.591-3.06-7.347-2.9s-5.444,1.015-8.2,1.073c-3.786.08-7.621-1.341-11.3-.434-4.057,1-6.675,4.42-9.443,7.718l-3.585,3.806a14.9,14.9,0,0,1-2.349,1.723,26.936,26.936,0,0,0-4.419,2.527,6.688,6.688,0,0,0-.03,9.645,7.15,7.15,0,0,0-5.155,6.771,20.539,20.539,0,0,0,1.058,4.911,7.143,7.143,0,0,1-.1,4.929c-.744,1.506-2.762,2.466-4.184,1.571a7.524,7.524,0,0,0,3.854,5.206,4.5,4.5,0,0,1-3.087,1.2c2.714,7.336,10.86,11.515,18.671,11.929s15.431-2.192,22.819-4.763l21.3-4.467c1.868-.335,2.744-2.544,2.807-4.44s-.323-3.891.438-5.628c1.043-2.384,3.925-3.537,5.011-5.9C291.006,144.018,289.47,140.883,287.634,138.565Z" transform="translate(-217.962 -109.313)" fill="#263238"/>
              </g>
            </g>
            <g id="Group_134944" data-name="Group 134944" transform="translate(10.925 1.698)">
              <g id="Group_134943" data-name="Group 134943">
                <g id="Group_134936" data-name="Group 134936" transform="translate(0 1.476)">
                  <g id="Group_134935" data-name="Group 134935">
                    <g id="Group_134800" data-name="Group 134800" transform="translate(4.873 8.305)">
                      <g id="Group_134799" data-name="Group 134799">
                        <g id="Group_134798" data-name="Group 134798">
                          <g id="Group_134797" data-name="Group 134797">
                            <g id="Group_134796" data-name="Group 134796">
                              <g id="Group_134795" data-name="Group 134795">
                                <path id="Path_101023" data-name="Path 101023" d="M244.759,161.069a86.757,86.757,0,0,1-3.024-14.665,30.3,30.3,0,0,1,1.947-14.709c.3-.7,2.792-5.338,3.541-5.225.536.081-1.077,4.448-.829,4.93,2.367,4.593,2.8,9.993,2.117,15.116a67.669,67.669,0,0,1-3.751,14.553" transform="translate(-241.571 -126.468)" fill="#263238"/>
                              </g>
                            </g>
                          </g>
                        </g>
                      </g>
                    </g>
                    <g id="Group_134801" data-name="Group 134801" transform="translate(6.265 1.561)">
                      <path id="Path_101024" data-name="Path 101024" d="M245.936,138.667c.238-12.532,7.73-22.838,20.25-22.253l1.154.121a22.408,22.408,0,0,1,20.055,22.83c-.267,10.861-.7,22.858-1.381,28.627-1.409,11.945-13.568,12.544-13.568,12.544-.027,0-.327,19.731-.327,19.731L243.651,180.54Z" transform="translate(-243.651 -116.39)" fill="#ffbe9d"/>
                    </g>
                    <g id="Group_134809" data-name="Group 134809" transform="translate(19.974 59.461)">
                      <g id="Group_134808" data-name="Group 134808">
                        <g id="Group_134807" data-name="Group 134807">
                          <g id="Group_134806" data-name="Group 134806">
                            <g id="Group_134805" data-name="Group 134805">
                              <g id="Group_134804" data-name="Group 134804">
                                <g id="Group_134803" data-name="Group 134803">
                                  <g id="Group_134802" data-name="Group 134802">
                                    <path id="Path_101025" data-name="Path 101025" d="M279.224,209.161a29.052,29.052,0,0,1-15.087-6.246s2.8,10.109,14.851,10.29Z" transform="translate(-264.137 -202.915)" fill="#eb996e"/>
                                  </g>
                                </g>
                              </g>
                            </g>
                          </g>
                        </g>
                      </g>
                    </g>
                    <g id="Group_134823" data-name="Group 134823" transform="translate(42.433 32.076)">
                      <g id="Group_134822" data-name="Group 134822">
                        <g id="Group_134821" data-name="Group 134821">
                          <g id="Group_134820" data-name="Group 134820">
                            <g id="Group_134819" data-name="Group 134819">
                              <g id="Group_134818" data-name="Group 134818">
                                <g id="Group_134817" data-name="Group 134817">
                                  <g id="Group_134816" data-name="Group 134816">
                                    <g id="Group_134815" data-name="Group 134815">
                                      <g id="Group_134814" data-name="Group 134814">
                                        <g id="Group_134813" data-name="Group 134813">
                                          <g id="Group_134812" data-name="Group 134812">
                                            <g id="Group_134811" data-name="Group 134811">
                                              <g id="Group_134810" data-name="Group 134810">
                                                <path id="Path_101026" data-name="Path 101026" d="M301.132,163.72a1.718,1.718,0,0,1-1.829,1.55,1.643,1.643,0,0,1-1.6-1.726,1.718,1.718,0,0,1,1.827-1.55A1.644,1.644,0,0,1,301.132,163.72Z" transform="translate(-297.7 -161.991)" fill="#263238"/>
                                              </g>
                                            </g>
                                          </g>
                                        </g>
                                      </g>
                                    </g>
                                  </g>
                                </g>
                              </g>
                            </g>
                          </g>
                        </g>
                      </g>
                    </g>
                    <g id="Group_134838" data-name="Group 134838" transform="translate(40.188 27.058)">
                      <g id="Group_134837" data-name="Group 134837">
                        <g id="Group_134836" data-name="Group 134836">
                          <g id="Group_134835" data-name="Group 134835">
                            <g id="Group_134834" data-name="Group 134834">
                              <g id="Group_134833" data-name="Group 134833">
                                <g id="Group_134832" data-name="Group 134832">
                                  <g id="Group_134831" data-name="Group 134831">
                                    <g id="Group_134830" data-name="Group 134830">
                                      <g id="Group_134829" data-name="Group 134829">
                                        <g id="Group_134828" data-name="Group 134828">
                                          <g id="Group_134827" data-name="Group 134827">
                                            <g id="Group_134826" data-name="Group 134826">
                                              <g id="Group_134825" data-name="Group 134825">
                                                <g id="Group_134824" data-name="Group 134824">
                                                  <path id="Path_101027" data-name="Path 101027" d="M301.087,156.665c-.236.2-1.429-.893-3.267-1.083-1.834-.215-3.282.588-3.458.343-.088-.11.171-.49.8-.855a4.712,4.712,0,0,1,2.8-.549,4.53,4.53,0,0,1,2.571,1.14C301.052,156.153,301.2,156.576,301.087,156.665Z" transform="translate(-294.345 -154.491)" fill="#263238"/>
                                                </g>
                                              </g>
                                            </g>
                                          </g>
                                        </g>
                                      </g>
                                    </g>
                                  </g>
                                </g>
                              </g>
                            </g>
                          </g>
                        </g>
                      </g>
                    </g>
                    <g id="Group_134852" data-name="Group 134852" transform="translate(25.8 32.076)">
                      <g id="Group_134851" data-name="Group 134851">
                        <g id="Group_134850" data-name="Group 134850">
                          <g id="Group_134849" data-name="Group 134849">
                            <g id="Group_134848" data-name="Group 134848">
                              <g id="Group_134847" data-name="Group 134847">
                                <g id="Group_134846" data-name="Group 134846">
                                  <g id="Group_134845" data-name="Group 134845">
                                    <g id="Group_134844" data-name="Group 134844">
                                      <g id="Group_134843" data-name="Group 134843">
                                        <g id="Group_134842" data-name="Group 134842">
                                          <g id="Group_134841" data-name="Group 134841">
                                            <g id="Group_134840" data-name="Group 134840">
                                              <g id="Group_134839" data-name="Group 134839">
                                                <path id="Path_101028" data-name="Path 101028" d="M276.275,163.72a1.718,1.718,0,0,1-1.829,1.55,1.643,1.643,0,0,1-1.6-1.726,1.718,1.718,0,0,1,1.828-1.55A1.644,1.644,0,0,1,276.275,163.72Z" transform="translate(-272.843 -161.991)" fill="#263238"/>
                                              </g>
                                            </g>
                                          </g>
                                        </g>
                                      </g>
                                    </g>
                                  </g>
                                </g>
                              </g>
                            </g>
                          </g>
                        </g>
                      </g>
                    </g>
                    <g id="Group_134867" data-name="Group 134867" transform="translate(22.105 25.904)">
                      <g id="Group_134866" data-name="Group 134866">
                        <g id="Group_134865" data-name="Group 134865">
                          <g id="Group_134864" data-name="Group 134864">
                            <g id="Group_134863" data-name="Group 134863">
                              <g id="Group_134862" data-name="Group 134862">
                                <g id="Group_134861" data-name="Group 134861">
                                  <g id="Group_134860" data-name="Group 134860">
                                    <g id="Group_134859" data-name="Group 134859">
                                      <g id="Group_134858" data-name="Group 134858">
                                        <g id="Group_134857" data-name="Group 134857">
                                          <g id="Group_134856" data-name="Group 134856">
                                            <g id="Group_134855" data-name="Group 134855">
                                              <g id="Group_134854" data-name="Group 134854">
                                                <g id="Group_134853" data-name="Group 134853">
                                                  <path id="Path_101029" data-name="Path 101029" d="M274.065,154.94c-.236.2-1.431-.894-3.268-1.083-1.834-.215-3.282.588-3.458.342-.086-.11.169-.489.8-.855a4.711,4.711,0,0,1,2.8-.55,4.532,4.532,0,0,1,2.571,1.14C274.029,154.428,274.179,154.851,274.065,154.94Z" transform="translate(-267.323 -152.767)" fill="#263238"/>
                                                </g>
                                              </g>
                                            </g>
                                          </g>
                                        </g>
                                      </g>
                                    </g>
                                  </g>
                                </g>
                              </g>
                            </g>
                          </g>
                        </g>
                      </g>
                    </g>
                    <g id="Group_134881" data-name="Group 134881" transform="translate(33.952 27.492)">
                      <g id="Group_134880" data-name="Group 134880">
                        <g id="Group_134879" data-name="Group 134879">
                          <g id="Group_134878" data-name="Group 134878">
                            <g id="Group_134877" data-name="Group 134877">
                              <g id="Group_134876" data-name="Group 134876">
                                <g id="Group_134875" data-name="Group 134875">
                                  <g id="Group_134874" data-name="Group 134874">
                                    <g id="Group_134873" data-name="Group 134873">
                                      <g id="Group_134872" data-name="Group 134872">
                                        <g id="Group_134871" data-name="Group 134871">
                                          <g id="Group_134870" data-name="Group 134870">
                                            <g id="Group_134869" data-name="Group 134869">
                                              <g id="Group_134868" data-name="Group 134868">
                                                <path id="Path_101030" data-name="Path 101030" d="M285.026,170.544a12.2,12.2,0,0,1,3.042-.224c.474,0,.929-.046,1.041-.357a2.4,2.4,0,0,0-.167-1.425q-.483-1.773-1.011-3.72c-1.391-5.292-2.345-9.623-2.132-9.677s1.515,4.191,2.906,9.483q.5,1.955.951,3.735a2.732,2.732,0,0,1,.049,1.868,1.185,1.185,0,0,1-.844.6,3.19,3.19,0,0,1-.809.027A12.051,12.051,0,0,1,285.026,170.544Z" transform="translate(-285.026 -155.14)" fill="#263238"/>
                                              </g>
                                            </g>
                                          </g>
                                        </g>
                                      </g>
                                    </g>
                                  </g>
                                </g>
                              </g>
                            </g>
                          </g>
                        </g>
                      </g>
                    </g>
                    <g id="Group_134895" data-name="Group 134895" transform="translate(27.986 43.595)">
                      <g id="Group_134894" data-name="Group 134894">
                        <g id="Group_134893" data-name="Group 134893">
                          <g id="Group_134892" data-name="Group 134892">
                            <g id="Group_134891" data-name="Group 134891">
                              <g id="Group_134890" data-name="Group 134890">
                                <g id="Group_134889" data-name="Group 134889">
                                  <g id="Group_134888" data-name="Group 134888">
                                    <g id="Group_134887" data-name="Group 134887">
                                      <g id="Group_134886" data-name="Group 134886">
                                        <g id="Group_134885" data-name="Group 134885">
                                          <g id="Group_134884" data-name="Group 134884">
                                            <g id="Group_134883" data-name="Group 134883">
                                              <g id="Group_134882" data-name="Group 134882">
                                                <path id="Path_101031" data-name="Path 101031" d="M276.533,179.205c.3.014.094,2.01,1.653,3.606s3.705,1.6,3.691,1.88c.015.128-.514.338-1.415.268a5,5,0,0,1-3.094-1.457,4.354,4.354,0,0,1-1.257-3.01C276.124,179.65,276.4,179.179,276.533,179.205Z" transform="translate(-276.111 -179.204)" fill="#263238"/>
                                              </g>
                                            </g>
                                          </g>
                                        </g>
                                      </g>
                                    </g>
                                  </g>
                                </g>
                              </g>
                            </g>
                          </g>
                        </g>
                      </g>
                    </g>
                    <g id="Group_134905" data-name="Group 134905" transform="translate(21.058 18.814)">
                      <g id="Group_134904" data-name="Group 134904">
                        <g id="Group_134903" data-name="Group 134903">
                          <g id="Group_134902" data-name="Group 134902">
                            <g id="Group_134901" data-name="Group 134901">
                              <g id="Group_134900" data-name="Group 134900">
                                <g id="Group_134899" data-name="Group 134899">
                                  <g id="Group_134898" data-name="Group 134898">
                                    <g id="Group_134897" data-name="Group 134897">
                                      <g id="Group_134896" data-name="Group 134896">
                                        <path id="Path_101032" data-name="Path 101032" d="M274.232,143.965c-.234.481-2.044.05-4.229.083-2.184-.011-3.99.437-4.229-.041-.105-.228.248-.666,1-1.075a7.351,7.351,0,0,1,6.443-.032C273.978,143.3,274.334,143.736,274.232,143.965Z" transform="translate(-265.757 -142.172)" fill="#263238"/>
                                      </g>
                                    </g>
                                  </g>
                                </g>
                              </g>
                            </g>
                          </g>
                        </g>
                      </g>
                    </g>
                    <g id="Group_134915" data-name="Group 134915" transform="translate(40.589 20.774)">
                      <g id="Group_134914" data-name="Group 134914">
                        <g id="Group_134913" data-name="Group 134913">
                          <g id="Group_134912" data-name="Group 134912">
                            <g id="Group_134911" data-name="Group 134911">
                              <g id="Group_134910" data-name="Group 134910">
                                <g id="Group_134909" data-name="Group 134909">
                                  <g id="Group_134908" data-name="Group 134908">
                                    <g id="Group_134907" data-name="Group 134907">
                                      <g id="Group_134906" data-name="Group 134906">
                                        <path id="Path_101033" data-name="Path 101033" d="M301.17,147.368c-.367.383-1.588-.183-3.108-.364-1.514-.234-2.841-.016-3.092-.484-.107-.225.14-.622.745-.958a4.531,4.531,0,0,1,5,.683C301.2,146.731,301.334,147.18,301.17,147.368Z" transform="translate(-294.945 -145.101)" fill="#263238"/>
                                      </g>
                                    </g>
                                  </g>
                                </g>
                              </g>
                            </g>
                          </g>
                        </g>
                      </g>
                    </g>
                    <g id="Group_134921" data-name="Group 134921" transform="translate(0 32.098)">
                      <g id="Group_134920" data-name="Group 134920">
                        <g id="Group_134919" data-name="Group 134919">
                          <g id="Group_134918" data-name="Group 134918">
                            <g id="Group_134917" data-name="Group 134917">
                              <g id="Group_134916" data-name="Group 134916">
                                <path id="Path_101034" data-name="Path 101034" d="M242.882,162.723c-.195-.11-7.962-3.3-8.563,4.908s7.76,7.115,7.791,6.881S242.882,162.723,242.882,162.723Z" transform="translate(-234.289 -162.023)" fill="#ffbe9d"/>
                              </g>
                            </g>
                          </g>
                        </g>
                      </g>
                    </g>
                    <g id="Group_134928" data-name="Group 134928" transform="translate(2.092 34.687)">
                      <g id="Group_134927" data-name="Group 134927">
                        <g id="Group_134926" data-name="Group 134926">
                          <g id="Group_134925" data-name="Group 134925">
                            <g id="Group_134924" data-name="Group 134924">
                              <g id="Group_134923" data-name="Group 134923">
                                <g id="Group_134922" data-name="Group 134922">
                                  <path id="Path_101035" data-name="Path 101035" d="M240.867,172.5c-.034-.029-.151.09-.4.183a1.434,1.434,0,0,1-1.07-.056c-.844-.381-1.473-1.811-1.4-3.293a4.745,4.745,0,0,1,.55-2.017A1.656,1.656,0,0,1,239.7,166.3a.729.729,0,0,1,.814.454c.094.238.029.4.072.415.021.022.186-.124.145-.468a.916.916,0,0,0-.285-.538,1.085,1.085,0,0,0-.775-.266,2.013,2.013,0,0,0-1.587,1.162,4.868,4.868,0,0,0-.663,2.251c-.068,1.657.665,3.266,1.826,3.7a1.535,1.535,0,0,0,1.324-.121C240.838,172.7,240.894,172.517,240.867,172.5Z" transform="translate(-237.415 -165.893)" fill="#eb996e"/>
                                </g>
                              </g>
                            </g>
                          </g>
                        </g>
                      </g>
                    </g>
                    <g id="Group_134934" data-name="Group 134934" transform="translate(5.12)">
                      <g id="Group_134933" data-name="Group 134933">
                        <g id="Group_134932" data-name="Group 134932">
                          <g id="Group_134931" data-name="Group 134931">
                            <g id="Group_134930" data-name="Group 134930">
                              <g id="Group_134929" data-name="Group 134929">
                                <path id="Path_101036" data-name="Path 101036" d="M282.394,124.651c1.376-.647-2.335-5.207-5.5-6.9-4.791-2.556-12.237-4.42-16.87-3.422-5.578,1.2-10.3,3.633-13.375,8.442a32.354,32.354,0,0,0-4.686,16.254,9.825,9.825,0,0,0,.834,5.09c1.03,1.889,3.156,3.174,2.9,5.671a3.443,3.443,0,0,0,.691,2.561c1.4,1.7,3.333.312,4.275-1.139,2.012-3.1,2.459-6.925,2.855-10.6a24.026,24.026,0,0,0-.017-7.841c-.313-1.395-.875-2.729-1.111-4.138a4.942,4.942,0,0,1,.845-4.061,5.138,5.138,0,0,1,.711-.632,8.578,8.578,0,0,1,8.6-1.07c4.518,1.933,12.255,4.884,14.418,3.448,3.112-2.066,3.916-3.492,3.916-3.492Z" transform="translate(-241.94 -114.057)" fill="#263238"/>
                              </g>
                            </g>
                          </g>
                        </g>
                      </g>
                    </g>
                  </g>
                </g>
                <g id="Group_134942" data-name="Group 134942" transform="translate(11.614)">
                  <g id="Group_134941" data-name="Group 134941">
                    <g id="Group_134940" data-name="Group 134940">
                      <g id="Group_134939" data-name="Group 134939">
                        <g id="Group_134938" data-name="Group 134938">
                          <g id="Group_134937" data-name="Group 134937">
                            <path id="Path_101037" data-name="Path 101037" d="M263.73,112.514a18.066,18.066,0,0,1,13.82,1.654,9.4,9.4,0,0,1,4.6,5.77c.527,2.475-.7,5.4-3.1,6.2l-.168.091c-3.578.954-5.825.338-9.239-1.1-2.873-1.207-5.369-3.188-8.248-4.38a16.721,16.721,0,0,0-9.747-.913A27.29,27.29,0,0,1,263.73,112.514Z" transform="translate(-251.644 -111.851)" fill="#263238"/>
                          </g>
                        </g>
                      </g>
                    </g>
                  </g>
                </g>
              </g>
            </g>
            <g id="Group_134945" data-name="Group 134945" transform="translate(36.701 0.928)">
              <path id="Path_101038" data-name="Path 101038" d="M272.808,110.708a3.589,3.589,0,0,1,.835.082,13.542,13.542,0,0,1,2.21.6,14.078,14.078,0,0,1,3.023,1.559,11.715,11.715,0,0,1,3.013,2.883,11.156,11.156,0,0,1,1.657,3.828,20.05,20.05,0,0,1,.505,3.358c.068.963.07,1.743.06,2.282a3.639,3.639,0,0,1-.06.836,4.158,4.158,0,0,1-.076-.833c-.031-.536-.072-1.312-.17-2.263a22.189,22.189,0,0,0-.571-3.3,11.245,11.245,0,0,0-1.63-3.706,11.82,11.82,0,0,0-2.91-2.821,14.928,14.928,0,0,0-2.93-1.593A29.738,29.738,0,0,0,272.808,110.708Z" transform="translate(-272.808 -110.7)" fill="#455a64"/>
            </g>
            <g id="Group_134946" data-name="Group 134946" transform="translate(44.256 0.476)">
              <path id="Path_101039" data-name="Path 101039" d="M284.1,110.029a2.962,2.962,0,0,1,.709.2,5.855,5.855,0,0,1,.81.3l1.026.52a10.579,10.579,0,0,1,4.256,5.005,10.752,10.752,0,0,1,.871,3.556,12.033,12.033,0,0,1,.031,1.6,11.8,11.8,0,0,1-.188,1.383,7.1,7.1,0,0,1-.3,1.109,5.087,5.087,0,0,1-.33.8,2.939,2.939,0,0,1-.38.632,14.922,14.922,0,0,0,.772-2.587,10.085,10.085,0,0,0,.079-2.911,10.935,10.935,0,0,0-.873-3.45,10.873,10.873,0,0,0-4.065-4.93l-.98-.553a7.235,7.235,0,0,0-.775-.353A3.015,3.015,0,0,1,284.1,110.029Z" transform="translate(-284.098 -110.025)" fill="#455a64"/>
            </g>
          </g>
          <g id="Group_134957" data-name="Group 134957" transform="translate(0 64.133)">
            <path id="Path_101040" data-name="Path 101040" d="M261.711,227.651c0,1.126,5.644,25.914,7.8,32s9,67.149,8.1,71.5-3.24,4.175-3.24,4.175-55.262-3.479-61.2-2.958-8.46.348-9.9-6.436.043-42.045-1.217-50.569-1.271-12.656-1.758-25.32c-.422-10.976,2.075-19.78,7.3-26.134s16.776-12.779,16.776-12.779l4.1-5.978,29.005,15.341.663-3.491,1.76,5.436Z" transform="translate(-200.251 -205.153)" fill="#8198a3"/>
            <g id="Group_134948" data-name="Group 134948" transform="translate(6.5 45.137)" opacity="0.3">
              <path id="Path_101041" data-name="Path 101041" d="M277.392,325.518c-.483-1.231-2.05-1.542-3.365-1.687-12.289-1.363-25.082-4.431-34.058-12.936a63.687,63.687,0,0,1-8.95-11.382c-5.833-8.82-11.317-17.866-16.8-26.908l-4.257,1.61c2.611,12.768,5.18,22.012,9.432,32.477s7.553,20.619,18.33,24.047c6.966,2.216,20.2.517,27.484-.054a42.636,42.636,0,0,0,9.028-1.415,5.888,5.888,0,0,0,2.443-1.242A2.409,2.409,0,0,0,277.392,325.518Z" transform="translate(-209.965 -272.605)"/>
            </g>
            <g id="Group_134953" data-name="Group 134953" transform="translate(4.354 15.458)">
              <path id="Path_101042" data-name="Path 101042" d="M207.4,256.6c.319.565,24.912,53.094,35.892,55.254s45.106,2.665,51.767,1.4,13.177-2.433,13.177-2.433,4.822-11.455.42-21.214l-9.166.29s-25.487-1.375-29.088-2.359-6.711-4.361-9.951-4.181l-19.389-45.122s-12.6-11.7-21.6-8.1S204.768,251.91,207.4,256.6Z" transform="translate(-206.758 -228.65)" fill="#8198a3"/>
              <g id="Group_134949" data-name="Group 134949" transform="translate(92.506 61.568)">
                <path id="Path_101043" data-name="Path 101043" d="M345.933,342.69a4.558,4.558,0,0,1,.182-.883c.146-.559.327-1.376.518-2.39s.365-2.23.487-3.587a38.481,38.481,0,0,0,.1-4.428,36.211,36.211,0,0,0-1.247-7.94c-.274-.994-.523-1.793-.714-2.338a4.411,4.411,0,0,1-.254-.865,4.5,4.5,0,0,1,.381.818,23.769,23.769,0,0,1,.823,2.317,32.337,32.337,0,0,1,1.359,7.994,34.966,34.966,0,0,1-.124,4.471,31.3,31.3,0,0,1-.565,3.607,23.778,23.778,0,0,1-.629,2.378A4.444,4.444,0,0,1,345.933,342.69Z" transform="translate(-344.997 -320.26)" fill="#263238"/>
              </g>
              <g id="Group_134950" data-name="Group 134950" transform="translate(0.647 9.591)">
                <path id="Path_101044" data-name="Path 101044" d="M241.386,242.586s.13.268.367.8l1.035,2.358,3.923,9.034L260.9,287.654l-.134-.083a8.391,8.391,0,0,1,4.3,1.316c1.338.737,2.633,1.595,4.055,2.244a13.634,13.634,0,0,0,4.613,1.073c1.614.191,3.263.333,4.934.478,6.688.553,13.776.988,21.155,1.4h-.014l9.166-.293.115,0,.046.1a23.607,23.607,0,0,1,1.835,10.519,34.431,34.431,0,0,1-2.25,10.831l-.033.086-.1.018-5.828,1.076-6.38,1.178a42.564,42.564,0,0,1-6.387.658c-4.241.193-8.42.209-12.526.189s-8.137-.118-12.084-.264-7.809-.344-11.572-.631c-1.882-.135-3.737-.316-5.566-.516a38.729,38.729,0,0,1-5.39-.9,9.365,9.365,0,0,1-2.333-1.346,19.776,19.776,0,0,1-1.983-1.739,42.81,42.81,0,0,1-3.4-3.838,140.933,140.933,0,0,1-10.331-15.542c-5.765-9.85-9.926-18.1-12.783-23.8-1.42-2.856-2.5-5.087-3.218-6.6s-1.083-2.321-1.083-2.321.109.192.3.578l.846,1.712,3.276,6.573c2.893,5.682,7.086,13.912,12.873,23.738a141.67,141.67,0,0,0,10.345,15.486,42.352,42.352,0,0,0,3.386,3.806,19.416,19.416,0,0,0,1.956,1.71,9.087,9.087,0,0,0,2.256,1.3,39.176,39.176,0,0,0,5.321.871c1.824.2,3.676.375,5.555.507q5.635.424,11.559.619c3.943.143,7.973.235,12.075.255s8.278,0,12.506-.193a42.227,42.227,0,0,0,6.338-.654l6.381-1.178L308.53,315l-.13.1a34.145,34.145,0,0,0,2.226-10.71,23.278,23.278,0,0,0-1.8-10.367l.161.1-9.166.286h-.015c-7.382-.418-14.47-.861-21.163-1.424-1.674-.148-3.322-.292-4.943-.486-.811-.092-1.613-.2-2.411-.348A9.027,9.027,0,0,1,269,291.4c-1.449-.665-2.746-1.529-4.07-2.262a8.137,8.137,0,0,0-4.146-1.29l-.1,0-.037-.088-14.082-32.924-3.854-9.063-1-2.374C241.492,242.866,241.386,242.586,241.386,242.586Z" transform="translate(-207.725 -242.586)" fill="#263238"/>
              </g>
              <g id="Group_134951" data-name="Group 134951" transform="translate(3.415)">
                <path id="Path_101045" data-name="Path 101045" d="M240.186,234.3c-.023.021-.343-.316-.955-.883a18.425,18.425,0,0,0-7.588-4.188,17.073,17.073,0,0,0-12.411,1.241,18.422,18.422,0,0,0-6.609,5.608c-.488.677-.734,1.071-.761,1.055a1.233,1.233,0,0,1,.149-.3c.114-.189.258-.485.5-.829a16.233,16.233,0,0,1,2.279-2.737,17.524,17.524,0,0,1,21.758-2.175,16.192,16.192,0,0,1,2.776,2.232c.305.289.505.551.654.713A1.25,1.25,0,0,1,240.186,234.3Z" transform="translate(-211.861 -228.253)" fill="#263238"/>
              </g>
              <g id="Group_134952" data-name="Group 134952" transform="translate(50.806 54.752)">
                <path id="Path_101046" data-name="Path 101046" d="M285.5,310.074a46.068,46.068,0,0,1-2.808,7.5,46.209,46.209,0,0,1,2.808-7.5Z" transform="translate(-282.682 -310.073)" fill="#263238"/>
              </g>
            </g>
            <g id="Group_134954" data-name="Group 134954" transform="translate(101.193 78.794)">
              <path id="Path_101047" data-name="Path 101047" d="M352.808,322.97c0-.019.094-.046.252.01a.958.958,0,0,1,.493.482,1.054,1.054,0,0,1-.025,1.043,1.2,1.2,0,0,1-1.164.538,1.129,1.129,0,0,1-.877-.935,1.079,1.079,0,0,1,.335-.988.881.881,0,0,1,.658-.215c.161.015.24.058.237.079.011.066-.39-.025-.725.314a.855.855,0,0,0-.19.749.832.832,0,0,0,.62.652.918.918,0,0,0,.838-.372.825.825,0,0,0,.066-.766C353.156,323.082,352.794,323.015,352.808,322.97Z" transform="translate(-351.472 -322.901)" fill="#263238"/>
            </g>
            <g id="Group_134955" data-name="Group 134955" transform="translate(25.939 6.773)">
              <path id="Path_101048" data-name="Path 101048" d="M270.989,225.589a4.63,4.63,0,0,1-.661-.342L268.5,224.2l.129-.057c-.361,1.83-.711,4.521-1.326,7.746l-.04.213-.187-.117c-2.693-1.7-5.924-3.637-9.37-5.72-2.57-1.538-4.973-3.092-7.186-4.433s-4.256-2.484-5.967-3.443l-4.061-2.259-1.1-.62a2.1,2.1,0,0,1-.373-.236,2.068,2.068,0,0,1,.406.173l1.133.562c.979.5,2.388,1.231,4.116,2.163s3.774,2.064,6.013,3.383l7.2,4.411c3.445,2.082,6.67,4.04,9.35,5.765l-.228.1c.641-3.2,1.037-5.895,1.451-7.72l.027-.12.1.064,1.788,1.116A4.62,4.62,0,0,1,270.989,225.589Z" transform="translate(-239.014 -215.275)" fill="#263238"/>
            </g>
            <g id="Group_134956" data-name="Group 134956" transform="translate(30.015 8.942)" opacity="0.3">
              <path id="Path_101049" data-name="Path 101049" d="M245.106,218.515l15.137,11.278c3.33,2.481,6.74,5,10.695,6.274l-.219-10.519-1.549,7.384Z" transform="translate(-245.106 -218.515)"/>
            </g>
          </g>
        </g>
        <g id="Group_135067" data-name="Group 135067" transform="translate(137.488)">
          <g id="Group_135051" data-name="Group 135051" transform="translate(42.264)">
            <g id="Group_135036" data-name="Group 135036">
              <g id="Group_135035" data-name="Group 135035">
                <g id="Group_134960" data-name="Group 134960">
                  <g id="Group_134959" data-name="Group 134959">
                    <path id="Path_101050" data-name="Path 101050" d="M475,126.114a5.426,5.426,0,0,1-2.5-10.5A5.644,5.644,0,0,1,477.235,106a6.754,6.754,0,0,1,10.076-5.729,7.6,7.6,0,0,1,9.346-.368,5.4,5.4,0,0,1,4.944,9.071" transform="translate(-468.87 -98.473)" fill="#263238"/>
                  </g>
                </g>
                <g id="Group_135034" data-name="Group 135034" transform="translate(4.246 2.449)">
                  <g id="Group_135028" data-name="Group 135028" transform="translate(0 2.842)">
                    <g id="Group_134963" data-name="Group 134963" transform="translate(0 1.471)">
                      <g id="Group_134962" data-name="Group 134962">
                        <g id="Group_134961" data-name="Group 134961">
                          <path id="Path_101051" data-name="Path 101051" d="M476.325,130.233a23.017,23.017,0,0,1,22.51-21.63l1.192-.025c12.866.489,19.638,11.689,18.793,24.536l.765,45.835h0l-31.262,11.222-.273-16.507s-12.392-1.67-12.8-14.017C475.057,153.684,475.655,141.37,476.325,130.233Z" transform="translate(-475.215 -108.578)" fill="#ae7461"/>
                        </g>
                      </g>
                    </g>
                    <g id="Group_134968" data-name="Group 134968" transform="translate(12.732 61.476)">
                      <g id="Group_134967" data-name="Group 134967">
                        <g id="Group_134966" data-name="Group 134966">
                          <g id="Group_134965" data-name="Group 134965">
                            <g id="Group_134964" data-name="Group 134964">
                              <path id="Path_101052" data-name="Path 101052" d="M494.241,203.314a29.965,29.965,0,0,0,16.087-5.066s-3.625,8.966-15.973,8.105Z" transform="translate(-494.241 -198.248)" fill="#6f4439"/>
                            </g>
                          </g>
                        </g>
                      </g>
                    </g>
                    <g id="Group_134976" data-name="Group 134976" transform="translate(4.579 32.664)">
                      <g id="Group_134975" data-name="Group 134975">
                        <g id="Group_134974" data-name="Group 134974">
                          <g id="Group_134973" data-name="Group 134973">
                            <g id="Group_134972" data-name="Group 134972">
                              <g id="Group_134971" data-name="Group 134971">
                                <g id="Group_134970" data-name="Group 134970">
                                  <g id="Group_134969" data-name="Group 134969">
                                    <path id="Path_101053" data-name="Path 101053" d="M482.058,156.822a1.763,1.763,0,0,0,1.737,1.745,1.687,1.687,0,0,0,1.786-1.627,1.765,1.765,0,0,0-1.735-1.747A1.689,1.689,0,0,0,482.058,156.822Z" transform="translate(-482.058 -155.192)" fill="#263238"/>
                                  </g>
                                </g>
                              </g>
                            </g>
                          </g>
                        </g>
                      </g>
                    </g>
                    <g id="Group_134985" data-name="Group 134985" transform="translate(3.858 27.19)">
                      <g id="Group_134984" data-name="Group 134984">
                        <g id="Group_134983" data-name="Group 134983">
                          <g id="Group_134982" data-name="Group 134982">
                            <g id="Group_134981" data-name="Group 134981">
                              <g id="Group_134980" data-name="Group 134980">
                                <g id="Group_134979" data-name="Group 134979">
                                  <g id="Group_134978" data-name="Group 134978">
                                    <g id="Group_134977" data-name="Group 134977">
                                      <path id="Path_101054" data-name="Path 101054" d="M481.01,148.936c.224.226,1.539-.79,3.438-.824,1.9-.061,3.309.887,3.51.65.1-.105-.133-.516-.747-.945a4.845,4.845,0,0,0-2.816-.806,4.652,4.652,0,0,0-2.73.944C481.089,148.416,480.9,148.836,481.01,148.936Z" transform="translate(-480.981 -147.011)" fill="#263238"/>
                                    </g>
                                  </g>
                                </g>
                              </g>
                            </g>
                          </g>
                        </g>
                      </g>
                    </g>
                    <g id="Group_134993" data-name="Group 134993" transform="translate(21.873 32.664)">
                      <g id="Group_134992" data-name="Group 134992">
                        <g id="Group_134991" data-name="Group 134991">
                          <g id="Group_134990" data-name="Group 134990">
                            <g id="Group_134989" data-name="Group 134989">
                              <g id="Group_134988" data-name="Group 134988">
                                <g id="Group_134987" data-name="Group 134987">
                                  <g id="Group_134986" data-name="Group 134986">
                                    <path id="Path_101055" data-name="Path 101055" d="M507.9,156.822a1.763,1.763,0,0,0,1.737,1.745,1.687,1.687,0,0,0,1.785-1.627,1.765,1.765,0,0,0-1.735-1.746A1.688,1.688,0,0,0,507.9,156.822Z" transform="translate(-507.901 -155.192)" fill="#263238"/>
                                  </g>
                                </g>
                              </g>
                            </g>
                          </g>
                        </g>
                      </g>
                    </g>
                    <g id="Group_135002" data-name="Group 135002" transform="translate(22.523 27.164)">
                      <g id="Group_135001" data-name="Group 135001">
                        <g id="Group_135000" data-name="Group 135000">
                          <g id="Group_134999" data-name="Group 134999">
                            <g id="Group_134998" data-name="Group 134998">
                              <g id="Group_134997" data-name="Group 134997">
                                <g id="Group_134996" data-name="Group 134996">
                                  <g id="Group_134995" data-name="Group 134995">
                                    <g id="Group_134994" data-name="Group 134994">
                                      <path id="Path_101056" data-name="Path 101056" d="M508.9,148.9c.224.226,1.541-.79,3.438-.824,1.9-.06,3.308.887,3.509.65.1-.1-.13-.515-.748-.944a4.84,4.84,0,0,0-2.815-.806,4.652,4.652,0,0,0-2.73.943C508.983,148.377,508.793,148.8,508.9,148.9Z" transform="translate(-508.873 -146.973)" fill="#263238"/>
                                    </g>
                                  </g>
                                </g>
                              </g>
                            </g>
                          </g>
                        </g>
                      </g>
                    </g>
                    <g id="Group_135010" data-name="Group 135010" transform="translate(11.086 27.473)">
                      <g id="Group_135009" data-name="Group 135009">
                        <g id="Group_135008" data-name="Group 135008">
                          <g id="Group_135007" data-name="Group 135007">
                            <g id="Group_135006" data-name="Group 135006">
                              <g id="Group_135005" data-name="Group 135005">
                                <g id="Group_135004" data-name="Group 135004">
                                  <g id="Group_135003" data-name="Group 135003">
                                    <path id="Path_101057" data-name="Path 101057" d="M496.646,163.268a12.523,12.523,0,0,0-3.094-.494c-.486-.04-.947-.127-1.035-.456a2.471,2.471,0,0,1,.294-1.443l1.358-3.72c1.884-5.295,3.236-9.645,3.023-9.718s-1.914,4.158-3.8,9.453q-.679,1.958-1.3,3.741a2.806,2.806,0,0,0-.213,1.907,1.215,1.215,0,0,0,.812.693,3.289,3.289,0,0,0,.825.1A12.431,12.431,0,0,0,496.646,163.268Z" transform="translate(-491.782 -147.435)" fill="#263238"/>
                                  </g>
                                </g>
                              </g>
                            </g>
                          </g>
                        </g>
                      </g>
                    </g>
                    <g id="Group_135014" data-name="Group 135014" transform="translate(21.82 20.525)">
                      <g id="Group_135013" data-name="Group 135013">
                        <g id="Group_135012" data-name="Group 135012">
                          <g id="Group_135011" data-name="Group 135011">
                            <path id="Path_101058" data-name="Path 101058" d="M507.847,139.167c.26.476,1.876-.079,3.877-.185,2-.151,3.695.193,3.867-.311.074-.24-.29-.665-1.02-1.036a6.007,6.007,0,0,0-3.018-.57,5.794,5.794,0,0,0-2.882.948C508.017,138.473,507.731,138.939,507.847,139.167Z" transform="translate(-507.822 -137.052)" fill="#263238"/>
                          </g>
                        </g>
                      </g>
                    </g>
                    <g id="Group_135018" data-name="Group 135018" transform="translate(3.459 20.353)">
                      <g id="Group_135017" data-name="Group 135017">
                        <g id="Group_135016" data-name="Group 135016">
                          <g id="Group_135015" data-name="Group 135015">
                            <path id="Path_101059" data-name="Path 101059" d="M480.445,138.842c.409.423,1.966-.057,3.85-.116,1.881-.114,3.485.219,3.842-.239.157-.222-.1-.65-.808-1.043a6.124,6.124,0,0,0-3.144-.642,6.039,6.039,0,0,0-3.054.929C480.475,138.187,480.265,138.636,480.445,138.842Z" transform="translate(-480.383 -136.794)" fill="#263238"/>
                          </g>
                        </g>
                      </g>
                    </g>
                    <g id="Group_135021" data-name="Group 135021" transform="translate(2.149)">
                      <g id="Group_135020" data-name="Group 135020">
                        <g id="Group_135019" data-name="Group 135019">
                          <path id="Path_101060" data-name="Path 101060" d="M478.459,123.817s3.1-7.8,6.793-9.682c4.471-2.277,6.516,2.639,10.794,1.349s8.547-3.475,13.011-.238c4.888,3.543,2.685,6.143,3.094,11.618,1.658,22.194,5.843,28.394,6.785,17.905.1-1.149,3.266-2.126,3.639-6.979.484-6.294.57-13.926-.923-18.355-1.258-3.733-3.453-6.286-7.353-9.069-6.156-4.394-14.488-4.322-20.134-3.638S477.747,114.142,478.459,123.817Z" transform="translate(-478.426 -106.379)" fill="#263238"/>
                        </g>
                      </g>
                    </g>
                    <g id="Group_135024" data-name="Group 135024" transform="translate(41.689 34.756)">
                      <g id="Group_135023" data-name="Group 135023">
                        <g id="Group_135022" data-name="Group 135022">
                          <path id="Path_101061" data-name="Path 101061" d="M537.69,161.631a3.353,3.353,0,0,1,3.554-3.3c2.308.172,4.9,1.428,4.843,6.191-.1,8.449-8.561,6.608-8.572,6.366C537.507,170.719,537.618,165.166,537.69,161.631Z" transform="translate(-537.514 -158.317)" fill="#ae7461"/>
                        </g>
                      </g>
                    </g>
                    <g id="Group_135027" data-name="Group 135027" transform="translate(43.557 37.497)">
                      <g id="Group_135026" data-name="Group 135026">
                        <g id="Group_135025" data-name="Group 135025">
                          <path id="Path_101062" data-name="Path 101062" d="M540.313,169.081c.037-.027.146.105.393.221a1.471,1.471,0,0,0,1.1.035c.9-.317,1.664-1.726,1.723-3.248a4.859,4.859,0,0,0-.388-2.112,1.7,1.7,0,0,0-1.094-1.143.75.75,0,0,0-.874.393c-.116.235-.064.4-.109.418-.024.021-.179-.144-.108-.492a.94.94,0,0,1,.339-.525,1.111,1.111,0,0,1,.816-.206,2.07,2.07,0,0,1,1.522,1.328,4.994,4.994,0,0,1,.483,2.361c-.074,1.7-.964,3.286-2.19,3.624a1.577,1.577,0,0,1-1.344-.239C540.326,169.285,540.284,169.1,540.313,169.081Z" transform="translate(-540.305 -162.414)" fill="#6f4439"/>
                        </g>
                      </g>
                    </g>
                  </g>
                  <g id="Group_135030" data-name="Group 135030" transform="translate(7.659)">
                    <g id="Group_135029" data-name="Group 135029">
                      <path id="Path_101063" data-name="Path 101063" d="M520.368,126.686a8.016,8.016,0,0,1-3.543,1.724,2.755,2.755,0,0,1-3.095-1.875c-.112-.586.018-1.271-.378-1.717-.472-.533-1.32-.345-2.025-.256a5.392,5.392,0,0,1-5.673-3.751,2.264,2.264,0,0,1-3.029.348,12.126,12.126,0,0,1-2.349-2.413,3.473,3.473,0,0,0-2.928-1.391,8.337,8.337,0,0,1-1.828.442c-1.111-.076-1.679-1.364-1.87-2.461s-.347-2.379-1.3-2.958c-.882-.537-2-.193-3.021-.022s-2.341-.041-2.622-1.035a2.006,2.006,0,0,1,.347-1.539,5.47,5.47,0,0,1,6.413-2.2,7.414,7.414,0,0,1,13.59-1.714,7.524,7.524,0,0,1,12.081,2.5,5.453,5.453,0,0,1,6.309,7.806,5.18,5.18,0,0,1,2.933,4.065c.067,1.747-1.6,3.523-3.3,3.1a3.02,3.02,0,0,1-5.161,3.118" transform="translate(-486.66 -102.133)" fill="#263238"/>
                    </g>
                  </g>
                  <g id="Group_135033" data-name="Group 135033" transform="translate(13.886 7.946)">
                    <g id="Group_135032" data-name="Group 135032">
                      <g id="Group_135031" data-name="Group 135031">
                        <path id="Path_101064" data-name="Path 101064" d="M495.971,114.008c-.007,0-.005.054,0,.155s.023.254.063.45a5.31,5.31,0,0,0,.646,1.614,6.037,6.037,0,0,0,1.913,1.959,5.629,5.629,0,0,0,3.479.916l-.147-.185a3.059,3.059,0,0,0,.217,2.328,8.731,8.731,0,0,0,1.487,2.048,6.313,6.313,0,0,0,.965.95,2.948,2.948,0,0,0,1.348.469,3.083,3.083,0,0,0,2.7-1.029l-.318-.084a6.336,6.336,0,0,0,2.776,4.328,4.622,4.622,0,0,0,2.792.852,8.342,8.342,0,0,0,2.72-.655l-.228-.1a6.657,6.657,0,0,0,2.052,2.566,3.543,3.543,0,0,0,2.958.741,4.651,4.651,0,0,0,3.507-3.713l-.189.093a4.349,4.349,0,0,0,2.91.367,4.725,4.725,0,0,0,2-.944,4.1,4.1,0,0,0,.923-1.051,2,2,0,0,0,.2-.441,5.068,5.068,0,0,1-1.215,1.38,4.69,4.69,0,0,1-1.957.855,4.166,4.166,0,0,1-2.747-.394l-.16-.086-.03.179a4.388,4.388,0,0,1-3.32,3.442,3.218,3.218,0,0,1-2.685-.7,6.339,6.339,0,0,1-1.928-2.435l-.07-.155-.158.06a8.047,8.047,0,0,1-2.6.624,4.265,4.265,0,0,1-2.578-.794,5.992,5.992,0,0,1-2.625-4.078l-.061-.4-.256.315a2.742,2.742,0,0,1-2.383.908,2.624,2.624,0,0,1-1.2-.406,6.181,6.181,0,0,1-.909-.89,8.545,8.545,0,0,1-1.453-1.959,2.773,2.773,0,0,1-.227-2.107l.065-.2-.211.018a5.429,5.429,0,0,1-3.333-.826,6.009,6.009,0,0,1-1.9-1.852A6.513,6.513,0,0,1,495.971,114.008Z" transform="translate(-495.966 -114.007)" fill="#455a64"/>
                      </g>
                    </g>
                  </g>
                </g>
              </g>
            </g>
            <g id="Group_135050" data-name="Group 135050" transform="translate(21.754 49.248)">
              <g id="Group_135049" data-name="Group 135049">
                <g id="Group_135048" data-name="Group 135048">
                  <g id="Group_135047" data-name="Group 135047">
                    <g id="Group_135046" data-name="Group 135046">
                      <g id="Group_135045" data-name="Group 135045">
                        <g id="Group_135044" data-name="Group 135044">
                          <g id="Group_135043" data-name="Group 135043">
                            <g id="Group_135042" data-name="Group 135042">
                              <g id="Group_135041" data-name="Group 135041">
                                <g id="Group_135040" data-name="Group 135040">
                                  <g id="Group_135039" data-name="Group 135039">
                                    <g id="Group_135038" data-name="Group 135038">
                                      <g id="Group_135037" data-name="Group 135037">
                                        <path id="Path_101065" data-name="Path 101065" d="M506.364,172.07c-.3.035.047,2.027-1.407,3.741s-3.612,1.87-3.578,2.151c-.005.13.541.3,1.441.169a5.042,5.042,0,0,0,3.007-1.683,4.387,4.387,0,0,0,1.052-3.114C506.808,172.488,506.5,172.034,506.364,172.07Z" transform="translate(-501.378 -172.068)" fill="#263238"/>
                                      </g>
                                    </g>
                                  </g>
                                </g>
                              </g>
                            </g>
                          </g>
                        </g>
                      </g>
                    </g>
                  </g>
                </g>
              </g>
            </g>
          </g>
          <g id="Group_135066" data-name="Group 135066" transform="translate(0 66.369)">
            <g id="Group_135052" data-name="Group 135052" transform="translate(0 62.154)">
              <path id="Path_101066" data-name="Path 101066" d="M405.711,307.36c1.071-.428,36.436-4.678,36.436-4.678L456.5,290.534,455.149,325.7l-45.156,4.354Z" transform="translate(-405.711 -290.534)" fill="#d13c32"/>
              <path id="Path_101067" data-name="Path 101067" d="M470.157,298.561c-.43.214-3.974,3.364-3.974,3.364l1.081,27.08Z" transform="translate(-425.717 -293.19)" opacity="0.3"/>
            </g>
            <g id="Group_135061" data-name="Group 135061" transform="translate(38.025)">
              <path id="Path_101068" data-name="Path 101068" d="M532.632,393.731H472.9s3.163,16.854,4.334,24.622a99.49,99.49,0,0,0,2.883,13.278h54.1s4.039-9.791,4.741-16.078S532.632,393.731,532.632,393.731Z" transform="translate(-465.963 -262.521)" fill="#263238"/>
              <path id="Path_101069" data-name="Path 101069" d="M465.88,396.771s-1.669,19.213,0,35.865h20.691V417.293Z" transform="translate(-463.396 -263.526)" fill="#263238"/>
              <path id="Path_101070" data-name="Path 101070" d="M483.426,236.721l6.437-14.1.8-8.707s12.344-7.758,18.2-10.687a127.954,127.954,0,0,1,13.746-5.578v8.215Z" transform="translate(-469.446 -197.653)" fill="#ebebeb"/>
              <path id="Path_101071" data-name="Path 101071" d="M530.322,310.172s3.5-46.988,3.733-50.48c0,0,2.065-25.106-2.393-34.666s-14.433-17.963-14.433-17.963l-.918-5.019-19.485,12.281-9.006,7.834a89.991,89.991,0,0,0-8.5,10.574,37.307,37.307,0,0,0-6.664,13.811c-.462,2.092-5.823,27.1-5.983,44.541,0,0-.824,15.21-1.7,23.827-1.087,10.664-2.745,34.974-2.385,49.377l63.139-1.929c15.6-2.38,12.859-3.931,12.859-3.931Z" transform="translate(-462.535 -199.106)" fill="#d13c32"/>
              <g id="Group_135053" data-name="Group 135053" transform="translate(3.693 8.215)">
                <path id="Path_101072" data-name="Path 101072" d="M517.523,209.93s-.146.076-.438.2l-1.288.539c-.551.265-1.22.615-2.006,1.023-.754.466-1.654.95-2.585,1.613a71.711,71.711,0,0,0-13.873,12.822l-.036.042-.052.01-6.058,1.113.13-.151c-.1,2.814-.195,5.768-.3,8.825l0,.069-.052.05a83.764,83.764,0,0,0-8.907,9.764A38.365,38.365,0,0,0,479,250.465l-.33.6-.252.621a10.861,10.861,0,0,0-.457,1.26c-.27.855-.536,1.7-.756,2.562-.935,3.412-1.706,6.743-2.429,9.916-1.437,6.349-2.635,12.089-3.628,16.912-1.981,9.647-3.1,15.634-3.1,15.634a9.615,9.615,0,0,1,.135-1.1c.11-.717.294-1.771.535-3.126.489-2.711,1.227-6.628,2.186-11.458s2.135-10.577,3.556-16.934c.715-3.178,1.48-6.511,2.413-9.936.22-.859.487-1.716.758-2.579a11.082,11.082,0,0,1,.467-1.29l.262-.642.334-.6a38.538,38.538,0,0,1,3.08-4.66,83.232,83.232,0,0,1,8.957-9.8l-.055.118c.11-3.057.216-6.011.318-8.824l0-.128.126-.023,6.061-1.093-.088.052A70.139,70.139,0,0,1,511.11,213.16c.942-.655,1.854-1.13,2.617-1.586.8-.4,1.475-.737,2.033-.989l1.31-.5C517.367,209.976,517.523,209.93,517.523,209.93Z" transform="translate(-468.054 -209.93)" fill="#263238"/>
              </g>
              <g id="Group_135055" data-name="Group 135055" transform="translate(22.974 28.453)">
                <path id="Path_101073" data-name="Path 101073" d="M505.958,257.064l.758,62.7-9.548,61.066h25.171s11.44-46.366,14.1-56.11c2.586-9.461,6.463-57.085,6.806-59.424.135-.917,2.864-17.364-5.169-25.123" transform="translate(-496.967 -240.173)" fill="#cf3c32"/>
                <g id="Group_135054" data-name="Group 135054">
                  <path id="Path_101074" data-name="Path 101074" d="M537.98,240.173s.182.173.527.523a13.94,13.94,0,0,1,1.375,1.69,21.031,21.031,0,0,1,3.144,7.726,43.22,43.22,0,0,1,.478,13.23c-.377,2.568-.567,5.314-.846,8.24s-.546,6.013-.84,9.257c-.6,6.49-1.278,13.6-2.1,21.228-.42,3.813-.857,7.758-1.395,11.812a96.513,96.513,0,0,1-2.217,12.429c-4.205,16.749-8.834,35.182-13.7,54.562l-.033.133h-2.851l-22.456,0h-.2l.031-.2c3.533-22.522,6.793-43.312,9.577-61.061v.023c-.2-18.986-.372-34.659-.49-45.593-.049-5.459-.088-9.734-.114-12.651-.008-1.451-.015-2.562-.019-3.32s.008-1.136.008-1.136.019.386.036,1.136.034,1.869.061,3.319c.044,2.918.109,7.192.191,12.651.147,10.934.357,26.606.612,45.591v.023c-2.767,17.753-6.008,38.544-9.518,61.071l-.171-.2,22.456,0h2.715l-.169.133c4.877-19.381,9.515-37.814,13.73-54.562a96.4,96.4,0,0,0,2.223-12.386c.543-4.05.985-7.993,1.411-11.8.831-7.625,1.523-14.733,2.139-21.22q.456-4.866.866-9.255c.285-2.914.488-5.691.873-8.242a43.347,43.347,0,0,0-.418-13.181,21.236,21.236,0,0,0-3.069-7.714,14.962,14.962,0,0,0-1.344-1.706C538.145,240.363,537.98,240.173,537.98,240.173Z" transform="translate(-496.867 -240.173)" fill="#263238"/>
                </g>
              </g>
              <g id="Group_135056" data-name="Group 135056" transform="translate(32.687 108.621)">
                <path id="Path_101075" data-name="Path 101075" d="M523.973,365.567a10.3,10.3,0,0,1-1.945-.563c-1.183-.4-2.8-1.019-4.544-1.793s-3.286-1.561-4.378-2.167a10.27,10.27,0,0,1-1.722-1.065,13.417,13.417,0,0,1,1.836.846c1.119.549,2.669,1.3,4.406,2.068s3.331,1.419,4.488,1.88A13.383,13.383,0,0,1,523.973,365.567Z" transform="translate(-511.382 -359.974)" fill="#263238"/>
              </g>
              <g id="Group_135057" data-name="Group 135057" transform="translate(2.18 55.283)">
                <path id="Path_101076" data-name="Path 101076" d="M465.8,343.354a.567.567,0,0,1-.006-.164c0-.129.01-.287.017-.48q.036-.676.1-1.844c.1-1.631.251-3.939.432-6.778.386-5.721.938-13.626,1.709-22.343s1.663-16.6,2.388-22.286c.365-2.845.674-5.145.907-6.731q.173-1.156.273-1.826l.08-.474a.083.083,0,1,1,.035,0c-.012.128-.027.285-.046.478q-.076.672-.208,1.834c-.191,1.623-.463,3.919-.8,6.744-.663,5.695-1.514,13.57-2.287,22.287s-1.361,16.613-1.81,22.33c-.227,2.835-.412,5.141-.542,6.769q-.1,1.164-.164,1.84c-.021.193-.037.35-.052.478A.572.572,0,0,1,465.8,343.354Z" transform="translate(-465.793 -280.267)" fill="#263238"/>
              </g>
              <g id="Group_135058" data-name="Group 135058" transform="translate(47.318 11.246)">
                <path id="Path_101077" data-name="Path 101077" d="M539.09,223.756a23.4,23.4,0,0,0-5.843-9.295,5.653,5.653,0,0,1,1.276,1.032,16.707,16.707,0,0,1,4.19,6.666A5.587,5.587,0,0,1,539.09,223.756Z" transform="translate(-533.245 -214.459)" fill="#263238"/>
              </g>
              <g id="Group_135059" data-name="Group 135059" transform="translate(5.135 96.477)">
                <path id="Path_101078" data-name="Path 101078" d="M473.82,343.792c.018,0,.082.154.062.456a1.819,1.819,0,0,1-.547,1.135,1.735,1.735,0,0,1-1.815.412,2.013,2.013,0,0,1-.933-.667,1.845,1.845,0,0,1-.377-1.176,2.434,2.434,0,0,1,.484-1.459,1.5,1.5,0,0,1,.586-.463c.241-.089.416-.131.615-.195l.025-.007h.022a2.1,2.1,0,0,1,1.214.349,1.568,1.568,0,0,1,.562.8,1.59,1.59,0,0,1,.1.818c-.041.009-.078-.294-.269-.753a1.453,1.453,0,0,0-.537-.656,1.917,1.917,0,0,0-1.072-.25l.046-.007c-.182.064-.413.133-.578.2a1.189,1.189,0,0,0-.451.374,2.155,2.155,0,0,0-.4,1.254,1.6,1.6,0,0,0,1.069,1.539,1.489,1.489,0,0,0,1.539-.29,1.832,1.832,0,0,0,.581-.975A3.478,3.478,0,0,1,473.82,343.792Z" transform="translate(-470.209 -341.827)" fill="#263238"/>
              </g>
              <g id="Group_135060" data-name="Group 135060" transform="translate(4.199 118.647)">
                <path id="Path_101079" data-name="Path 101079" d="M472.421,376.922c.018,0,.082.155.062.456a1.818,1.818,0,0,1-.547,1.135,1.733,1.733,0,0,1-1.815.412,2.009,2.009,0,0,1-.933-.667,1.843,1.843,0,0,1-.377-1.176,2.43,2.43,0,0,1,.484-1.458,1.5,1.5,0,0,1,.587-.463c.241-.089.416-.131.615-.195l.025-.008h.022a2.111,2.111,0,0,1,1.214.349,1.86,1.86,0,0,1,.664,1.615c-.041.009-.078-.294-.27-.753a1.451,1.451,0,0,0-.537-.656,1.916,1.916,0,0,0-1.072-.25l.046-.007c-.182.064-.413.134-.577.2a1.19,1.19,0,0,0-.451.374,2.157,2.157,0,0,0-.4,1.254,1.6,1.6,0,0,0,1.07,1.538,1.488,1.488,0,0,0,1.539-.29,1.831,1.831,0,0,0,.581-.975A3.5,3.5,0,0,1,472.421,376.922Z" transform="translate(-468.81 -374.957)" fill="#263238"/>
              </g>
            </g>
            <g id="Group_135062" data-name="Group 135062" transform="translate(82.664 22.304)">
              <path id="Path_101080" data-name="Path 101080" d="M545.857,233.423c-.035.06-.867-.472-2.335-1.035a16.249,16.249,0,0,0-2.649-.754,16.352,16.352,0,0,0-6.7.092,16.24,16.24,0,0,0-2.627.827c-1.453.6-2.268,1.158-2.305,1.1a2.658,2.658,0,0,1,.553-.416,5.88,5.88,0,0,1,.694-.422,9.86,9.86,0,0,1,.96-.487,14.647,14.647,0,0,1,2.653-.914,15.536,15.536,0,0,1,6.834-.094,14.6,14.6,0,0,1,2.676.84,9.772,9.772,0,0,1,.974.46,5.864,5.864,0,0,1,.7.4A2.614,2.614,0,0,1,545.857,233.423Z" transform="translate(-529.243 -230.984)" fill="#263238"/>
            </g>
            <g id="Group_135063" data-name="Group 135063" transform="translate(44.143 19.399)" opacity="0.3">
              <path id="Path_101081" data-name="Path 101081" d="M471.678,290.634c2.727-3.967,3.727-7.71,5.184-12.3,2.165-6.818,2.769-14.523,6.166-20.819,2-3.708,4.353-7.512,7.831-9.89,3.393-2.319,3.9-5.267,3.828-13.24a9.332,9.332,0,0,0,5.293-2.173,13.5,13.5,0,0,0,2.974-5.573c-1.7,1.85-4.538,4.918-4.538,4.918s-6.15,1.143-6.06,1.1c-.151,3.067-.157,5.758-.308,8.825,0,0-11.8,12.518-12.717,15.035S471.678,290.634,471.678,290.634Z" transform="translate(-471.678 -226.642)"/>
            </g>
            <g id="Group_135064" data-name="Group 135064" transform="translate(87.95 60.586)" opacity="0.3">
              <path id="Path_101082" data-name="Path 101082" d="M537.141,389.151c14.952-28.3,19.6-65.513,18.709-100.96,0,0-4.291,43.084-5.738,50.48C548.676,346.015,537.141,389.151,537.141,389.151Z" transform="translate(-537.141 -288.191)"/>
            </g>
            <g id="Group_135065" data-name="Group 135065" transform="translate(59.139 3.659)">
              <path id="Path_101083" data-name="Path 101083" d="M525.18,203.123a1.883,1.883,0,0,1-.335.256l-1,.677-3.7,2.432-12.275,7.91-5.3,3.377.011-.008-1.692,1.309a13.665,13.665,0,0,0-1.511,1.29c-.927.9-1.752,1.766-2.494,2.556l-.134.143-.077-.177-1.931-4.463c-.209-.5-.378-.907-.509-1.223a.232.232,0,1,1,.067-.029l.571,1.194,2.036,4.417-.211-.034c.731-.8,1.547-1.687,2.473-2.6a13.758,13.758,0,0,1,1.531-1.33l1.677-1.316.006,0,.006,0,5.289-3.392,12.332-7.825,3.758-2.337,1.031-.621A1.942,1.942,0,0,1,525.18,203.123Z" transform="translate(-494.087 -203.122)" fill="#263238"/>
            </g>
          </g>
        </g>
      </g>
      <g id="Light_Bulb" data-name="Light Bulb" transform="translate(192.27 4112.894)" style="mix-blend-mode: normal;isolation: isolate">
        <g id="Group_135098" data-name="Group 135098" transform="translate(0 0)">
          <g id="Group_135071" data-name="Group 135071">
            <g id="Group_135068" data-name="Group 135068" transform="translate(8.674)">
              <path id="Path_101084" data-name="Path 101084" d="M64.187,148.672c-.08.045-2.924-4.89-6.352-11.02s-6.144-11.139-6.063-11.183,2.924,4.888,6.353,11.021S64.267,148.628,64.187,148.672Z" transform="translate(-51.769 -126.469)" fill="#263238"/>
            </g>
            <g id="Group_135069" data-name="Group 135069" transform="translate(29.742 0.922)">
              <path id="Path_101085" data-name="Path 101085" d="M84.215,127.846c.092,0-.044,3.784-.3,8.44s-.541,8.427-.632,8.422.043-3.784.3-8.441S84.123,127.841,84.215,127.846Z" transform="translate(-83.253 -127.846)" fill="#263238"/>
            </g>
            <g id="Group_135070" data-name="Group 135070" transform="translate(0 22.625)">
              <path id="Path_101086" data-name="Path 101086" d="M53.027,165.089c-.029.087-3.236-.919-7.162-2.246s-7.086-2.473-7.056-2.56,3.235.919,7.163,2.246S53.056,165,53.027,165.089Z" transform="translate(-38.808 -160.278)" fill="#263238"/>
            </g>
          </g>
          <g id="Group_135076" data-name="Group 135076" transform="translate(11.168 20.943)">
            <g id="Group_135075" data-name="Group 135075">
              <g id="Group_135074" data-name="Group 135074">
                <g id="Group_135073" data-name="Group 135073">
                  <g id="Group_135072" data-name="Group 135072">
                    <path id="Path_101087" data-name="Path 101087" d="M106.634,173.751a26.687,26.687,0,1,0-25.172,37.387l2.7,6.167,21.424-9.386s-1.387-3.518-2.692-6.628A26.68,26.68,0,0,0,106.634,173.751Z" transform="translate(-55.496 -157.766)" fill="#5781ac"/>
                  </g>
                </g>
              </g>
            </g>
          </g>
          <g id="Group_135077" data-name="Group 135077" transform="translate(31.382 43.982)">
            <path id="Path_101088" data-name="Path 101088" d="M112.372,220.709s-.062-.1-.173-.285l-.49-.846c-.428-.745-1.049-1.85-1.828-3.284-1.552-2.871-3.735-7.064-6.13-12.388q-.9-1.994-1.83-4.2l-.934-2.252a8.34,8.34,0,0,1-.725-2.436,2.826,2.826,0,0,1,.191-1.309,1.721,1.721,0,0,1,.929-.976,1.615,1.615,0,0,1,1.358.151,2.523,2.523,0,0,1,.969,1,3.112,3.112,0,0,1-.046,2.758,4.694,4.694,0,0,1-1.972,2.076,5.072,5.072,0,0,1-2.871.623,5.346,5.346,0,0,1-2.793-1.112,6.389,6.389,0,0,1-1.925-2.4,4.673,4.673,0,0,1-.438-1.514,2.2,2.2,0,0,1,.35-1.561,1.416,1.416,0,0,1,.679-.481,1.813,1.813,0,0,1,.826-.06,2.552,2.552,0,0,1,1.436.761,5.528,5.528,0,0,1,.944,1.328,16.274,16.274,0,0,1,.685,1.478,11.029,11.029,0,0,1,.807,3.191,6.066,6.066,0,0,1-.553,3.28,4.836,4.836,0,0,1-1,1.364,3.773,3.773,0,0,1-1.451.854,3.5,3.5,0,0,1-1.672.058,4.49,4.49,0,0,1-1.528-.643,10.076,10.076,0,0,1-2.353-2.234c-.337-.418-.652-.849-.954-1.285a9.175,9.175,0,0,1-.834-1.36,2.614,2.614,0,0,1-.26-1.577,1.7,1.7,0,0,1,.319-.751,1.15,1.15,0,0,1,.7-.428,1.374,1.374,0,0,1,.806.106,2.722,2.722,0,0,1,.67.421,5.323,5.323,0,0,1,1.006,1.17,8.935,8.935,0,0,1,1.647,5.638,5.711,5.711,0,0,1-.966,2.7,4.278,4.278,0,0,1-2.207,1.7,3.694,3.694,0,0,1-2.688-.223A4.206,4.206,0,0,1,86.14,206a3.468,3.468,0,0,1-.418-1.229,1.937,1.937,0,0,1,.227-1.262.989.989,0,0,1,1.164-.4,2.333,2.333,0,0,1,.988.736,9.667,9.667,0,0,1,1.188,2.029l1,2c2.6,5.223,4.633,9.488,5.981,12.459.676,1.486,1.179,2.649,1.516,3.439l.374.9c.083.2.121.311.121.311s-.05-.1-.139-.3l-.391-.895c-.349-.785-.863-1.943-1.548-3.423-1.369-2.961-3.417-7.216-6.035-12.43l-1.008-2a9.591,9.591,0,0,0-1.173-2,2.186,2.186,0,0,0-.921-.689.84.84,0,0,0-.988.343,1.791,1.791,0,0,0-.2,1.158,3.293,3.293,0,0,0,.4,1.17,4.042,4.042,0,0,0,1.867,1.694,3.525,3.525,0,0,0,2.568.211,4.1,4.1,0,0,0,2.114-1.635,5.538,5.538,0,0,0,.932-2.62,8.759,8.759,0,0,0-1.623-5.519,5.125,5.125,0,0,0-.972-1.13,1.69,1.69,0,0,0-1.322-.486,1.161,1.161,0,0,0-.872,1.029,2.433,2.433,0,0,0,.247,1.465,9.05,9.05,0,0,0,.818,1.332c.3.434.614.861.946,1.275a9.94,9.94,0,0,0,2.307,2.191,4.309,4.309,0,0,0,1.464.616,3.291,3.291,0,0,0,1.579-.055,4,4,0,0,0,2.332-2.118,5.876,5.876,0,0,0,.533-3.179,10.849,10.849,0,0,0-.793-3.134,8.6,8.6,0,0,0-1.585-2.743,2.367,2.367,0,0,0-1.33-.709,1.368,1.368,0,0,0-1.329.468,2.026,2.026,0,0,0-.312,1.427,4.476,4.476,0,0,0,.421,1.454,6.207,6.207,0,0,0,1.867,2.328,5.168,5.168,0,0,0,2.7,1.078,4.891,4.891,0,0,0,2.769-.6,4.523,4.523,0,0,0,1.9-1.995,2.944,2.944,0,0,0,.054-2.6,2.364,2.364,0,0,0-.9-.931,1.452,1.452,0,0,0-1.218-.143,1.562,1.562,0,0,0-.838.885,2.674,2.674,0,0,0-.181,1.234,8.243,8.243,0,0,0,.709,2.39l.927,2.251q.921,2.2,1.817,4.2c2.377,5.327,4.54,9.527,6.071,12.408.769,1.439,1.379,2.549,1.795,3.3q.31.559.473.855C112.322,220.607,112.372,220.709,112.372,220.709Z" transform="translate(-85.704 -192.194)" fill="#fff"/>
          </g>
          <g id="Group_135078" data-name="Group 135078" transform="translate(14.219 55.674)">
            <path id="Path_101089" data-name="Path 101089" d="M85.085,226.434a2.037,2.037,0,0,1-.327.031c-.215.009-.533.04-.942.038a23.371,23.371,0,0,1-3.46-.2,24.79,24.79,0,0,1-5-1.19,24.517,24.517,0,0,1-10.372-6.949,24.812,24.812,0,0,1-3-4.173,23.342,23.342,0,0,1-1.506-3.122c-.157-.377-.249-.683-.323-.885a2.076,2.076,0,0,1-.1-.314,2.142,2.142,0,0,1,.133.3c.086.2.187.5.355.871a25.954,25.954,0,0,0,1.554,3.082,25.3,25.3,0,0,0,18.276,12.245,25.87,25.87,0,0,0,3.441.265c.408.013.725-.006.94,0A2.19,2.19,0,0,1,85.085,226.434Z" transform="translate(-60.056 -209.666)" fill="#263238"/>
          </g>
          <g id="Group_135079" data-name="Group 135079" transform="translate(13.197 50.558)">
            <path id="Path_101090" data-name="Path 101090" d="M58.548,202.021a9.936,9.936,0,0,1,.47,2.722,9.936,9.936,0,0,1-.47-2.722Z" transform="translate(-58.529 -202.021)" fill="#263238"/>
          </g>
          <g id="Group_135080" data-name="Group 135080" transform="translate(44.532 23.999)">
            <path id="Path_101091" data-name="Path 101091" d="M122.912,182.125a1.64,1.64,0,0,1-.073-.275q-.066-.3-.174-.793c-.037-.174-.077-.365-.12-.573s-.122-.43-.189-.671c-.144-.479-.273-1.035-.507-1.619q-.162-.444-.338-.927c-.12-.321-.28-.642-.426-.981-.28-.685-.67-1.373-1.059-2.108a25.639,25.639,0,0,0-7.124-8.031c-.683-.474-1.32-.942-1.967-1.3-.319-.186-.618-.383-.923-.541l-.881-.446c-.553-.3-1.089-.5-1.547-.7-.231-.1-.443-.193-.644-.268l-.555-.188-.766-.266a1.537,1.537,0,0,1-.264-.106,1.585,1.585,0,0,1,.275.069l.78.233.562.173c.2.07.418.163.652.254a16.719,16.719,0,0,1,1.567.674l.891.438c.308.155.611.35.935.534.654.357,1.3.824,1.99,1.3a25.182,25.182,0,0,1,7.173,8.087c.387.742.774,1.437,1.05,2.13.144.343.3.666.42.992l.328.938a16.419,16.419,0,0,1,.482,1.636c.062.243.128.467.174.677s.073.4.1.579l.139.8A1.513,1.513,0,0,1,122.912,182.125Z" transform="translate(-105.356 -162.332)" fill="#263238"/>
          </g>
          <g id="Group_135081" data-name="Group 135081" transform="translate(14.891 29.532)" opacity="0.2">
            <path id="Path_101092" data-name="Path 101092" d="M75.388,171.564a4.753,4.753,0,0,0-3.864-.9,8.4,8.4,0,0,0-5.5,3.183c-4.022,5.063-5.533,9.7-4.771,16.425.259,2.277,1.4,5.724,3.248,7.259a4.339,4.339,0,0,0,3.313,1.036c3.11-.409,4.126-4.051,3.858-6.988-.25-2.737-1.145-5.559-.264-8.162.725-2.144,2.529-3.718,3.779-5.6S77.019,173.134,75.388,171.564Z" transform="translate(-61.061 -170.601)" fill="#fff"/>
          </g>
          <g id="Group_135082" data-name="Group 135082" transform="translate(32.36 24.523)" opacity="0.2">
            <path id="Path_101093" data-name="Path 101093" d="M93.407,163.838a4.239,4.239,0,0,0-5.191.349,4.348,4.348,0,0,0-.959,3.674,3.983,3.983,0,0,0,3.255,3.037,3.764,3.764,0,0,0,3.857-2.151C94.995,167.3,94.679,164.776,93.407,163.838Z" transform="translate(-87.167 -163.115)" fill="#fff"/>
          </g>
          <g id="Group_135097" data-name="Group 135097" transform="translate(36.175 65.154)">
            <g id="_2gGvdE.tif" data-name="2gGvdE.tif" transform="translate(15.079 20.956)">
              <path id="Path_101094" data-name="Path 101094" d="M115.4,259.331a7.275,7.275,0,0,1,1.943.627,1.568,1.568,0,0,0,1.375.043l4.31-1.892a1.588,1.588,0,0,0,.927-1.167,2.944,2.944,0,0,1,.97-1.793Z" transform="translate(-115.4 -255.149)" fill="#263238"/>
            </g>
            <path id="Path_101095" data-name="Path 101095" d="M100.555,242.5c.038.087,3.993,6.38,5.505,8.786a3.465,3.465,0,0,0,2.853,1.657,3.214,3.214,0,0,0,1.344-.27l9.427-4.138s2.463-1.081,2.164-3.281c-.316-2.315-2.754-10.893-2.754-10.893Z" transform="translate(-95.41 -227.316)" fill="#c0d2dd"/>
            <g id="Group_135084" data-name="Group 135084" transform="translate(9.343 15.582)">
              <path id="Rectangle_21491" data-name="Rectangle 21491" d="M.538,0H18.417a.538.538,0,0,1,.538.538v0a.538.538,0,0,1-.538.538H.538A.538.538,0,0,1,0,.538v0A.538.538,0,0,1,.538,0Z" transform="translate(0 7.681) rotate(-23.903)" fill="#96afbf"/>
              <g id="Group_135083" data-name="Group 135083" transform="translate(0.077 0.13)">
                <path id="Path_101096" data-name="Path 101096" d="M124.166,248.374a.577.577,0,0,0,.252-.287.518.518,0,0,0-.049-.447.482.482,0,0,0-.52-.252c-.9.38-2.208.992-3.825,1.711l-12.655,5.636a.425.425,0,0,0-.23.525.648.648,0,0,0,.1.191.429.429,0,0,0,.371.144,2.583,2.583,0,0,0,.436-.173l1.779-.788,3.365-1.486,5.7-2.507,3.85-1.676,1.05-.448.275-.112a.051.051,0,1,1,.007.016l-.268.128-1.037.477-3.828,1.726-5.686,2.541L109.9,254.79l-1.779.79-.226.1a.884.884,0,0,1-.259.086.6.6,0,0,1-.523-.2.8.8,0,0,1-.135-.248.6.6,0,0,1,.323-.739l12.675-5.59c1.629-.706,2.927-1.295,3.862-1.665a.54.54,0,0,1,.579.294.559.559,0,0,1,.035.483A.449.449,0,0,1,124.166,248.374Z" transform="translate(-106.944 -247.313)" fill="#263238"/>
              </g>
            </g>
            <g id="Group_135086" data-name="Group 135086" transform="translate(8.065 13.308)">
              <path id="Rectangle_21492" data-name="Rectangle 21492" d="M.538,0H19.177a.538.538,0,0,1,.538.538v0a.538.538,0,0,1-.538.538H.538A.538.538,0,0,1,0,.538v0A.538.538,0,0,1,.538,0Z" transform="matrix(0.914, -0.405, 0.405, 0.914, 0, 7.988)" fill="#96afbf"/>
              <g id="Group_135085" data-name="Group 135085" transform="translate(0.076 0.13)">
                <path id="Path_101097" data-name="Path 101097" d="M122.951,244.975a.561.561,0,0,0,.257-.3.537.537,0,0,0-.069-.462.483.483,0,0,0-.559-.209l-3.974,1.788-13.146,5.854a.425.425,0,0,0-.249.335.413.413,0,0,0,.028.213.511.511,0,0,0,.116.191.422.422,0,0,0,.4.111c.134-.043.308-.132.46-.195l1.848-.818,3.5-1.544,5.922-2.6,4-1.742,1.091-.466.285-.117a.505.505,0,0,1,.1-.035.426.426,0,0,1-.092.051l-.278.133-1.077.5-3.976,1.793-5.907,2.639-3.491,1.552-1.847.82c-.165.068-.3.143-.489.205a.6.6,0,0,1-.559-.157.7.7,0,0,1-.155-.249.589.589,0,0,1-.039-.3.6.6,0,0,1,.351-.472l13.167-5.808c1.689-.738,3.048-1.336,4-1.741a.541.541,0,0,1,.624.248.575.575,0,0,1,.057.5A.447.447,0,0,1,122.951,244.975Z" transform="translate(-105.033 -243.915)" fill="#263238"/>
              </g>
            </g>
            <g id="Group_135088" data-name="Group 135088" transform="translate(6.913 11.09)">
              <path id="Rectangle_21493" data-name="Rectangle 21493" d="M.538,0H19.662A.538.538,0,0,1,20.2.538v0a.538.538,0,0,1-.538.538H.538A.538.538,0,0,1,0,.538v0A.538.538,0,0,1,.538,0Z" transform="translate(0 8.185) rotate(-23.903)" fill="#96afbf"/>
              <g id="Group_135087" data-name="Group 135087" transform="translate(0.076 0.131)">
                <path id="Path_101098" data-name="Path 101098" d="M121.672,241.661a.565.565,0,0,0,.26-.31.547.547,0,0,0-.083-.47.481.481,0,0,0-.582-.179l-4.071,1.833-13.459,5.993a.424.424,0,0,0-.215.562.479.479,0,0,0,.125.191.425.425,0,0,0,.411.089c.147-.059.318-.139.475-.207l1.892-.837,3.578-1.581,6.063-2.667,4.094-1.784,1.116-.477.292-.12a.526.526,0,0,1,.1-.035.5.5,0,0,1-.094.052l-.285.136-1.1.507-4.071,1.835-6.048,2.7-3.574,1.59-1.892.84c-.164.071-.31.142-.492.214a.6.6,0,0,1-.58-.125.664.664,0,0,1-.168-.25.6.6,0,0,1,.3-.792l13.48-5.946,4.1-1.783a.539.539,0,0,1,.65.214.581.581,0,0,1,.072.509A.451.451,0,0,1,121.672,241.661Z" transform="translate(-103.312 -240.602)" fill="#263238"/>
              </g>
            </g>
            <g id="Group_135090" data-name="Group 135090" transform="translate(5.627 8.813)">
              <path id="Rectangle_21494" data-name="Rectangle 21494" d="M.538,0h19.9a.538.538,0,0,1,.538.538v0a.538.538,0,0,1-.538.538H.538A.538.538,0,0,1,0,.538v0A.538.538,0,0,1,.538,0Z" transform="translate(0 8.5) rotate(-23.903)" fill="#e0e0e0"/>
              <g id="Group_135089" data-name="Group 135089" transform="translate(0.076 0.132)">
                <path id="Path_101099" data-name="Path 101099" d="M120.461,238.258a.55.55,0,0,0,.264-.325.559.559,0,0,0-.106-.482.486.486,0,0,0-.618-.129l-4.224,1.9-13.962,6.215a.428.428,0,0,0-.252.362.527.527,0,0,0,.187.412.428.428,0,0,0,.434.05l.5-.221,1.963-.869,3.711-1.639,6.29-2.767,4.246-1.852,1.158-.5.3-.124a.056.056,0,1,1,.007.016l-.3.141-1.145.525-4.224,1.9-6.274,2.8-3.707,1.649-1.962.871-.5.221a.6.6,0,0,1-.61-.07.709.709,0,0,1-.254-.561.6.6,0,0,1,.355-.509l13.982-6.169,4.246-1.852a.545.545,0,0,1,.687.16.6.6,0,0,1,.1.525.515.515,0,0,1-.2.265A.326.326,0,0,1,120.461,238.258Z" transform="translate(-101.39 -237.199)" fill="#263238"/>
              </g>
            </g>
            <path id="Path_101100" data-name="Path 101100" d="M93.192,234.28c.076.175,2.275,4.127,3.4,6.156a2.785,2.785,0,0,0,1.989,1.394l1.235.2,18.226-8,.679-1.029a2.789,2.789,0,0,0,.31-2.435l-2.266-6.634Z" transform="translate(-92.974 -223.865)" fill="#739eca"/>
            <g id="Group_135091" data-name="Group 135091" transform="translate(10.838 17.007)" opacity="0.3">
              <path id="Path_101101" data-name="Path 101101" d="M109.063,255.971a25.938,25.938,0,0,0,5.618-1.963c1.552-.69,3.1-1.317,4.771-2.093,1.226-.569,2.338-1.132,3.549-1.726a3.707,3.707,0,0,0,1.3-.94Z" transform="translate(-109.063 -249.248)"/>
            </g>
            <g id="Group_135092" data-name="Group 135092" transform="translate(9.253 14.642)" opacity="0.3">
              <path id="Path_101102" data-name="Path 101102" d="M106.695,252.958a30.126,30.126,0,0,0,6.042-2.149c1.674-.743,3.338-1.423,5.143-2.257,1.323-.611,2.523-1.213,3.83-1.85a4.246,4.246,0,0,0,1.41-.99Z" transform="translate(-106.695 -245.713)"/>
            </g>
            <g id="Group_135093" data-name="Group 135093" transform="translate(8.329 12.537)" opacity="0.3">
              <path id="Path_101103" data-name="Path 101103" d="M105.314,249.813a30.09,30.09,0,0,0,6.042-2.149c1.674-.743,3.338-1.422,5.143-2.256,1.323-.611,2.523-1.213,3.83-1.85a4.255,4.255,0,0,0,1.41-.99Z" transform="translate(-105.314 -242.568)"/>
            </g>
            <g id="Group_135094" data-name="Group 135094" transform="translate(7.405 10.432)" opacity="0.3">
              <path id="Path_101104" data-name="Path 101104" d="M103.933,246.667a30.07,30.07,0,0,0,6.042-2.149c1.674-.743,3.338-1.422,5.144-2.256,1.322-.612,2.523-1.213,3.83-1.85a4.257,4.257,0,0,0,1.41-.989Z" transform="translate(-103.933 -239.423)"/>
            </g>
            <path id="Path_101105" data-name="Path 101105" d="M93.192,234.28c.076.175,2.275,4.127,3.4,6.156a2.785,2.785,0,0,0,1.989,1.394l1.235.2,18.226-8,.679-1.029a2.789,2.789,0,0,0,.31-2.435l-2.266-6.634Z" transform="translate(-92.974 -223.865)" opacity="0.3"/>
            <g id="Group_135095" data-name="Group 135095" transform="translate(4.224 7.771)">
              <path id="Path_101106" data-name="Path 101106" d="M120.955,235.447c.019.044-4.84,2.22-10.853,4.86s-10.9,4.744-10.924,4.7,4.839-2.219,10.853-4.86S120.936,235.4,120.955,235.447Z" transform="translate(-99.179 -235.446)" fill="#263238"/>
            </g>
            <g id="Group_135096" data-name="Group 135096">
              <path id="Path_101107" data-name="Path 101107" d="M116.479,223.834c.023.048-5.244,2.432-11.764,5.325s-11.825,5.2-11.848,5.152,5.243-2.432,11.765-5.325S116.456,223.786,116.479,223.834Z" transform="translate(-92.867 -223.833)" fill="#263238"/>
            </g>
          </g>
        </g>
      </g>
      <g id="Speech_Bubble" data-name="Speech Bubble" transform="translate(390.758 4086.473)" style="mix-blend-mode: normal;isolation: isolate">
        <g id="Group_135115" data-name="Group 135115">
          <g id="Group_135108" data-name="Group 135108" transform="translate(21.094)">
            <g id="Group_135107" data-name="Group 135107">
              <g id="Group_135106" data-name="Group 135106">
                <g id="Group_135105" data-name="Group 135105">
                  <g id="Group_135104" data-name="Group 135104">
                    <g id="Group_135100" data-name="Group 135100" transform="translate(0.153 0.161)">
                      <g id="Group_135099" data-name="Group 135099">
                        <path id="Path_101108" data-name="Path 101108" d="M421.476,133.885l-8.36-.976a26.876,26.876,0,1,1,5.418-7.96l.009-.012Z" transform="translate(-367.176 -87.226)" fill="#97c2ee"/>
                      </g>
                    </g>
                    <g id="Group_135103" data-name="Group 135103">
                      <g id="Group_135102" data-name="Group 135102">
                        <g id="Group_135101" data-name="Group 135101">
                          <path id="Path_101109" data-name="Path 101109" d="M421.4,133.806s-.076-.2-.207-.592-.328-.968-.581-1.714l-2.223-6.616.145.026-.009.012a.084.084,0,0,1-.118.013.085.085,0,0,1-.024-.1,26.831,26.831,0,0,0,2.172-13.04,26.319,26.319,0,0,0-.668-4.083,30.167,30.167,0,0,0-1.426-4.188,26.648,26.648,0,0,0-50.921,7,27.15,27.15,0,0,0,1.233,12.2,26.26,26.26,0,0,0,6.069,9.827,26.748,26.748,0,0,0,18.341,8.088l1.144.015a7.234,7.234,0,0,0,1.125-.036l2.19-.193a37.037,37.037,0,0,0,4.067-.893,26.741,26.741,0,0,0,11.276-6.761.081.081,0,0,1,.066-.023l6.186.772,1.608.205c.363.047.557.078.557.078s-.171-.013-.526-.049l-1.589-.168-6.253-.68.066-.023a26.727,26.727,0,0,1-11.318,6.887,37.1,37.1,0,0,1-4.1.919l-2.211.2a7.384,7.384,0,0,1-1.136.04l-1.157-.01a27.007,27.007,0,0,1-18.578-8.134,26.556,26.556,0,0,1-6.166-9.949,27.471,27.471,0,0,1-1.262-12.369,26.85,26.85,0,0,1,4.754-12.118,12,12,0,0,1,.99-1.3L373.95,95.8l1.145-1.148a11.084,11.084,0,0,1,1.183-1.095l1.239-1.022c.4-.352.874-.61,1.306-.918.446-.289.871-.608,1.33-.869L381.545,90a26.616,26.616,0,0,1,11.808-3.012A27.094,27.094,0,0,1,413.39,95.3a26.827,26.827,0,0,1,5.335,8.11,30.373,30.373,0,0,1,1.425,4.237,26.424,26.424,0,0,1,.655,4.126,26.827,26.827,0,0,1-2.271,13.129l-.142-.086.009-.011a.083.083,0,0,1,.117-.014.092.092,0,0,1,.028.04l2.143,6.706c.234.742.414,1.308.539,1.7S421.4,133.806,421.4,133.806Z" transform="translate(-366.947 -86.985)" fill="#97c2ee"/>
                        </g>
                      </g>
                    </g>
                  </g>
                </g>
              </g>
            </g>
          </g>
          <g id="Group_135112" data-name="Group 135112" transform="translate(35.727 17.917)">
            <g id="Group_135111" data-name="Group 135111">
              <g id="Group_135110" data-name="Group 135110">
                <g id="Group_135109" data-name="Group 135109">
                  <path id="Path_101110" data-name="Path 101110" d="M388.813,123.465l3.211-3.551,6.813,5.468,10.118-11.62,3.31,3.223-13.583,14.942Z" transform="translate(-388.813 -113.761)" fill="#022d59"/>
                </g>
              </g>
            </g>
          </g>
          <g id="Group_135114" data-name="Group 135114" transform="translate(0 9.382)">
            <path id="Path_101111" data-name="Path 101111" d="M337.365,140.848l5.3-.662a.07.07,0,0,1,.056.02,22.931,22.931,0,0,0,9.669,5.8,31.811,31.811,0,0,0,3.487.766l1.877.165a6.172,6.172,0,0,0,.964.031l.982-.013a22.89,22.89,0,0,0,8.141-1.769,22.571,22.571,0,0,0,2.069-.993c-.208-.081-.418-.157-.625-.243a26.6,26.6,0,0,1-8.792-5.958,26.025,26.025,0,0,1-6.043-9.751,26.923,26.923,0,0,1-1.237-12.124,26.313,26.313,0,0,1,4.659-11.878,11.823,11.823,0,0,1,.971-1.273l1.016-1.231.437-.438c-.25-.012-.5-.029-.751-.032a22.857,22.857,0,0,0-21.519,13.865,25.863,25.863,0,0,0-1.223,3.591,22.561,22.561,0,0,0-.572,3.5A23,23,0,0,0,338.1,133.4a.074.074,0,0,1-.02.084l-1.892,5.63-.5,1.47c-.113.332-.178.507-.178.507s.166-.026.478-.067Z" transform="translate(-335.452 -101.088)" fill="#97c2ee"/>
            <g id="Group_135113" data-name="Group 135113">
              <path id="Path_101112" data-name="Path 101112" d="M337.337,140.765s-.155.033-.465.08l-1.385.2-.063.009.02-.062,2.521-7.621.027-.039c-.013-.006,0,.043-.015,0l-.046-.109-.094-.219q-.091-.222-.183-.448c-.124-.3-.236-.616-.351-.935q-.338-.961-.606-2.026a22.692,22.692,0,0,1-.671-4.623,21.893,21.893,0,0,1,1.089-7.944,19.569,19.569,0,0,1,1.072-2.74,22.881,22.881,0,0,1,8.37-9.6,23.115,23.115,0,0,1,13.723-3.65l.381.021-.268.27-.437.438.011-.011a27.032,27.032,0,0,0-6.353,12.661,26.248,26.248,0,0,0,16.324,29.55l.326.124-.309.147a28.413,28.413,0,0,1-3.618,1.574,23.4,23.4,0,0,1-3.64.9,24.294,24.294,0,0,1-6.857.1h-.013c-.771-.156-1.532-.284-2.268-.448a19.391,19.391,0,0,1-2.115-.62,23.351,23.351,0,0,1-3.668-1.652,22.891,22.891,0,0,1-5.1-3.887c-.01-.064-.151,0-.251,0l-.313.037-.6.071-1.083.127-1.7.195-1.043.113c-.235.023-.357.027-.357.027s.118-.027.352-.062l1.039-.147,1.693-.228,1.081-.143.6-.078.313-.041.16-.021a.374.374,0,0,1,.1-.007.135.135,0,0,1,.07.037l.03.029a23.029,23.029,0,0,0,13.1,6.462l-.013,0a28.872,28.872,0,0,0,3.3.182,22.492,22.492,0,0,0,3.492-.3,23.261,23.261,0,0,0,3.592-.9,28.305,28.305,0,0,0,3.567-1.565l.017.27a26.528,26.528,0,0,1-16.559-29.894A27.329,27.329,0,0,1,359.7,101.54l.009-.01,0,0,.437-.438.112.29A22.759,22.759,0,0,0,338.444,114.4a19.29,19.29,0,0,0-1.069,2.7,21.68,21.68,0,0,0-1.114,7.855,22.588,22.588,0,0,0,.637,4.583c.174.7.368,1.376.587,2.013.112.317.221.629.341.93l.179.446.091.219.046.108c.022.019.044.165-.035.21l.027-.039c-1.182,3.464-2.062,6.061-2.615,7.592l-.043-.052,1.392-.164C337.179,140.772,337.337,140.765,337.337,140.765Z" transform="translate(-335.424 -101.006)" fill="#97c2ee"/>
            </g>
          </g>
        </g>
      </g>
      <g id="Chart_" data-name="Chart
" transform="translate(582.442 4058.47)" opacity="0.417">
        <g id="Group_135123" data-name="Group 135123">
          <rect id="Rectangle_21495" data-name="Rectangle 21495" width="14.281" height="51.469" rx="4.45" transform="translate(47.799 17.726)" fill="#001621"/>
          <g id="Group_135122" data-name="Group 135122">
            <g id="Group_135116" data-name="Group 135116" transform="translate(3.057 48.015)">
              <rect id="Rectangle_21496" data-name="Rectangle 21496" width="14.281" height="23.365" rx="4.603" fill="#001621"/>
            </g>
            <g id="Group_135117" data-name="Group 135117" transform="translate(25.126 35.31)">
              <path id="Rectangle_21497" data-name="Rectangle 21497" d="M4.919,0H9.363a4.918,4.918,0,0,1,4.918,4.918V31.152a4.918,4.918,0,0,1-4.918,4.918H4.919A4.919,4.919,0,0,1,0,31.152V4.919A4.919,4.919,0,0,1,4.919,0Z" fill="#001621"/>
            </g>
            <g id="Group_135119" data-name="Group 135119" transform="translate(0 0.718)">
              <g id="Group_135118" data-name="Group 135118">
                <path id="Path_101113" data-name="Path 101113" d="M642.807,64.129a2.531,2.531,0,0,1-.343.454l-1.06,1.251-4.03,4.619L623.368,86.242l-.156.176-.2-.13-8.763-5.724.373-.054-.335.394-18.532,21.74-.123.143-.149-.111L588.517,97.5l-1.878-1.43a4.4,4.4,0,0,1-.632-.53,4.5,4.5,0,0,1,.7.437l1.94,1.344,7.075,5.028-.272.033,18.406-21.848.334-.394.163-.192.21.138,8.751,5.742-.353.046,14.156-15.653,4.149-4.513,1.128-1.19A2.592,2.592,0,0,1,642.807,64.129Z" transform="translate(-586.007 -64.128)" fill="#001621"/>
              </g>
            </g>
            <g id="Group_135121" data-name="Group 135121" transform="translate(45.585)">
              <g id="Group_135120" data-name="Group 135120">
                <path id="Path_101114" data-name="Path 101114" d="M665.8,74.64a19.03,19.03,0,0,1-.2-3.284c-.052-2.032-.084-4.844-.086-7.965l.331.28-.284.048c-3.144.519-6,.957-8.064,1.246a19.958,19.958,0,0,1-3.367.352,19.912,19.912,0,0,1,3.3-.749c2.052-.391,4.892-.892,8.037-1.411l.284-.047.331-.055v.335c0,3.121-.035,5.934-.086,7.965A19.216,19.216,0,0,1,665.8,74.64Z" transform="translate(-654.128 -63.055)" fill="#001621"/>
              </g>
            </g>
          </g>
        </g>
      </g>
    </g>
  </g>
</svg>
