<svg xmlns="http://www.w3.org/2000/svg" xmlns:xlink="http://www.w3.org/1999/xlink" width="630" height="434" viewBox="0 0 630 434">
  <defs>
    <clipPath id="clip-path">
      <rect id="Rectangle_21588" data-name="Rectangle 21588" width="630" height="434" transform="translate(628.43 88.98)" fill="#fff" stroke="#707070" stroke-width="1"/>
    </clipPath>
  </defs>
  <g id="Mask_Group_121203" data-name="Mask Group 121203" transform="translate(-628.43 -88.98)" clip-path="url(#clip-path)">
    <g id="Collab-pana" transform="translate(628 79.975)" style="mix-blend-mode: normal;isolation: isolate">
      <g id="freepik--background-complete--inject-27" transform="translate(0 0)">
        <path id="Path_93423" data-name="Path 93423" d="M366.279,50.32a4.731,4.731,0,0,0,2.826-4.43,4.43,4.43,0,1,0-8.86,0,4.739,4.739,0,0,0,2.835,4.43c-6.831,1.028-6.521,8.452-6.521,8.452l16.151.08S373.056,51.338,366.279,50.32Z" transform="translate(-62.858 38.328)" fill="#ebebeb"/>
        <path id="Path_93670" data-name="Path 93670" d="M366.279,50.32a4.731,4.731,0,0,0,2.826-4.43,4.43,4.43,0,1,0-8.86,0,4.739,4.739,0,0,0,2.835,4.43c-6.831,1.028-6.521,8.452-6.521,8.452l16.151.08S373.056,51.338,366.279,50.32Z" transform="translate(17.082 17.967)" fill="#ebebeb"/>
        <path id="Path_93424" data-name="Path 93424" d="M650.221,152.873a10.446,10.446,0,0,0,6.2-9.675c0-5.777-4.341-10.472-9.745-10.5s-9.826,4.633-9.843,10.41a10.438,10.438,0,0,0,6.2,9.746c-15.061,2.277-14.406,18.676-14.406,18.676l35.687.168S665.22,155.115,650.221,152.873Z" transform="translate(-77.207 27.923)" fill="#ebebeb"/>
        <path id="Path_93425" data-name="Path 93425" d="M643.812,190.347a39.284,39.284,0,1,1,39.275-39.281A39.285,39.285,0,0,1,643.812,190.347Zm0-77.442a38.158,38.158,0,1,0,38.159,38.158,38.158,38.158,0,0,0-38.159-38.158Z" transform="translate(-74.458 30.309)" fill="#ebebeb"/>
        <path id="Path_93426" data-name="Path 93426" d="M167.35,96.166a9.533,9.533,0,0,0,5.688-8.86c0-5.316-3.969-9.56-8.913-9.586s-8.957,4.226-8.984,9.5a9.524,9.524,0,0,0,5.706,8.913C147.07,98.2,147.7,113.167,147.7,113.167l32.559.151S181,98.23,167.35,96.166Z" transform="translate(-49.046 34.193)" fill="#ebebeb"/>
        <path id="Path_93427" data-name="Path 93427" d="M161.459,130.4a35.89,35.89,0,1,1,35.881-35.887A35.89,35.89,0,0,1,161.459,130.4Zm0-70.656a34.774,34.774,0,1,0,34.765,34.768A34.774,34.774,0,0,0,161.459,59.745Z" transform="translate(-51.795 36.371)" fill="#ebebeb"/>
        <path id="Path_93428" data-name="Path 93428" d="M524.563,86.939a7.469,7.469,0,0,0,4.43-6.9,7.017,7.017,0,1,0-14.007-.071,7.46,7.46,0,0,0,4.43,6.973c-10.773,1.63-10.286,13.343-10.286,13.343l25.578.133S535.248,88.56,524.563,86.939Z" transform="translate(-72.466 34.782)" fill="#ebebeb"/>
        <path id="Path_93667" data-name="Path 93667" d="M524.563,86.939a7.469,7.469,0,0,0,4.43-6.9,7.017,7.017,0,1,0-14.007-.071,7.46,7.46,0,0,0,4.43,6.973c-10.773,1.63-10.286,13.343-10.286,13.343l25.578.133S535.248,88.56,524.563,86.939Z" transform="translate(-316.237 -0.864)" fill="#ebebeb"/>
        <path id="Path_93429" data-name="Path 93429" d="M519.939,113.738a28.209,28.209,0,1,1,28.209-28.174A28.209,28.209,0,0,1,519.939,113.738Zm0-55.293a27.1,27.1,0,1,1,0,.035Z" transform="translate(-70.078 36.519)" fill="#ebebeb"/>
        <path id="Path_93668" data-name="Path 93668" d="M28.209,56.418A28.209,28.209,0,1,1,56.418,28.245,28.209,28.209,0,0,1,28.209,56.418Zm0-55.293a27.1,27.1,0,1,1,0,.035Z" transform="translate(244.381 85.069) rotate(135)" fill="#ebebeb"/>
        <path id="Path_93430" data-name="Path 93430" d="M409.6,155.323a5.316,5.316,0,0,0,3.145-4.882,4.953,4.953,0,1,0-9.887-.044,5.316,5.316,0,0,0,3.145,4.926c-7.6,1.143-7.256,9.418-7.256,9.418l17.985.08S417.178,156.457,409.6,155.323Z" transform="translate(-65.563 26.501)" fill="#ebebeb"/>
        <path id="Path_93664" data-name="Path 93664" d="M409.6,155.323a5.316,5.316,0,0,0,3.145-4.882,4.953,4.953,0,1,0-9.887-.044,5.316,5.316,0,0,0,3.145,4.926c-7.6,1.143-7.256,9.418-7.256,9.418l17.985.08S417.178,156.457,409.6,155.323Z" transform="translate(-116.38 -126.348)" fill="#ebebeb"/>
        <path id="Path_93431" data-name="Path 93431" d="M406.37,174.349a19.97,19.97,0,1,1,19.97-19.925,19.97,19.97,0,0,1-19.97,19.925Zm0-39.036a19.075,19.075,0,1,0,19.075,19.11A19.075,19.075,0,0,0,406.37,135.314Z" transform="translate(-64.098 27.728)" fill="#ebebeb"/>
        <path id="Path_93665" data-name="Path 93665" d="M19.97,39.939a19.97,19.97,0,1,1,19.97-19.925A19.97,19.97,0,0,1,19.97,39.939ZM19.97.9a19.075,19.075,0,1,0,19.075,19.11A19.075,19.075,0,0,0,19.97.9Z" transform="translate(318.83 28.241) rotate(135)" fill="#ebebeb"/>
        <path id="Path_93432" data-name="Path 93432" d="M63.6,253.453a4.8,4.8,0,0,0,2.862-4.43,4.51,4.51,0,1,0-9,0,4.793,4.793,0,0,0,2.871,4.483c-6.928,1.045-6.618,8.567-6.618,8.567l16.381.08S70.463,254.49,63.6,253.453Z" transform="translate(-43.601 15.204)" fill="#ebebeb"/>
        <path id="Path_93433" data-name="Path 93433" d="M60.639,270.9a18.331,18.331,0,1,1,18.322-18.325A18.331,18.331,0,0,1,60.639,270.9Zm0-35.536a17.214,17.214,0,1,0,17.205,17.212A17.214,17.214,0,0,0,60.639,235.365Z" transform="translate(-42.3 16.344)" fill="#ebebeb"/>
        <path id="Path_93434" data-name="Path 93434" d="M76.83,226.89c-.142-.089,13.972-21.609,31.514-48.055s31.895-47.842,32.01-47.736-13.98,21.609-31.478,48.063S76.98,226.979,76.83,226.89Z" transform="translate(-46.238 28.105)" fill="#ebebeb"/>
        <path id="Path_93435" data-name="Path 93435" d="M429.84,146.824c-.071-.106,13.635-8.86,30.593-19.562s30.778-19.279,30.849-19.172-13.626,8.86-30.6,19.562S429.911,146.931,429.84,146.824Z" transform="translate(-66.063 30.729)" fill="#ebebeb"/>
        <path id="Path_93666" data-name="Path 93666" d="M0,38.735c-.071-.106,13.635-8.86,30.592-19.562S61.371-.105,61.442,0s-13.626,8.86-30.6,19.562S.071,38.842,0,38.735Z" transform="translate(275.759 62.238) rotate(178)" fill="#ebebeb"/>
        <path id="Path_93436" data-name="Path 93436" d="M366.059,153.3c0,.124-37.211-6.2-82.97-14.175s-82.926-14.45-82.908-14.574,37.166,6.2,82.988,14.122S366.086,153.14,366.059,153.3Z" transform="translate(-49.972 28.852)" fill="#ebebeb"/>
        <path id="Path_93437" data-name="Path 93437" d="M603.545,132.829c-.071.106-11.518-6.724-25.622-15.265S552.478,101.988,552.54,101.9s11.518,6.724,25.622,15.265S603.607,132.723,603.545,132.829Z" transform="translate(-74.1 31.435)" fill="#ebebeb"/>
        <path id="Path_93438" data-name="Path 93438" d="M119.319,105.569c0,.124-10.632.354-23.85.514s-23.859.186-23.859.053,10.632-.354,23.85-.514S119.319,105.436,119.319,105.569Z" transform="translate(-45.642 31.027)" fill="#ebebeb"/>
        <path id="Path_93439" data-name="Path 93439" d="M57.195,104.737a3.012,3.012,0,0,0,1.772-2.791,2.835,2.835,0,1,0-5.652,0,3.012,3.012,0,0,0,1.772,2.817c-4.35.656-4.146,5.387-4.146,5.387l10.286.044S61.474,105.384,57.195,104.737Z" transform="translate(-43.285 31.779)" fill="#ebebeb"/>
        <path id="Path_93440" data-name="Path 93440" d="M55.252,115.893a11.721,11.721,0,1,1,11.73-11.721,11.721,11.721,0,0,1-11.73,11.721Zm0-22.326A10.632,10.632,0,1,0,65.884,104.2,10.632,10.632,0,0,0,55.252,93.566Z" transform="translate(-42.441 32.513)" fill="#ebebeb"/>
        <path id="Path_93441" data-name="Path 93441" d="M363.279,67.791a18.41,18.41,0,1,1,18.4-18.407A18.41,18.41,0,0,1,363.279,67.791Zm0-35.058a16.632,16.632,0,1,1,0,.035Z" transform="translate(-61.552 39.524)" fill="#ebebeb"/>
        <path id="Path_93669" data-name="Path 93669" d="M18.419,36.821a18.41,18.41,0,1,1,18.4-18.407A18.41,18.41,0,0,1,18.419,36.821Zm0-35.058a16.646,16.646,0,1,1,0,.035Z" transform="translate(407.529 67.803) rotate(135)" fill="#ebebeb"/>
        <path id="Path_93442" data-name="Path 93442" d="M394.361,131.143a4.664,4.664,0,0,1-.239-.594l-.594-1.772c-.532-1.559-1.267-3.73-2.179-6.388-1.852-5.387-4.51-12.8-7.69-20.882s-6.3-15.265-8.62-20.492l-2.773-6.149-.744-1.674a2.806,2.806,0,0,1-.23-.6,3.424,3.424,0,0,1,.31.558l.833,1.639c.709,1.426,1.7,3.544,2.9,6.1,2.4,5.174,5.564,12.4,8.753,20.492s5.8,15.522,7.575,20.944c.886,2.711,1.586,4.908,2.038,6.432.213.735.39,1.32.514,1.772A2.934,2.934,0,0,1,394.361,131.143Z" transform="translate(-63.63 34.778)" fill="#ebebeb"/>
        <path id="Path_93671" data-name="Path 93671" d="M23.071,58.553a4.674,4.674,0,0,1-.239-.594l-.594-1.772c-.532-1.559-1.267-3.73-2.179-6.388-1.852-5.387-4.51-12.8-7.69-20.882s-6.3-15.265-8.62-20.492L.975,2.277.23.6A2.8,2.8,0,0,1,0,0,3.43,3.43,0,0,1,.31.558L1.143,2.2c.709,1.426,1.7,3.544,2.9,6.1,2.4,5.174,5.564,12.4,8.753,20.492s5.8,15.522,7.575,20.944c.886,2.711,1.586,4.908,2.038,6.432.213.735.39,1.32.514,1.772a2.94,2.94,0,0,1,.151.62Z" transform="translate(369.826 57.504) rotate(135)" fill="#ebebeb"/>
        <path id="Path_93444" data-name="Path 93444" d="M106.45,398.3v54.77h25.737V434.163h-7.176v-3.774l7.176.124v-6.175h3.26l-.071-3.19-3.783-.089V398.21Z" transform="translate(-49.616 -2.355)" fill="#e0e0e0"/>
        <path id="Path_93450" data-name="Path 93450" d="M118.64,336.6v54.77h25.737V372.463h-7.185v-3.774l7.185.124v-6.175h3.251l-.062-3.189-3.792-.1V336.51Z" transform="translate(-51.006 4.681)" fill="#e0e0e0"/>
        <path id="Path_93455" data-name="Path 93455" d="M683.239,336.809c5.688-2.942,12.4-3.322,18.7-2.277,3.393.558,6.928,1.577,9.232,4.128s2.746,7.026.1,9.223c-1.577,1.3-3.774,1.5-5.821,1.471-4.944-.053-10.428-.886-14.379,2.047-2.259,1.7-3.757,4.518-6.45,5.36s-5.608-.744-7.008-3.119a10.9,10.9,0,0,1-.8-8.036A12.261,12.261,0,0,1,683.239,336.809Z" transform="translate(-82.654 4.967)" fill="#ebebeb"/>
        <path id="Path_93456" data-name="Path 93456" d="M668.983,302.133c3.473,4.97,10.233,3.323,13.37.292s4.43-7.433,5.67-11.624c2.756-9.577,5.528-19.615,3.482-29.369a16.385,16.385,0,0,0-3.748-7.974,8.455,8.455,0,0,0-8.08-2.658c-3.411.886-5.528,4.235-7.088,7.416a70.037,70.037,0,0,0-6.919,30.052c0,4.837.549,9.914,3.287,13.91" transform="translate(-81.432 14.482)" fill="#ebebeb"/>
        <path id="Path_93457" data-name="Path 93457" d="M653.468,311.313c3.774-4.474,4.492-11.012,2.808-16.63s-5.476-10.392-9.852-14.291a53.01,53.01,0,0,0-17.649-10.41,18.685,18.685,0,0,0-7.974-1.355,8.345,8.345,0,0,0-6.663,4.031c-1.852,3.544-.071,7.841,1.852,11.34a134.628,134.628,0,0,0,11.589,17.648c3.473,4.483,7.451,8.86,12.749,10.924s10.791,1.772,13.591-1.887" transform="translate(-75.466 12.425)" fill="#ebebeb"/>
        <path id="Path_93458" data-name="Path 93458" d="M669.13,387.487a11.627,11.627,0,0,0,.319-2.259q.239-2.472.594-6.158a88.762,88.762,0,0,1,1.391-9.037,70.071,70.071,0,0,1,3.278-10.631,39.545,39.545,0,0,1,5.449-9.657,20.441,20.441,0,0,1,6.883-5.724,19.317,19.317,0,0,1,5.8-1.772,11.413,11.413,0,0,0,2.25-.328,10.5,10.5,0,0,0-2.295,0,17.668,17.668,0,0,0-6.043,1.568,20.3,20.3,0,0,0-7.265,5.777,38.73,38.73,0,0,0-5.643,9.843,64.446,64.446,0,0,0-3.261,10.844,76.556,76.556,0,0,0-1.2,9.152c-.195,2.614-.266,4.731-.3,6.2A10.718,10.718,0,0,0,669.13,387.487Z" transform="translate(-81.817 4.071)" fill="#e0e0e0"/>
        <path id="Path_93459" data-name="Path 93459" d="M669.557,374.892a4.316,4.316,0,0,0,.061-1.055v-2.994c0-2.6,0-6.361.133-11,.23-9.294,1.027-19.287,2.578-33.383,1.462-13.289,3.419-28.687,5.493-38.717.452-2.277.886-4.332,1.32-6.131s.744-3.358,1.072-4.607.514-2.153.7-2.915a4.959,4.959,0,0,0,.186-1.036,3.9,3.9,0,0,0-.363.983c-.23.753-.523,1.7-.886,2.871s-.788,2.791-1.24,4.58-.957,3.845-1.445,6.122a337.957,337.957,0,0,0-5.776,35.9c-1.55,14.122-2.242,26.987-2.3,36.324-.062,4.652,0,8.426.16,11.021.071,1.223.133,2.206.186,2.995A4.52,4.52,0,0,0,669.557,374.892Z" transform="translate(-81.818 11.918)" fill="#e0e0e0"/>
        <path id="Path_93460" data-name="Path 93460" d="M665.421,351.056a20.77,20.77,0,0,0,0-3.136c-.115-2.011-.4-4.917-.966-8.47a110.069,110.069,0,0,0-2.755-12.4,100.647,100.647,0,0,0-5.165-14.61,77.711,77.711,0,0,0-15.168-23.62,38.171,38.171,0,0,0-3.544-3.322c-.54-.461-1.028-.886-1.524-1.285l-1.382-.957a20.563,20.563,0,0,0-2.658-1.683c-.151.2,3.729,2.49,8.629,7.7a82.239,82.239,0,0,1,14.8,23.531,115.87,115.87,0,0,1,5.192,14.486,125.617,125.617,0,0,1,2.932,12.226c.682,3.517,1.019,6.406,1.249,8.4A20.969,20.969,0,0,0,665.421,351.056Z" transform="translate(-77.621 10.946)" fill="#e0e0e0"/>
        <path id="Path_93461" data-name="Path 93461" d="M642.63,409.4l2.48,34.057H688.86l2.489-34.057Z" transform="translate(-78.804 -3.631)" fill="#e0e0e0"/>
        <rect id="Rectangle_20284" data-name="Rectangle 20284" width="58.172" height="13.422" transform="translate(559.6 392.347)" fill="#e0e0e0"/>
        <path id="Path_93462" data-name="Path 93462" d="M637.86,446.37v3.721h57.207V446.37Z" transform="translate(-78.26 -7.847)" fill="#ebebeb"/>
        <path id="Path_93463" data-name="Path 93463" d="M643.625,457.117l-2.685-6.547h52.4l-3.127,6.547Z" transform="translate(-78.612 -8.326)" fill="#e0e0e0"/>
        <path id="Path_93464" data-name="Path 93464" d="M690.624,421.388a1.235,1.235,0,0,1-.2.319c-.168.23-.39.514-.656.886l-2.543,3.225-.116.142-.106-.15c-1.6-2.215-3.748-5.174-6.264-8.665h.408l-6.2,8.736-.2.266-.221-.257-7.309-8.691h.425l-.408.505-6.529,8.2-.222.275-.2-.283c-2.215-3.145-4.288-6.078-6.2-8.727h.363l-7.575,8.656-.133.151-.142-.151c-1-1.674-1.772-3.021-2.375-4l-.612-1.063a1.78,1.78,0,0,1-.186-.381,2.875,2.875,0,0,1,.257.345l.674,1.019,2.5,3.925h-.239l7.477-8.762.186-.222.169.239,6.2,8.682h-.417l6.521-8.2.408-.505.2-.266.213.257,7.291,8.718h-.407l6.2-8.691.177-.248.186.248c2.463,3.544,4.554,6.521,6.122,8.753h-.222l2.658-3.18.718-.824A1.677,1.677,0,0,1,690.624,421.388Z" transform="translate(-78.894 -4.456)" fill="#f5f5f5"/>
        <path id="Path_93465" data-name="Path 93465" d="M692.007,409.115c0,.15-10.968.266-24.488.266s-24.479-.115-24.479-.266,10.959-.275,24.479-.275S692.007,408.982,692.007,409.115Z" transform="translate(-78.851 -3.567)" fill="#f5f5f5"/>
        <path id="Path_93466" data-name="Path 93466" d="M693.958,450.965c0,.151-11.916.275-26.579.275s-26.579-.124-26.579-.275,11.916-.275,26.579-.275S693.958,450.8,693.958,450.965Z" transform="translate(-78.596 -8.34)" fill="#f5f5f5"/>
      </g>
      <g id="freepik--character-2--inject-27" transform="translate(139.57 135.397)">
        <path id="Path_93467" data-name="Path 93467" d="M425.363,361.047s9.365-5.83,12.891-5.44l20.262,4.722s1.772,1.9-1.772,3.641-7.973-.762-7.973-.762l-4.926.691,3.4,2.844,13.44,4.137s9.746,2.747,8.558,4.182-4.111,1.612-8.31.425l-9.533-2.658s-1.665-.363,1.019,1.5,14.477,4.758,16.036,5.528,5.794,1.417,5.316,3.836-5.777.47-5.777.47l-17.453-4.049s6.893,2.977,8.062,3.544,4.988,1.6,7.026,2.658,3.012,2.365,2.782,3.438a2.038,2.038,0,0,1-2.206,1.719l-14.769-5.077s-6.7-2.658-7.15-2.569,2.614,2.95,2.614,2.95l4.713,2.419s6.8,2.277,6.822,4.164-1.4,1.816-1.4,1.816l-12.4-4.279-13.848-7.017-10.374-6.361s1.869-7.318,1.515-7.637S425.363,361.047,425.363,361.047Z" transform="translate(-212.248 -132.892)" fill="#ffbe9d"/>
        <path id="Path_93468" data-name="Path 93468" d="M431.52,375.771a23.649,23.649,0,0,1,3.34-1.223c2.038-.735,4.908-2.046,6.4-4.943a5.989,5.989,0,0,0,.673-3.863l-.088-.443.487-.062c2.153-.284,4.155-.753,5.511-.93a6.087,6.087,0,0,1,2.224-.124,11.42,11.42,0,0,1-2.117.629c-1.373.328-3.181.886-5.59,1.267l.4-.505a6.59,6.59,0,0,1-.7,4.43,9.039,9.039,0,0,1-3.367,3.544,14.317,14.317,0,0,1-3.624,1.568A9.951,9.951,0,0,1,431.52,375.771Z" transform="translate(-213.515 -133.865)" fill="#eb996e"/>
        <path id="Path_93469" data-name="Path 93469" d="M216.389,454.709,214.75,393.56l107.237,2.073,14.592,56.773-120.19,2.3" transform="translate(-188.795 -137.222)" fill="#263238"/>
        <path id="Path_93470" data-name="Path 93470" d="M270.153,200.69l-8.062,7.637s-30.123,7.486-35.439,12.758c-1.685,1.671-3.1,10.974-4.269,23.344-2.434,25.825-3.607,64.935-3.395,68.8.31,5.652,0,54.425,0,54.425s-1.772,18.605,0,19.668,35.58,1.506,52.44,1.861,52.608,1.338,54.717-.416S320.91,350.6,320.91,350.6l-2.924-16.789.886-29.361,6.2-40.391,4.581-41.826s-12.288-7.371-18.26-8.78S270.153,200.69,270.153,200.69Z" transform="translate(-189.189 -115.228)" fill="#4591c5"/>
        <path id="Path_93471" data-name="Path 93471" d="M371.413,320.725l-16.381-68.786a77,77,0,0,0-5.635-15.823c-2.543-5.218-5.688-10.906-7.415-11.11-10.162-1.17-15.451,29.857-15.451,29.857v39.328l9.586,42.6a18.844,18.844,0,0,0,12.687,13.83l65.021,20.7,7.54-32.276Z" transform="translate(-201.542 -117.997)" fill="#4591c5"/>
        <path id="Path_93472" data-name="Path 93472" d="M239.175,216.77s-24.71,3.491-32.692,22.344c0,0-24.692,96.109-20.563,108.77s36.05,61.5,36.05,61.5l27.988-14.769s-27.35-56.764-27.35-63.028S239.175,216.77,239.175,216.77Z" transform="translate(-185.455 -117.061)" fill="#4591c5"/>
        <path id="Path_93473" data-name="Path 93473" d="M254.756,401.345a1.668,1.668,0,0,1-.159-.31c-.106-.221-.239-.531-.416-.886-.363-.842-.886-2.029-1.559-3.544l-5.652-13.086c-4.731-11.083-11.261-26.357-18.472-43.226-.337-.78-.664-1.55-.966-2.268v-.053h0a23.234,23.234,0,0,1,.523-3.322c.231-1.081.47-2.153.727-3.2.5-2.109,1.028-4.173,1.55-6.2,1.054-4.049,2.082-7.974,3.048-11.668,1.967-7.415,3.712-14.078,5.13-19.677s2.5-10.135,3.252-13.29c.354-1.55.638-2.755.833-3.606.1-.4.177-.7.23-.939a1.244,1.244,0,0,1,.1-.31,2.959,2.959,0,0,1-.053.319c-.044.239-.106.549-.186.948-.177.886-.425,2.073-.753,3.633-.691,3.145-1.719,7.69-3.11,13.289s-3.092,12.279-5.032,19.7c-.957,3.721-1.976,7.619-3.021,11.668-.514,2.029-1.046,4.093-1.542,6.2a47.806,47.806,0,0,0-1.231,6.406v-.089c.31.717.638,1.5.966,2.268L247.314,383.4l5.44,13.068c.629,1.541,1.125,2.738,1.48,3.544q.231.585.372.93C254.72,401.23,254.756,401.345,254.756,401.345Z" transform="translate(-190.253 -123.788)" fill="#263238"/>
        <path id="Path_93474" data-name="Path 93474" d="M337.86,264a2.343,2.343,0,0,1,0,.567q0,.611-.08,1.595c-.1,1.444-.221,3.429-.381,5.865-.354,4.953-.78,11.792-1.568,19.332s-1.905,14.317-2.755,19.208c-.426,2.445-.789,4.43-1.055,5.785-.124.638-.23,1.161-.319,1.559a3.266,3.266,0,0,1-.133.549,2.383,2.383,0,0,1,.044-.558c.062-.417.133-.939.23-1.586.222-1.426.532-3.393.886-5.8.762-4.9,1.825-11.677,2.614-19.2s1.267-14.37,1.7-19.314c.221-2.428.4-4.43.532-5.856.062-.647.124-1.178.168-1.586A2.652,2.652,0,0,1,337.86,264Z" transform="translate(-202.117 -122.447)" fill="#263238"/>
        <path id="Path_93475" data-name="Path 93475" d="M230.83,430.619l2.773,5.1s13.741-5.236,20.28-14.06l-1.772-1.772Z" transform="translate(-190.629 -140.225)" fill="#ffbe9d"/>
        <path id="Path_93476" data-name="Path 93476" d="M257.415,416.25a9.906,9.906,0,0,1-.788,1.3c-.266.416-.594.886-1.019,1.471s-.886,1.2-1.453,1.869-1.178,1.418-1.9,2.153-1.5,1.524-2.339,2.321a49.2,49.2,0,0,1-5.945,4.66,56,56,0,0,1-6.574,3.712,55.081,55.081,0,0,1-5.715,2.3c-.824.3-1.586.514-2.259.718s-1.24.354-1.719.46a9.652,9.652,0,0,1-1.488.319,8.843,8.843,0,0,1,1.435-.487c.47-.142,1.045-.31,1.7-.54s1.409-.461,2.224-.78c1.639-.585,3.544-1.391,5.635-2.383a61.062,61.062,0,0,0,6.512-3.7,53.679,53.679,0,0,0,5.91-4.589c.842-.78,1.648-1.524,2.348-2.277s1.347-1.444,1.923-2.1,1.054-1.285,1.488-1.816.8-1.019,1.081-1.418A9.033,9.033,0,0,1,257.415,416.25Z" transform="translate(-190.103 -139.809)" fill="#455a64"/>
        <path id="Path_93477" data-name="Path 93477" d="M244.039,252.419c-.106,0,.266-1.63.186-4.244a17.121,17.121,0,0,0-.186-2.126,20.01,20.01,0,0,0-.452-2.41A23.229,23.229,0,0,0,238.4,233.8a22.736,22.736,0,0,0-1.772-1.728,16.445,16.445,0,0,0-1.657-1.356c-2.109-1.542-3.65-2.144-3.606-2.233a4.421,4.421,0,0,1,1.072.416,7.358,7.358,0,0,1,1.2.611,14.948,14.948,0,0,1,1.524.939,16.276,16.276,0,0,1,1.719,1.338,20.264,20.264,0,0,1,1.772,1.728,23.677,23.677,0,0,1,3.287,4.678,23.928,23.928,0,0,1,2,5.316,20.635,20.635,0,0,1,.416,2.454,17.449,17.449,0,0,1,.133,2.171,13.827,13.827,0,0,1-.08,1.772,9.112,9.112,0,0,1-.177,1.338A6.952,6.952,0,0,1,244.039,252.419Z" transform="translate(-190.691 -118.397)" fill="#263238"/>
        <path id="Path_93478" data-name="Path 93478" d="M236.8,284.253c0,.124-8.186-1.772-18.206-4.155s-18.136-4.43-18.109-4.589,8.186,1.727,18.215,4.146S236.822,284.129,236.8,284.253Z" transform="translate(-187.168 -123.759)" fill="#fff"/>
        <path id="Path_93479" data-name="Path 93479" d="M326.135,279.635c0,.133-18.357.549-40.993.93s-41,.6-41.011.47,18.357-.54,41-.93S326.135,279.511,326.135,279.635Z" transform="translate(-192.146 -124.226)" fill="#fff"/>
        <path id="Path_93480" data-name="Path 93480" d="M363.021,284.839a4.183,4.183,0,0,1-1,.213c-.638.115-1.577.248-2.737.408-2.312.319-5.52.7-9.072,1.054s-6.778.594-9.108.735c-1.17.071-2.117.115-2.773.133a3.716,3.716,0,0,1-1.019,0,5.588,5.588,0,0,1,1.01-.159l2.755-.284,9.09-.886,9.081-.886L362,284.9A4.08,4.08,0,0,1,363.021,284.839Z" transform="translate(-202.772 -124.823)" fill="#fff"/>
        <path id="Path_93481" data-name="Path 93481" d="M223.743,341.16c0,.124-7.894-.886-17.578-2.295s-17.533-2.658-17.516-2.746,7.885.886,17.578,2.295S223.761,341.036,223.743,341.16Z" transform="translate(-185.819 -130.671)" fill="#fff"/>
        <path id="Path_93482" data-name="Path 93482" d="M318.272,349.9c0,.124-19.013,1.541-42.526,3.163s-42.526,2.826-42.526,2.658,19.013-1.542,42.526-3.154S318.264,349.775,318.272,349.9Z" transform="translate(-190.902 -132.242)" fill="#fff"/>
        <path id="Path_93483" data-name="Path 93483" d="M371.622,334.3a8.911,8.911,0,0,1-1.081.966l-3.048,2.516c-2.569,2.117-6.113,5.059-9.967,8.364s-7.309,6.37-9.79,8.594l-2.95,2.658a7.644,7.644,0,0,1-1.116.886,9.716,9.716,0,0,1,1-1.054c.656-.655,1.63-1.595,2.844-2.738,2.428-2.277,5.848-5.378,9.746-8.691s7.442-6.2,10.065-8.275c1.32-1.028,2.392-1.852,3.136-2.4A8.4,8.4,0,0,1,371.622,334.3Z" transform="translate(-203.497 -130.464)" fill="#fff"/>
        <path id="Path_93484" data-name="Path 93484" d="M246.032,404.65a6.993,6.993,0,0,1-1.125.522l-3.11,1.294-10.313,4.226L221.2,415.007l-3.119,1.293a6.684,6.684,0,0,1-1.169.425,6.681,6.681,0,0,1,1.1-.585c.718-.354,1.772-.842,3.066-1.435,2.6-1.187,6.2-2.764,10.233-4.43s7.7-3.1,10.375-4.1c1.338-.505,2.419-.886,3.181-1.161a5.834,5.834,0,0,1,1.17-.363Z" transform="translate(-189.042 -138.487)" fill="#fff"/>
        <path id="Path_93485" data-name="Path 93485" d="M415.892,349.35a6.094,6.094,0,0,1-.168,1.276c-.142.815-.381,1.985-.7,3.429-.629,2.888-1.648,6.84-3.021,11.137s-2.853,8.115-4.014,10.827c-.585,1.364-1.072,2.454-1.426,3.2a6.194,6.194,0,0,1-.6,1.134,8,8,0,0,1,.434-1.2l1.294-3.252c1.081-2.738,2.5-6.556,3.872-10.844s2.436-8.213,3.145-11.075c.337-1.364.62-2.5.842-3.384A7.447,7.447,0,0,1,415.892,349.35Z" transform="translate(-210.6 -132.18)" fill="#fff"/>
        <path id="Path_93486" data-name="Path 93486" d="M271.8,219.55a8.783,8.783,0,0,1-1.418.284l-3.88.665c-3.278.576-7.8,1.453-12.731,2.658s-9.347,2.472-12.527,3.464L237.49,227.8a9.756,9.756,0,0,1-1.4.4,8.4,8.4,0,0,1,1.338-.567c.886-.337,2.135-.789,3.721-1.32,3.154-1.072,7.566-2.41,12.519-3.606s9.48-2.02,12.784-2.516c1.648-.248,2.986-.425,3.907-.523A8.341,8.341,0,0,1,271.8,219.55Z" transform="translate(-191.229 -117.378)" fill="#fff"/>
        <path id="Path_93487" data-name="Path 93487" d="M340.856,122.374c6.574,5.661,2.9,14.539,1.577,23.106s.213,17.976.558,26.641c.186,4.58,1.311,9.311-.177,13.644-1.55,4.536-5.617,7.637-8.78,11.252s-5.528,8.975-3.039,13.068a4.341,4.341,0,0,1-4.128-.567c-1.063,1.9-3.686,2.472-5.785,1.852a15.109,15.109,0,0,1-5.422-3.544c-.248,1.568-2.153,2.419-3.712,2.1a8.222,8.222,0,0,1-3.916-2.587,10.7,10.7,0,0,0-3.756-2.862c-3.322-1.178-7.2,1.347-10.428-.089-4.43-1.958-4-9.613-8.576-11.181-2.153-.744-4.474.275-6.733.523s-4.687-1.772-4.377-4c-3.889,1.621-8.86,2.392-12.855.948a4.581,4.581,0,0,0,1.612-4.385,14.822,14.822,0,0,1-8.549-1.045,8.736,8.736,0,0,0,5.661-4.492,7.469,7.469,0,0,1-6.68-2.383c4.935.053,8.372-5.05,9.409-9.87s.673-9.976,2.658-14.494c2.135-4.917,6.707-8.346,9.48-12.935,3.872-6.4,3.978-14.556,7.974-20.873,2.658-4.137,5.121-7.664,9.09-10.534,5.014-3.632,7.885-5.511,14.078-5.431,5.192.071,14.069,1.515,18.5,4.226,7.867,4.82,16.222,10.2,19.713,18.738" transform="translate(-193.197 -104.227)" fill="#4e3831"/>
        <path id="Path_93488" data-name="Path 93488" d="M286.35,161.662c-.372-6.84-.7-13.732.106-20.537s2.835-13.591,6.8-19.19c.6-.842,5.262-6.361,6.2-6,.691.257-2.711,5.661-2.516,6.379,1.869,6.831.886,14.175-1.453,20.882a92.664,92.664,0,0,1-9.17,18.463" transform="translate(-196.916 -105.561)" fill="#263238"/>
        <path id="Path_93489" data-name="Path 93489" d="M301.408,230.655c-10.215-2.95-29.44-22.946-26.712-33.224l16.417-61.823c3.881-16.754,16.833-28.457,33.5-24.116l1.515.5a30.734,30.734,0,0,1,20.422,36.325c-3.447,14.5-7.433,30.468-9.985,38.017-5.316,15.628-21.768,12.979-21.768,12.979s-1.081,3.668-2.374,8.337c-2.906,10.481-9.028,20.758-11.013,23.035Z" transform="translate(-195.601 -104.952)" fill="#ffbe9d"/>
        <path id="Path_93490" data-name="Path 93490" d="M317.621,209.119A40.168,40.168,0,0,1,299.14,196.45s1.09,13.4,17.205,17.055Z" transform="translate(-198.419 -114.744)" fill="#eb996e"/>
        <path id="Path_93491" data-name="Path 93491" d="M344.294,167.312a2.357,2.357,0,0,1-2.9,1.559,2.25,2.25,0,0,1-1.657-2.764,2.375,2.375,0,0,1,2.9-1.568,2.268,2.268,0,0,1,1.657,2.773Z" transform="translate(-203.04 -111.095)" fill="#263238"/>
        <path id="Path_93492" data-name="Path 93492" d="M348.394,159.256c-.372.2-1.666-1.6-4.075-2.383s-4.572-.142-4.74-.523c-.088-.168.372-.6,1.32-.886a6.379,6.379,0,0,1,3.907.053,6.2,6.2,0,0,1,3.128,2.259C348.492,158.565,348.571,159.167,348.394,159.256Z" transform="translate(-203.029 -110.038)" fill="#263238"/>
        <path id="Path_93493" data-name="Path 93493" d="M319.4,160.112a2.357,2.357,0,0,1-2.9,1.559,2.25,2.25,0,0,1-1.657-2.764,2.374,2.374,0,0,1,2.9-1.568,2.259,2.259,0,0,1,1.657,2.773Z" transform="translate(-200.202 -110.274)" fill="#263238"/>
        <path id="Path_93494" data-name="Path 93494" d="M321.5,151.237c-.372.2-1.665-1.6-4.075-2.383s-4.572-.142-4.74-.523c-.08-.177.363-.611,1.32-.886a6.485,6.485,0,0,1,3.916.062,6.2,6.2,0,0,1,3.127,2.259C321.6,150.564,321.681,151.148,321.5,151.237Z" transform="translate(-199.963 -109.125)" fill="#263238"/>
        <path id="Path_93495" data-name="Path 93495" d="M325.62,173.2c0-.142,1.621.089,4.146.567.638.133,1.258.2,1.5-.186a3.3,3.3,0,0,0,.186-1.958c-.1-1.683-.195-3.438-.3-5.316-.363-7.5-.417-13.582-.115-13.591s.842,6.051,1.2,13.546q.124,2.764.221,5.316a3.8,3.8,0,0,1-.47,2.516,1.63,1.63,0,0,1-1.3.576,4.53,4.53,0,0,1-1.1-.195C327.108,173.824,325.585,173.345,325.62,173.2Z" transform="translate(-201.439 -109.757)" fill="#263238"/>
        <path id="Path_93496" data-name="Path 93496" d="M324.3,140.883c-.532.5-2.658-.886-5.484-1.887s-5.316-1.311-5.431-2.038c0-.345.629-.744,1.772-.886a10.1,10.1,0,0,1,8.31,2.995C324.277,139.909,324.561,140.635,324.3,140.883Z" transform="translate(-200.043 -107.852)" fill="#263238"/>
        <path id="Path_93497" data-name="Path 93497" d="M349.761,152.639c-.673.39-2.472-.789-4.837-1.542s-4.492-.983-4.775-1.7c-.115-.337.363-.789,1.409-1.045a7.974,7.974,0,0,1,4.217.319,7.814,7.814,0,0,1,3.544,2.295C349.92,151.789,350.017,152.453,349.761,152.639Z" transform="translate(-203.093 -109.242)" fill="#263238"/>
        <path id="Path_93498" data-name="Path 93498" d="M288.722,152.139c-.23-.2-9.746-6.68-12.882,4.155s8.39,11.757,8.5,11.447S288.722,152.139,288.722,152.139Z" transform="translate(-195.7 -109.451)" fill="#ffbe9d"/>
        <path id="Path_93499" data-name="Path 93499" d="M282.6,163.114c0-.044-.222.08-.585.133a1.931,1.931,0,0,1-1.418-.381c-1.028-.744-1.462-2.844-.948-4.811a6.4,6.4,0,0,1,1.311-2.551,2.241,2.241,0,0,1,1.834-1.037,1,1,0,0,1,.966.833c.062.346-.071.549,0,.585s.283-.115.328-.594a1.222,1.222,0,0,0-.23-.8,1.506,1.506,0,0,0-.966-.585,2.8,2.8,0,0,0-2.463,1.116,6.687,6.687,0,0,0-1.524,2.826c-.567,2.206,0,4.572,1.4,5.484a2.118,2.118,0,0,0,1.772.213C282.508,163.371,282.632,163.15,282.6,163.114Z" transform="translate(-196.086 -109.892)" fill="#eb996e"/>
        <path id="Path_93500" data-name="Path 93500" d="M345.978,128.039c2.038-.478-1.648-7.646-5.422-10.818-5.723-4.811-15.168-9.409-21.671-9.391-7.823,0-14.858,1.949-20.377,7.531s-9.01,12.891-10.906,20.483a13.407,13.407,0,0,0-.328,7.088c.842,2.826,3.331,5.156,2.277,8.434a4.732,4.732,0,0,0,.195,3.632c1.4,2.658,4.43,1.373,6.069-.31,3.544-3.588,5.263-8.594,6.839-13.413,1.116-3.42,2.251-6.928,2.206-10.525,0-1.958-.4-3.907-.319-5.874a6.8,6.8,0,0,1,2.294-5.209,7.322,7.322,0,0,1,1.125-.638,11.757,11.757,0,0,1,11.845,1c5.511,3.881,15.061,10.038,18.366,8.727,4.766-1.887,6.255-3.544,6.255-3.544Z" transform="translate(-197.025 -104.638)" fill="#4e3831"/>
        <path id="Path_93501" data-name="Path 93501" d="M317.58,175.2c-.16,0-.408.549-.461,1.55a6.293,6.293,0,0,0,1.063,3.739,10.369,10.369,0,0,0,2.658,2.72c.78.558,1.329.815,1.435.691s-.248-.612-.886-1.311a23.951,23.951,0,0,1-2.224-2.746C317.669,177.619,317.952,175.227,317.58,175.2Z" transform="translate(-200.469 -112.321)" fill="#263238"/>
        <path id="Path_93502" data-name="Path 93502" d="M290.2,154.09v.691C290.209,154.781,290.2,154.533,290.2,154.09Z" transform="translate(-197.4 -109.913)" fill="#ff725e"/>
        <path id="Path_93503" data-name="Path 93503" d="M286.933,145.5s2.658-1.559,2.888,3.065c-.053-5.971,1.019-49.082,42.367-37.583,0,0-13.29-7.974-24.807-4.43C307.363,106.527,285.6,109.707,286.933,145.5Z" transform="translate(-197.02 -104.389)" fill="#4592c3"/>
        <path id="Path_93504" data-name="Path 93504" d="M317.469,201.407c.089.168,1.249-.328,2.321-1.418s1.568-2.241,1.4-2.33-.886.833-1.9,1.834S317.363,201.239,317.469,201.407Z" transform="translate(-200.508 -114.881)" fill="#263238"/>
        <path id="Path_93505" data-name="Path 93505" d="M314.937,200.129c.142.133,1.09-.7,2.118-1.861s1.772-2.2,1.595-2.33-1.1.709-2.126,1.861S314.787,200,314.937,200.129Z" transform="translate(-200.218 -114.684)" fill="#263238"/>
        <path id="Path_93506" data-name="Path 93506" d="M313.392,198.455c.186.062.7-.957,1.161-2.277s.673-2.436.487-2.5-.7.957-1.152,2.277S313.206,198.393,313.392,198.455Z" transform="translate(-200.037 -114.428)" fill="#263238"/>
        <path id="Path_93507" data-name="Path 93507" d="M311.006,197.871c.195-.044,0-1.347.275-2.9s.842-2.72.664-2.835-1.081,1-1.355,2.72S310.829,197.942,311.006,197.871Z" transform="translate(-199.716 -114.252)" fill="#263238"/>
        <path id="Path_93508" data-name="Path 93508" d="M307.734,195.933c.2,0,.124-1.3.31-2.826s.558-2.738.372-2.817-.886,1.09-1.072,2.729S307.556,195.969,307.734,195.933Z" transform="translate(-199.349 -114.041)" fill="#263238"/>
        <path id="Path_93509" data-name="Path 93509" d="M318.673,355.59a3.148,3.148,0,0,1-.337.275l-1.01.726c-.886.62-2.179,1.489-3.792,2.543-3.216,2.118-7.734,4.953-12.82,7.912s-9.79,5.466-13.227,7.22c-1.71.886-3.11,1.568-4.084,2.029l-1.125.523c-.266.115-.4.168-.408.151a1.834,1.834,0,0,1,.363-.231l1.09-.6,4.013-2.162c3.393-1.772,8.062-4.377,13.148-7.327s9.613-5.741,12.873-7.788l3.872-2.419,1.054-.647a1.623,1.623,0,0,1,.39-.2Z" transform="translate(-196.45 -132.892)" fill="#263238"/>
        <path id="Path_93510" data-name="Path 93510" d="M375.73,332.93a32.776,32.776,0,0,0-11.03,10.383,7.827,7.827,0,0,1,1.072-1.993,23.735,23.735,0,0,1,3.544-4.182,24.276,24.276,0,0,1,4.385-3.26A7.858,7.858,0,0,1,375.73,332.93Z" transform="translate(-205.895 -130.308)" fill="#263238"/>
      </g>
      <g id="freepik--character-3--inject-27" transform="translate(248.114 235.716)">
        <path id="Path_93511" data-name="Path 93511" d="M367.75,319.938s-31.478,3.73-43.12,13.033a39.859,39.859,0,0,0-5.112,4.979A53.351,53.351,0,0,0,306.857,368.2L302.64,414.5l.337,7.646a22.389,22.389,0,0,0,22.291,21.4l130.077.886s17.081-19.066,12.607-48.639c-1.054-6.955-2.738-30.8-9.329-45.485-3.482-7.761-8.815-17.347-22.893-21.086l-32.86-9.294Z" transform="translate(-302.64 -229.143)" fill="#dde8cc"/>
        <path id="Path_93512" data-name="Path 93512" d="M341.462,359.273a5.082,5.082,0,0,1-.266-1.037c-.142-.665-.363-1.63-.656-2.817a60.807,60.807,0,0,0-3.048-9.037,59.858,59.858,0,0,0-4.483-8.408c-.665-1.037-1.214-1.852-1.613-2.419a5.866,5.866,0,0,1-.567-.886,4.614,4.614,0,0,1,.717.8c.434.531,1.028,1.329,1.728,2.339a50.26,50.26,0,0,1,4.642,8.417,50.85,50.85,0,0,1,2.941,9.117c.257,1.2.425,2.188.514,2.871a4.348,4.348,0,0,1,.089,1.063Z" transform="translate(-305.855 -230.825)" fill="#455a64"/>
        <path id="Path_93513" data-name="Path 93513" d="M348.257,416.175c-.133,0-1.524-10.1-3.11-22.6s-2.773-22.645-2.658-22.654,1.515,10.1,3.11,22.6S348.381,416.175,348.257,416.175Z" transform="translate(-307.183 -234.959)" fill="#455a64"/>
        <path id="Path_93514" data-name="Path 93514" d="M340.786,365.723a10.024,10.024,0,0,1-2.215-.939,40.223,40.223,0,0,1-9.471-6.671,9.4,9.4,0,0,1-1.63-1.772,18.017,18.017,0,0,1,1.843,1.533c1.125.957,2.7,2.242,4.545,3.544a52.728,52.728,0,0,0,4.864,3.075A16.253,16.253,0,0,1,340.786,365.723Z" transform="translate(-305.471 -233.296)" fill="#455a64"/>
        <path id="Path_93515" data-name="Path 93515" d="M437.636,372.27a9.59,9.59,0,0,1,0-1.586,17.484,17.484,0,0,1,.124-1.852c.08-.718.133-1.541.31-2.436a28.611,28.611,0,0,1,.594-2.924c.221-1.054.576-2.144.886-3.3a41.271,41.271,0,0,1,7.663-13.608c.806-.886,1.55-1.772,2.33-2.507a29.562,29.562,0,0,1,2.2-2.02c.673-.62,1.347-1.09,1.923-1.533a15.9,15.9,0,0,1,1.515-1.063,10.683,10.683,0,0,1,1.355-.815,10.29,10.29,0,0,1-1.249.957c-.416.292-.886.656-1.462,1.125s-1.214.948-1.869,1.568-1.409,1.276-2.135,2.046-1.488,1.621-2.277,2.516a43.055,43.055,0,0,0-7.584,13.475c-.363,1.134-.735,2.206-.966,3.243s-.479,2-.647,2.888-.266,1.7-.372,2.419-.168,1.32-.2,1.834A11.65,11.65,0,0,1,437.636,372.27Z" transform="translate(-318.031 -231.277)" fill="#455a64"/>
        <path id="Path_93516" data-name="Path 93516" d="M422.984,430.526a4.8,4.8,0,0,1-.1-1.63,4.917,4.917,0,0,1,2.33-3.81h0a40.208,40.208,0,0,1,13.307-9.276l-.133.186c.177-1.666.363-3.393.5-5.174a152.492,152.492,0,0,0,.266-19.491c-.115-2.49-.292-4.509-.39-5.9-.053-.656-.1-1.187-.133-1.6a2.491,2.491,0,0,1,0-.567,2.342,2.342,0,0,1,.106.558c.062.408.133.939.222,1.595.151,1.391.381,3.4.54,5.9a137.063,137.063,0,0,1-.133,19.553c-.133,1.772-.319,3.544-.5,5.192v.133l-.124.053a41.187,41.187,0,0,0-13.289,9.064h0a4.7,4.7,0,0,0-1.728,1.772,4.834,4.834,0,0,0-.576,1.772A13.49,13.49,0,0,0,422.984,430.526Z" transform="translate(-316.349 -236.366)" fill="#455a64"/>
        <path id="Path_93517" data-name="Path 93517" d="M462.134,430.935c-.08.044-.753-1.232-2.233-3a22.917,22.917,0,0,0-6.946-5.6,22.262,22.262,0,0,0-4.59-1.772,17.424,17.424,0,0,0-3.987-.523c-2.3,0-3.73.266-3.739.177a4.1,4.1,0,0,1,.983-.239,18.125,18.125,0,0,1,2.755-.266,16.016,16.016,0,0,1,4.084.443,21.036,21.036,0,0,1,4.7,1.772,21.581,21.581,0,0,1,6.99,5.8,17.891,17.891,0,0,1,1.533,2.295A4.25,4.25,0,0,1,462.134,430.935Z" transform="translate(-318.377 -240.522)" fill="#455a64"/>
        <path id="Path_93518" data-name="Path 93518" d="M461.594,418.45c0,.08-1.081-.417-2.879-.886a21.878,21.878,0,0,0-3.189-.549,30.485,30.485,0,0,0-3.978-.107,36.152,36.152,0,0,0-7.141,1.09,26.606,26.606,0,0,1-2.906.789,2.861,2.861,0,0,1,.726-.354,19.85,19.85,0,0,1,2.091-.744,29.874,29.874,0,0,1,7.212-1.241,28.261,28.261,0,0,1,4.04.142,20.1,20.1,0,0,1,3.234.656,12.416,12.416,0,0,1,1.2.408,6.342,6.342,0,0,1,.886.372A2.775,2.775,0,0,1,461.594,418.45Z" transform="translate(-318.475 -240.149)" fill="#455a64"/>
        <path id="Path_93519" data-name="Path 93519" d="M426.637,255.989c-2.6-11.021-7.229-22.282-16.373-28.98-8.133-5.963-20.005-8.231-30.07-7.486-4.953.372-10.481,2.844-14.725,5.431-5.812,3.544-8.107,10.428-10.764,16.7-5.316,12.572-4.049,29.308,0,33.844l52.617,25.64c9.01-5.068,18.765-11.89,20.864-22C429.6,272.246,428.25,262.837,426.637,255.989Z" transform="translate(-308.175 -217.679)" fill="#ff725e"/>
        <path id="Path_93520" data-name="Path 93520" d="M407.157,237.522l-32.869-8.532c-10.543-1.187-17.639,11.757-18.383,22.335-.815,11.748-1.356,26.136,0,34.916,2.658,17.657,16.2,21.848,16.2,21.848s0,15.345.1,20.581l15.336,46.708,21.8-46.708,3.358-84.8A6.2,6.2,0,0,0,407.157,237.522Z" transform="translate(-308.62 -218.765)" fill="#ffbe9d"/>
        <path id="Path_93521" data-name="Path 93521" d="M362.64,270a2.268,2.268,0,0,0,2.171,2.294,2.162,2.162,0,0,0,2.339-2.02,2.259,2.259,0,0,0-2.162-2.3A2.17,2.17,0,0,0,362.64,270Z" transform="translate(-309.482 -223.218)" fill="#263238"/>
        <path id="Path_93522" data-name="Path 93522" d="M359.475,262.358c.275.292,2-.966,4.43-.939s4.217,1.249,4.483.957c.124-.133-.15-.664-.93-1.24a6.2,6.2,0,0,0-3.544-1.125,5.982,5.982,0,0,0-3.544,1.108C359.59,261.693,359.334,262.225,359.475,262.358Z" transform="translate(-309.117 -222.311)" fill="#263238"/>
        <path id="Path_93523" data-name="Path 93523" d="M387.58,270a2.259,2.259,0,0,0,2.162,2.294,2.171,2.171,0,0,0,2.348-2.02,2.268,2.268,0,0,0-2.162-2.3A2.162,2.162,0,0,0,387.58,270Z" transform="translate(-312.326 -223.218)" fill="#263238"/>
        <path id="Path_93524" data-name="Path 93524" d="M386.485,263.048c.275.3,2-.957,4.43-.93s4.217,1.249,4.483.957c.124-.133-.151-.664-.93-1.24a6.255,6.255,0,0,0-3.544-1.134,5.981,5.981,0,0,0-3.544,1.116C386.6,262.383,386.344,262.915,386.485,263.048Z" transform="translate(-312.197 -222.39)" fill="#263238"/>
        <path id="Path_93525" data-name="Path 93525" d="M375.58,281.06c0-.142-1.5-.417-3.943-.744-.629-.071-1.214-.195-1.311-.62a3.09,3.09,0,0,1,.425-1.843l1.87-4.722c2.6-6.716,4.483-12.253,4.217-12.35s-2.6,5.263-5.2,11.987c-.629,1.657-1.223,3.234-1.772,4.749a3.544,3.544,0,0,0-.345,2.436,1.55,1.55,0,0,0,1.019.886,3.777,3.777,0,0,0,1.054.159A15.457,15.457,0,0,0,375.58,281.06Z" transform="translate(-310.258 -222.399)" fill="#263238"/>
        <path id="Path_93526" data-name="Path 93526" d="M374.22,317.624l.1,4.43c17.648,1.772,23.567-10.534,23.567-10.534A44.812,44.812,0,0,1,374.22,317.624Z" transform="translate(-310.803 -228.185)" fill="#eb996e"/>
        <path id="Path_93527" data-name="Path 93527" d="M384.36,288.63a3.916,3.916,0,0,0-3.243-1.772,5.094,5.094,0,0,0-4.651,2.268,3.152,3.152,0,0,0-.221,2.277c.168.39,0,.2.336.47a8.862,8.862,0,0,0,3.624,2.277,3.818,3.818,0,0,0,4.04-1.453A3.88,3.88,0,0,0,384.36,288.63Z" transform="translate(-311.02 -225.371)" fill="#eb996e"/>
        <path id="Path_93528" data-name="Path 93528" d="M383.45,285.62c-.4,0-.425,2.658-2.658,4.474s-5.085,1.559-5.112,1.923c0,.168.629.523,1.816.558a6.529,6.529,0,0,0,4.262-1.453,5.717,5.717,0,0,0,2.091-3.756C383.937,286.267,383.627,285.611,383.45,285.62Z" transform="translate(-310.969 -225.232)" fill="#263238"/>
        <path id="Path_93529" data-name="Path 93529" d="M385.249,254.319c.239.664,2.658.363,5.528.727s5.156,1.16,5.537.567c.177-.283-.221-.886-1.152-1.55a9.666,9.666,0,0,0-8.426-.992C385.683,253.486,385.151,254,385.249,254.319Z" transform="translate(-312.059 -221.458)" fill="#ff725e"/>
        <path id="Path_93530" data-name="Path 93530" d="M360.532,252.852c.425.549,2.109,0,4.12,0s3.73.4,4.12-.177c.177-.275-.089-.833-.833-1.365a5.954,5.954,0,0,0-6.636.16C360.585,252.01,360.346,252.577,360.532,252.852Z" transform="translate(-309.235 -221.213)" fill="#ff725e"/>
        <path id="Path_93531" data-name="Path 93531" d="M414.69,269.932c.239-.106,9.816-3.154,9.746,6.7s-9.958,7.726-9.976,7.442S414.69,269.932,414.69,269.932Z" transform="translate(-315.391 -223.383)" fill="#ffbe9d"/>
        <path id="Path_93532" data-name="Path 93532" d="M417.889,280.785a2.922,2.922,0,0,0,.452.257,1.683,1.683,0,0,0,1.284,0c1.045-.372,1.931-2.011,2-3.783a5.766,5.766,0,0,0-.461-2.463,1.958,1.958,0,0,0-1.285-1.329.886.886,0,0,0-1.01.461c-.133.275-.079.47-.124.487s-.213-.168-.133-.576a1.08,1.08,0,0,1,.4-.611,1.293,1.293,0,0,1,.948-.239,2.4,2.4,0,0,1,1.772,1.542,5.874,5.874,0,0,1,.567,2.746c-.08,1.984-1.116,3.836-2.543,4.235a1.887,1.887,0,0,1-1.568-.275C417.9,281.024,417.853,280.8,417.889,280.785Z" transform="translate(-315.781 -223.79)" fill="#eb996e"/>
        <path id="Path_93533" data-name="Path 93533" d="M421.1,285.389c.044-.053.425.408.363,1.293a1.815,1.815,0,0,1-.691,1.382,2.055,2.055,0,0,1-1.887.133,1.985,1.985,0,0,1-1.311-1.364,2.091,2.091,0,0,1,.266-1.515c.487-.762,1.108-.833,1.108-.78a2.778,2.778,0,0,0-.8.948,1.772,1.772,0,0,0-.133,1.231,1.586,1.586,0,0,0,1.046,1.01,1.629,1.629,0,0,0,1.444-.044,1.577,1.577,0,0,0,.611-1.045A5.867,5.867,0,0,0,421.1,285.389Z" transform="translate(-315.742 -225.107)" fill="#263238"/>
        <path id="Path_93534" data-name="Path 93534" d="M354.946,253.6c1.329-2.853,3.907-4.935,6.645-6.494s5.7-2.658,8.417-4.27a29.592,29.592,0,0,0,13.236-16.55,17.758,17.758,0,0,0-15.77.2,24.1,24.1,0,0,0-10.862,11.748,37.839,37.839,0,0,0-3,15.947" transform="translate(-308.45 -218.266)" fill="#ff725e"/>
        <path id="Path_93535" data-name="Path 93535" d="M413.34,234.545c-7.283-6.919-21.042-10.738-30.53-7.5,1.408,8.284,7.664,17.6,13.165,23.921s8.86,17.6,20.935,13.794c.824-.257,1.772.5,2.525.053a3.031,3.031,0,0,0,1.161-1.825A28.227,28.227,0,0,0,413.34,234.545Z" transform="translate(-311.783 -218.419)" fill="#ff725e"/>
        <path id="Path_93536" data-name="Path 93536" d="M354.827,266.209a3.668,3.668,0,0,1-1.728-.1,6.778,6.778,0,0,1-3.783-2.791,10.286,10.286,0,0,1-1.5-6.8,25.576,25.576,0,0,1,.691-4.084c.319-1.409.762-2.826,1.24-4.27a43.65,43.65,0,0,1,7.673-13.475,39.576,39.576,0,0,1,3.243-3.42l.957-.842a1.772,1.772,0,0,1,.363-.275A11.624,11.624,0,0,1,360.8,231.4a47.017,47.017,0,0,0-3.1,3.544,45.487,45.487,0,0,0-7.469,13.413,43.132,43.132,0,0,0-1.24,4.208,25.357,25.357,0,0,0-.709,4.014,10.082,10.082,0,0,0,1.329,6.574,6.7,6.7,0,0,0,3.544,2.791A9.123,9.123,0,0,0,354.827,266.209Z" transform="translate(-307.782 -218.906)" fill="#ff725e"/>
        <path id="Path_93537" data-name="Path 93537" d="M446.022,234.692c0-4.625-1.3-9.409-4.43-12.793-4.368-4.7-12.014-5.75-17.72-2.764a17.115,17.115,0,0,0-8.727,15.947,19.837,19.837,0,0,0,9.905,15.637l4.067-.461c4.075,2.153,9.418.629,12.554-2.738S446.022,239.3,446.022,234.692Z" transform="translate(-315.466 -217.459)" fill="#ff725e"/>
        <path id="Path_93538" data-name="Path 93538" d="M417.781,233.621a1.849,1.849,0,0,1-.2.328,9.461,9.461,0,0,1-.682.886,17.481,17.481,0,0,1-2.986,2.817,19.376,19.376,0,0,1-25.037-1.373,17.707,17.707,0,0,1-2.658-3.127c-.275-.4-.443-.735-.576-.957s-.186-.346-.168-.354a27.362,27.362,0,0,0,3.632,4.2,20.049,20.049,0,0,0,5,3.3,18.765,18.765,0,0,0,14.3.779,20.169,20.169,0,0,0,5.316-2.729A26.569,26.569,0,0,0,417.781,233.621Z" transform="translate(-312.085 -219.099)" fill="#fff"/>
        <path id="Path_93539" data-name="Path 93539" d="M422.506,247.12a2.2,2.2,0,0,1-.328.328,10.223,10.223,0,0,1-1.037.886,15.583,15.583,0,0,1-4.386,2.3,19.807,19.807,0,0,1-7.291.983,22.44,22.44,0,0,1-8.718-2.25,28.349,28.349,0,0,1-7.3-5.316,37.336,37.336,0,0,1-4.678-5.661,43.529,43.529,0,0,1-2.56-4.244c-.284-.514-.47-.886-.612-1.2a2.557,2.557,0,0,1-.177-.434,2.041,2.041,0,0,1,.266.4l.673,1.152c.594,1.01,1.471,2.445,2.658,4.138a39.182,39.182,0,0,0,4.713,5.555,28.961,28.961,0,0,0,7.2,5.174,22.491,22.491,0,0,0,8.541,2.233,19.886,19.886,0,0,0,7.159-.886,16.7,16.7,0,0,0,4.43-2.144A14.91,14.91,0,0,1,422.506,247.12Z" transform="translate(-312.08 -219.175)" fill="#fff"/>
        <path id="Path_93540" data-name="Path 93540" d="M443.359,232a4.722,4.722,0,0,1-.416.6,11.609,11.609,0,0,1-1.391,1.444,15.831,15.831,0,0,1-2.392,1.772,18.368,18.368,0,0,1-3.3,1.559,19.22,19.22,0,0,1-3.544.824,16.571,16.571,0,0,1-2.977.089,12.513,12.513,0,0,1-1.984-.275,2.23,2.23,0,0,1-.709-.213c0-.08,1.045.133,2.7.16a18.4,18.4,0,0,0,11.987-4.191C442.624,232.753,443.3,232,443.359,232Z" transform="translate(-316.782 -219.117)" fill="#fff"/>
        <path id="Path_93541" data-name="Path 93541" d="M447.459,239a1.464,1.464,0,0,1,.124.8,3.677,3.677,0,0,1-.762,2.064,6.467,6.467,0,0,1-2.6,1.976,19.489,19.489,0,0,1-3.756,1.249,20.178,20.178,0,0,1-7.15.31,18.744,18.744,0,0,1-2.135-.434,2.4,2.4,0,0,1-.744-.284c0-.08,1.107.222,2.915.39a22.427,22.427,0,0,0,7.017-.434c2.658-.629,5.1-1.542,6.2-2.968a3.929,3.929,0,0,0,.842-1.887C447.477,239.275,447.424,239,447.459,239Z" transform="translate(-317.214 -219.915)" fill="#fff"/>
        <path id="Path_93542" data-name="Path 93542" d="M420.025,438.651a1.639,1.639,0,0,1-.487.044h-1.4a32.071,32.071,0,0,1-5.139-.5,34.552,34.552,0,0,1-25.808-20.244,32,32,0,0,1-1.7-4.873c-.168-.585-.239-1.054-.31-1.365a3.3,3.3,0,0,1-.08-.487,15.434,15.434,0,0,1,.558,1.772,38.383,38.383,0,0,0,1.834,4.793,35.3,35.3,0,0,0,25.569,20.058,37.374,37.374,0,0,0,5.077.638C419.351,438.606,420.025,438.615,420.025,438.651Z" transform="translate(-312.044 -239.556)" fill="#455a64"/>
        <path id="Path_93543" data-name="Path 93543" d="M372.613,436.869a1.977,1.977,0,0,1-.39-.213l-1.072-.691-3.889-2.64a112.781,112.781,0,0,0-13.289-7.761,51.564,51.564,0,0,0-14.539-4.643,41.828,41.828,0,0,0-4.634-.425,16.57,16.57,0,0,1-1.71-.071,1.464,1.464,0,0,1,.443-.053c.283,0,.718-.062,1.267-.053a32.393,32.393,0,0,1,4.678.284,48.547,48.547,0,0,1,14.725,4.563,99.864,99.864,0,0,1,13.245,7.912c1.621,1.117,2.915,2.047,3.81,2.7l1.019.762C372.506,436.71,372.622,436.807,372.613,436.869Z" transform="translate(-306.112 -240.592)" fill="#455a64"/>
        <path id="Path_93544" data-name="Path 93544" d="M420.195,436.36l-60.485,3.056,4.687,17.817,80.605.372Z" transform="translate(-309.148 -242.422)" fill="#ffbe9d"/>
        <path id="Path_93545" data-name="Path 93545" d="M357.4,438.383s-19.544-9.746-21.963-9.843c-1.852-.062-12.589,1.772-17.533,2.613a3.544,3.544,0,0,0-3.03,3.978,3.012,3.012,0,0,0,2.817,2.436,3.8,3.8,0,0,0-2.073,3.925c.39,2.809,3.863,2.879,3.863,2.879a4.686,4.686,0,0,0-.416.505,3.367,3.367,0,0,0,2.49,5.316l1.577.115s-1.931,1.178-1.613,3.092c.62,3.668,9,3.119,9,3.119l28.758-.2Z" transform="translate(-304.032 -241.53)" fill="#ffbe9d"/>
        <path id="Path_93546" data-name="Path 93546" d="M319.7,426c.275,1.2.957,3.739,3.2,4.589l11.331-2.153s-8.939-1.639-10.366-2.9a9.915,9.915,0,0,0-1.869-1.347A1.63,1.63,0,0,0,319.7,426Z" transform="translate(-304.581 -241.016)" fill="#ffbe9d"/>
        <path id="Path_93547" data-name="Path 93547" d="M328.661,429.76c0,.195-2.268.771-5.156,1.16s-5.21.629-5.245.416,2.259-.771,5.148-1.161S328.661,429.547,328.661,429.76Z" transform="translate(-304.421 -241.66)" fill="#eb996e"/>
        <path id="Path_93548" data-name="Path 93548" d="M327.071,437.382c.053.195-1.9.886-4.43,1.143s-4.58.1-4.572-.1,2.02-.354,4.483-.647S327.018,437.178,327.071,437.382Z" transform="translate(-304.4 -242.531)" fill="#eb996e"/>
        <path id="Path_93549" data-name="Path 93549" d="M334.4,435.468c.186.08.062.735-.514,1.249s-1.24.558-1.3.372.355-.523.806-.93S334.21,435.38,334.4,435.468Z" transform="translate(-306.053 -242.318)" fill="#eb996e"/>
        <path id="Path_93550" data-name="Path 93550" d="M329.622,445.307c0,.2-2.171.638-4.882.957s-4.935.416-4.97.213,2.153-.629,4.882-.948S329.6,445.1,329.622,445.307Z" transform="translate(-304.594 -243.43)" fill="#eb996e"/>
        <path id="Path_93551" data-name="Path 93551" d="M337.464,440.76c.089,0,.3.168.425.6a2.374,2.374,0,0,1-1.6,2.844c-.443.124-.727.044-.735-.053A5.237,5.237,0,0,0,337,442.736C337.526,441.8,337.278,440.84,337.464,440.76Z" transform="translate(-306.393 -242.923)" fill="#eb996e"/>
        <path id="Path_93552" data-name="Path 93552" d="M332.854,452.965c0,.2-1.984.425-4.43.5s-4.474-.045-4.474-.248,1.985-.425,4.43-.5S332.854,452.771,332.854,452.965Z" transform="translate(-305.07 -244.285)" fill="#eb996e"/>
        <path id="Path_93553" data-name="Path 93553" d="M340.384,447.86c.088,0,.266.195.319.647a2.738,2.738,0,0,1-.372,1.639c-.682,1.134-1.559,1.639-1.683,1.524s.47-.939,1.028-1.887S340.2,447.922,340.384,447.86Z" transform="translate(-306.744 -243.733)" fill="#eb996e"/>
      </g>
      <g id="freepik--character-1--inject-27" transform="translate(23.85 134.14)">
        <path id="Path_93554" data-name="Path 93554" d="M269.3,442.386c-3.969-1.887-17.214-7.088-17.214-7.088L245.6,391l-26.384,3.96s15.354,56.462,19.491,56.852,27.669,0,27.669,0l7.672-.115S272.086,443.7,269.3,442.386Z" transform="translate(-86.326 -135.673)" fill="#9b6e65"/>
        <path id="Path_93555" data-name="Path 93555" d="M253.889,457.783a2.949,2.949,0,0,1-1.32.487,7.673,7.673,0,0,1-6.423-1.71,3.062,3.062,0,0,1-.886-1.081c.062-.053.425.328,1.107.824a8.955,8.955,0,0,0,2.932,1.391,9.127,9.127,0,0,0,3.234.257A8.51,8.51,0,0,1,253.889,457.783Z" transform="translate(-89.295 -143.025)" fill="#704c45"/>
        <path id="Path_93556" data-name="Path 93556" d="M270.261,458.166c-.062.044-.611-.886-1.621-2.233a10.956,10.956,0,0,0-2.038-2.1,11.223,11.223,0,0,0-3.216-1.577,31.64,31.64,0,0,1-6.042-2.853,14.436,14.436,0,0,1-2.3-1.524,16.932,16.932,0,0,1,2.463,1.24,39.53,39.53,0,0,0,6.042,2.7,11.044,11.044,0,0,1,3.322,1.674,9.948,9.948,0,0,1,2.038,2.25,18.67,18.67,0,0,1,1.054,1.772A2.313,2.313,0,0,1,270.261,458.166Z" transform="translate(-90.41 -142.159)" fill="#704c45"/>
        <path id="Path_93557" data-name="Path 93557" d="M173.576,225.9l-9.746,6.716s-12.138-.726-20.944,2.268c-4.882,1.666-10.8,3.677-17.214,10.171a48.2,48.2,0,0,0-12.253,21.316L101.626,364.6l-17.9,69.309H202.865V346.2l11.4-40.232s-2.959-4.642-2.87-6.494,6.742-44.723,6.742-44.723L204.558,238.5Z" transform="translate(-70.875 -116.845)" fill="#d9d9d9"/>
        <path id="Path_93558" data-name="Path 93558" d="M231.221,256.16s6.742,3.145,8.39,14.92S253.2,373.728,253.2,373.728s-13.192,3.047-25.232,4.43l-15.159,2.578-.381-60.759Z" transform="translate(-85.551 -120.296)" fill="#d9d9d9"/>
        <g id="Group_125273" data-name="Group 125273" transform="translate(54.469 175.334)" opacity="0.2">
          <path id="Path_93559" data-name="Path 93559" d="M131.294,439.673c20.253-24.275,23.434-59.484,43.944-83.546l-12.554,7.088c2.224-20.918,4.359-42.668-2.658-62.5A548.621,548.621,0,0,1,130.7,439.576" transform="translate(-130.7 -300.71)"/>
        </g>
        <path id="Path_93560" data-name="Path 93560" d="M161.9,258.3q-.691,56.2-5.156,112.26a46.574,46.574,0,0,1-1.914,8.567,6.2,6.2,0,0,1-6.857,4.279l-24.444-3.686c-4.253-.718-5.865-1.285-7.141-4.031a13.38,13.38,0,0,1-1.169-6.051c.939-33.445-1.985-51.164,0-82.784" transform="translate(-74.385 -120.54)" fill="#d9d9d9"/>
        <path id="Path_93561" data-name="Path 93561" d="M115.28,286.857v.647c0,.425-.044,1.081-.08,1.914-.089,1.683-.2,4.155-.3,7.345s-.177,7.088-.195,11.633.071,9.693.23,15.4c.319,11.411.886,25.011.664,40.116,0,1.887-.08,3.792-.124,5.732a13.458,13.458,0,0,0,1.01,5.635,5.484,5.484,0,0,0,4.182,3.623,58.821,58.821,0,0,0,5.98,1.063l12.4,1.861,6.335.957c1.054.151,2.144.346,3.181.452a5.955,5.955,0,0,0,5.369-2.658,9.877,9.877,0,0,0,1.152-2.933,47.933,47.933,0,0,0,1.382-6.2c.39-4.191.673-8.381.984-12.474.6-8.2,1.116-16.1,1.568-23.637.886-15.061,1.5-28.652,1.9-40.063s.638-20.643.78-27.031c.071-3.181.124-5.652.16-7.345q0-1.249.053-1.914v1.914c0,1.692-.044,4.164-.08,7.353-.08,6.379-.257,15.62-.629,27.031s-.948,25-1.772,40.081c-.443,7.539-.948,15.451-1.542,23.646-.3,4.1-.585,8.257-.983,12.5a50.2,50.2,0,0,1-1.391,6.291,10.351,10.351,0,0,1-1.214,3.056,6.353,6.353,0,0,1-2.507,2.206,6.441,6.441,0,0,1-3.269.656c-1.116-.115-2.153-.31-3.225-.461l-6.335-.957-12.4-1.869a57.556,57.556,0,0,1-6.025-1.081A6.752,6.752,0,0,1,117.769,378a6.921,6.921,0,0,1-1.7-2.534,13.909,13.909,0,0,1-1.045-5.794q.071-2.9.133-5.723c.275-15.061-.292-28.679-.558-40.1-.142-5.706-.2-10.871-.168-15.407s.133-8.443.275-11.633.266-5.67.381-7.345l.133-1.914C115.253,287.078,115.28,286.857,115.28,286.857Z" transform="translate(-74.375 -120.542)" fill="#263238"/>
        <path id="Path_93562" data-name="Path 93562" d="M218.2,385.338a1.392,1.392,0,0,1,0-.284v-.824c0-.762.062-1.834.106-3.189.053-2.773.4-6.769.975-11.686.363-2.454.664-5.156,1.24-7.974.266-1.435.505-2.924.833-4.43s.656-3.083,1-4.678c1.435-6.4,3.269-13.352,4.979-20.705,3.544-14.68,4.811-28.351,4.536-38.265l-.239-6.662c-.106-1.967-.3-3.65-.408-5.024s-.195-2.418-.257-3.181c0-.345-.044-.611-.053-.824a2.066,2.066,0,0,1,0-.283,1.1,1.1,0,0,1,.053.275l.106.824c.08.753.195,1.816.346,3.172s.345,3.057.478,5.024.195,4.208.31,6.68c.363,9.9-.842,23.664-4.43,38.371-1.71,7.362-3.544,14.317-5.015,20.687-.354,1.595-.691,3.154-1.028,4.669s-.567,2.994-.886,4.43c-.585,2.853-.886,5.546-1.285,7.974-.62,4.908-1.01,8.86-1.116,11.659-.089,1.356-.151,2.419-.2,3.181a8.122,8.122,0,0,1-.062.824A1.444,1.444,0,0,1,218.2,385.338Z" transform="translate(-86.207 -122.71)" fill="#263238"/>
        <path id="Path_93563" data-name="Path 93563" d="M211.978,331.89a2.656,2.656,0,0,1-.346.407l-1.054,1.1c-.886.957-2.277,2.295-3.987,3.925-3.411,3.26-8.293,7.61-13.963,12.067s-11.048,8.169-15.061,10.711c-1.993,1.276-3.615,2.286-4.758,2.95l-1.32.753a1.874,1.874,0,0,1-.47.239,2.536,2.536,0,0,1,.425-.31l1.267-.842c1.116-.709,2.711-1.772,4.678-3.057,3.925-2.614,9.258-6.361,14.92-10.809s10.561-8.744,14.025-11.943c1.772-1.595,3.127-2.9,4.084-3.809l1.107-1.036A1.984,1.984,0,0,1,211.978,331.89Z" transform="translate(-80.829 -128.932)" fill="#263238"/>
        <g id="Group_125274" data-name="Group 125274" transform="translate(131.991 183.954)" opacity="0.2">
          <path id="Path_93564" data-name="Path 93564" d="M231.56,310.44c-2.906,26.978-12.51,56.454-13.36,73.473,3.81-12.129,8.629-23.717,12.173-35.926S235.512,322.525,231.56,310.44Z" transform="translate(-218.2 -310.44)"/>
        </g>
        <path id="Path_93565" data-name="Path 93565" d="M246.107,129.867a6.919,6.919,0,0,0,3.455-10.419c-.886-1.364-2.312-2.374-3.145-3.8a22.146,22.146,0,0,1-1.4-3.845,13.989,13.989,0,0,0-9.444-8.443,18.047,18.047,0,0,0-12.775,1.5c-1.559.789-3.083,1.772-4.82,1.931s-3.314-.532-4.97-.886A11.518,11.518,0,0,0,200.1,121.016a9.878,9.878,0,0,0-.115,19.491c2.8.505,5.661-.221,8.434-.886a150.43,150.43,0,0,1,34.3-3.827" transform="translate(-83.196 -102.808)" fill="#263238"/>
        <path id="Path_93566" data-name="Path 93566" d="M186.793,193.057a35.332,35.332,0,0,1-4.589-23.682c1.32-8.1,4.616-17.888,10.862-23.212-2.72-4.43-.443-8.355,2.941-12.324s8.426-6.2,13.467-7.513A56.1,56.1,0,0,1,232.6,125.1c6.264.983,14.335,3.686,14.282,8.328-.062,4.846-3.544,6.326-3.544,6.326a31.309,31.309,0,0,1,10.171,9.232c6.273,8.984,7.8,17.108,5.085,25.277s-5.821,14.344-11.907,18.658" transform="translate(-82.055 -105.274)" fill="#ea1c2d"/>
        <path id="Path_93567" data-name="Path 93567" d="M246.912,211.567a7.911,7.911,0,0,1,3.544-1.285l-.23-.062a4.428,4.428,0,0,1,.682.044,3.1,3.1,0,0,1,2.3.886h0a5.785,5.785,0,0,1,2.445,3.4,6.84,6.84,0,0,1-2.41,6.689,5.236,5.236,0,0,1-8.939-3.96,6.512,6.512,0,0,1,2.6-5.714Z" transform="translate(-89.184 -115.057)" fill="#455a64"/>
        <path id="Path_93568" data-name="Path 93568" d="M184.63,224.02l9.852-64.994a6.379,6.379,0,0,1,6.9-5.183l34.96-1.533c10.862,1.072,15.221,15.62,13.688,26.419-1.7,12-4.253,26.579-7.486,35.146-6.494,17.188-20.59,16.638-20.59,16.638s-2.658,12.306-4.049,18.756l-7.256,25.5Z" transform="translate(-82.381 -108.453)" fill="#9b6e65"/>
        <path id="Path_93569" data-name="Path 93569" d="M250.057,197.669a2.33,2.33,0,0,1-2.658,1.852,2.233,2.233,0,0,1-1.923-2.543,2.33,2.33,0,0,1,2.658-1.852,2.233,2.233,0,0,1,1.923,2.543Z" transform="translate(-89.317 -113.332)" fill="#263238"/>
        <path id="Path_93570" data-name="Path 93570" d="M251.934,189.465c-.345.239-1.772-1.391-4.261-1.9s-4.5.354-4.7,0c-.106-.159.292-.638,1.2-1.045a6.416,6.416,0,0,1,3.845-.372,6.2,6.2,0,0,1,3.314,1.887C251.96,188.774,252.1,189.359,251.934,189.465Z" transform="translate(-89.032 -112.297)" fill="#263238"/>
        <path id="Path_93571" data-name="Path 93571" d="M224.007,192.9a2.321,2.321,0,0,1-2.658,1.843,2.224,2.224,0,0,1-1.923-2.543,2.321,2.321,0,0,1,2.658-1.843,2.233,2.233,0,0,1,1.923,2.543Z" transform="translate(-86.346 -112.788)" fill="#263238"/>
        <path id="Path_93572" data-name="Path 93572" d="M224.613,184.356c-.346.239-1.816-1.391-4.262-1.9s-4.509.354-4.713,0c-.106-.159.292-.638,1.2-1.045a6.361,6.361,0,0,1,3.845-.363A6.113,6.113,0,0,1,224,182.93C224.63,183.647,224.817,184.25,224.613,184.356Z" transform="translate(-85.915 -111.714)" fill="#263238"/>
        <path id="Path_93573" data-name="Path 93573" d="M231.57,204.749c0-.142,1.595-.089,4.137.106.638.071,1.258.062,1.453-.337a3.312,3.312,0,0,0,0-1.949c-.274-1.639-.567-3.349-.886-5.147-1.169-7.327-1.878-13.289-1.586-13.343s1.488,5.856,2.658,13.183c.266,1.772.532,3.544.78,5.165a3.713,3.713,0,0,1-.186,2.525,1.6,1.6,0,0,1-1.214.7,4.205,4.205,0,0,1-1.1-.071C233.094,205.2,231.552,204.891,231.57,204.749Z" transform="translate(-87.734 -112.076)" fill="#263238"/>
        <path id="Path_93574" data-name="Path 93574" d="M223.815,239.128A46.149,46.149,0,0,1,201.32,227.85s3.26,13.422,21.387,15.424Z" transform="translate(-84.284 -117.068)" fill="#704c45"/>
        <path id="Path_93575" data-name="Path 93575" d="M228.637,213.43a6.2,6.2,0,0,0-4.43-3.659,4.022,4.022,0,0,0-3.6,1.09,3.89,3.89,0,0,0-.762,3.978,3.836,3.836,0,0,0,3.686,2.25,9.037,9.037,0,0,0,4.076-1.489,2.745,2.745,0,0,0,.966-.753,1.276,1.276,0,0,0,.159-1.267" transform="translate(-86.369 -114.997)" fill="#704c45"/>
        <path id="Path_93576" data-name="Path 93576" d="M222.9,207.65c.4.053-.142,2.72,1.772,5.077s4.784,2.658,4.722,3.03c0,.177-.735.39-1.94.177a6.8,6.8,0,0,1-3.978-2.383,5.892,5.892,0,0,1-1.293-4.226C222.32,208.19,222.745,207.6,222.9,207.65Z" transform="translate(-86.661 -114.764)" fill="#263238"/>
        <path id="Path_93577" data-name="Path 93577" d="M226.96,177.129c-.381.62-2.764-.2-5.714-.452s-5.44.053-5.7-.62c-.106-.319.425-.886,1.5-1.32a9.6,9.6,0,0,1,4.43-.594,9.447,9.447,0,0,1,4.253,1.417C226.711,176.2,227.128,176.837,226.96,177.129Z" transform="translate(-85.905 -110.937)" fill="#263238"/>
        <path id="Path_93578" data-name="Path 93578" d="M252.666,181.236c-.549.47-2.117-.461-4.146-.886s-3.827-.4-4.1-1.063c-.115-.319.275-.824,1.134-1.2a6.14,6.14,0,0,1,6.645,1.595C252.8,180.377,252.905,181,252.666,181.236Z" transform="translate(-89.197 -111.35)" fill="#263238"/>
        <path id="Path_93579" data-name="Path 93579" d="M238.095,157.391s-16.6-3.81-33.233,12.3C193.9,180.32,188.826,195.5,188.826,195.5l-.106-31.009,7.717-12.466L209.345,148l22.1,3.446,7.371,5.847" transform="translate(-82.847 -107.962)" fill="#ea1c2d"/>
        <path id="Path_93580" data-name="Path 93580" d="M207.12,151.571c27.9-.718,47.231,12.607,46.673,34.242l8.328-12.536-10.26-19.571-14.255-7.167L206.19,144.66Z" transform="translate(-84.84 -107.581)" fill="#ea1c2d"/>
        <path id="Path_93581" data-name="Path 93581" d="M184.367,198.263a8.485,8.485,0,0,1,3.783-1.382l-.248-.071a5.122,5.122,0,0,1,.735.044,3.341,3.341,0,0,1,2.481.886h0a6.254,6.254,0,0,1,2.658,3.677,7.4,7.4,0,0,1-2.6,7.194,5.635,5.635,0,0,1-9.622-4.27A7,7,0,0,1,184.367,198.263Z" transform="translate(-82.029 -113.528)" fill="#455a64"/>
        <path id="Path_93582" data-name="Path 93582" d="M193.232,185.635a2.659,2.659,0,0,1-1.09-.682,6.821,6.821,0,0,1-1.914-2.959,6.91,6.91,0,0,1,.292-5.21c.425-.886.975-1.772,1.338-2.658a2.994,2.994,0,0,0-.142-2.791,10.453,10.453,0,0,0-2.242-2.171,7.724,7.724,0,0,1-2.02-2.392,8.619,8.619,0,0,1-.886-5.156,7.505,7.505,0,0,1,1.24-3.287,2.8,2.8,0,0,1,.886-.939,9.949,9.949,0,0,0-1.595,4.288,8.241,8.241,0,0,0,.983,4.758,7.018,7.018,0,0,0,1.887,2.171,10.63,10.63,0,0,1,2.4,2.339,3.686,3.686,0,0,1,.186,3.438c-.408,1.028-.983,1.878-1.391,2.72a6.537,6.537,0,0,0-.416,4.758,7.2,7.2,0,0,0,1.621,2.9C192.886,185.324,193.267,185.581,193.232,185.635Z" transform="translate(-82.593 -109.033)" fill="#fff"/>
        <path id="Path_93583" data-name="Path 93583" d="M197.273,147.39a11.515,11.515,0,0,0-1.683,3.978,8.6,8.6,0,0,0,.434,4.563c.594,1.648,2.038,2.986,3.438,4.589a7.7,7.7,0,0,1,1.612,2.746,5.316,5.316,0,0,1-.062,2.995c-.54,1.772-1.418,3.2-1.586,4.5a4.174,4.174,0,0,0,.478,2.977c.4.611.842.762.8.833s-.115,0-.31-.089a2.121,2.121,0,0,1-.718-.567,4.271,4.271,0,0,1-.762-3.225c.124-1.462.992-2.932,1.444-4.616a4.651,4.651,0,0,0,0-2.6,7.088,7.088,0,0,0-1.48-2.472c-1.32-1.524-2.888-2.986-3.544-4.829a8.727,8.727,0,0,1-.31-4.908,7.974,7.974,0,0,1,1.347-3.012C196.892,147.62,197.246,147.363,197.273,147.39Z" transform="translate(-83.542 -107.892)" fill="#fff"/>
        <path id="Path_93584" data-name="Path 93584" d="M214.986,164.164a.689.689,0,0,1-.753,0,1.443,1.443,0,0,1-.664-.647,1.877,1.877,0,0,1-.16-1.223c.142-.886.886-1.772,1.09-2.658a2.9,2.9,0,0,0-1.311-2.658,7.743,7.743,0,0,1-2.428-2.658,6.3,6.3,0,0,1-.62-2.932,3.8,3.8,0,0,1,.833-2.578,14.738,14.738,0,0,0-.31,2.569,6.441,6.441,0,0,0,.709,2.658,7.5,7.5,0,0,0,2.295,2.445,5.122,5.122,0,0,1,1.267,1.488,2.525,2.525,0,0,1,.221,1.9c-.372,1.161-1.072,1.861-1.232,2.6a1.364,1.364,0,0,0,.452,1.515C214.711,164.164,214.977,164.1,214.986,164.164Z" transform="translate(-85.289 -108.054)" fill="#fff"/>
        <path id="Path_93585" data-name="Path 93585" d="M224.635,151.06a.467.467,0,0,1,.345.221,1.266,1.266,0,0,1,.1,1.1,6.823,6.823,0,0,1-.726,1.285,3.012,3.012,0,0,0-.328,1.5,6.414,6.414,0,0,0,.939,2.826c.4.7.638,1.152.549,1.214s-.461-.275-.983-.93a5.315,5.315,0,0,1-1.249-3.092,3.3,3.3,0,0,1,.487-1.869c.337-.5.673-.806.824-1.125A1.427,1.427,0,0,0,224.635,151.06Z" transform="translate(-86.788 -108.311)" fill="#fff"/>
        <path id="Path_93586" data-name="Path 93586" d="M255.785,146.529a2.469,2.469,0,0,1-.443.656c-.337.381-.886.886-1.4,1.533a3.694,3.694,0,0,0-.806,2.72,15.18,15.18,0,0,1,.053,3.889,6.786,6.786,0,0,1-1.9,3.5,6.5,6.5,0,0,1-2.8,1.612,4.117,4.117,0,0,1-2.924,0,15.707,15.707,0,0,0,2.764-.505,6.343,6.343,0,0,0,4.129-4.766,16.936,16.936,0,0,0,0-3.73,4.156,4.156,0,0,1,1.09-3.065,12.844,12.844,0,0,1,1.6-1.409C255.528,146.662,255.75,146.494,255.785,146.529Z" transform="translate(-89.33 -107.793)" fill="#fff"/>
        <path id="Path_93587" data-name="Path 93587" d="M266.848,163.587c.08.133-.886.354-1.515,1.595-.3.647-.806,1.382-1.231,2.188a16.912,16.912,0,0,1-1.595,2.711,5.865,5.865,0,0,1-5.316,2.02,3.3,3.3,0,0,1-2.171-.957c.062-.124.842.363,2.224.443a5.715,5.715,0,0,0,4.687-1.976,20.377,20.377,0,0,0,1.577-2.578c.5-.886,1.01-1.488,1.382-2.118a2.887,2.887,0,0,1,1.32-1.2C266.6,163.561,266.83,163.543,266.848,163.587Z" transform="translate(-90.408 -109.737)" fill="#fff"/>
        <path id="Path_93588" data-name="Path 93588" d="M265.991,184.218c.08.053-.071.461-.567.93a3.889,3.889,0,0,1-4.97.239c-.54-.425-.726-.815-.656-.886a6.018,6.018,0,0,0,3.145.886C264.76,185.273,265.849,184.068,265.991,184.218Z" transform="translate(-90.951 -112.09)" fill="#fff"/>
        <path id="Path_93589" data-name="Path 93589" d="M239.073,139.73c.053.124-.886.381-1.843,1.391a5.573,5.573,0,0,0-1.524,4.926,6.825,6.825,0,0,1,.354,3.243,4.26,4.26,0,0,1-1.506,2.25,4.36,4.36,0,0,1-2.135,1.134c-.062-.115.771-.532,1.772-1.515a4.111,4.111,0,0,0,1.2-2.02,6.945,6.945,0,0,0-.417-2.941,5.511,5.511,0,0,1,.319-3.287,5.837,5.837,0,0,1,1.577-2.171A3.252,3.252,0,0,1,239.073,139.73Z" transform="translate(-87.83 -107.019)" fill="#fff"/>
        <path id="Path_93590" data-name="Path 93590" d="M218,149.2c-.177-.124.709-1.586,1.143-3.544s.292-3.7.514-3.739.709,1.728.213,3.9S218.121,149.335,218,149.2Z" transform="translate(-86.183 -107.268)" fill="#fff"/>
        <path id="Path_93591" data-name="Path 93591" d="M204.309,143.367c0-.053.195-.159.416-.478a2.658,2.658,0,0,0,.478-1.559c0-1.435-1.01-3.278-1.772-5.511a8.7,8.7,0,0,1-.434-3.3,4.9,4.9,0,0,1,.992-2.658,2.968,2.968,0,0,1,1.55-1.072,1.255,1.255,0,0,1,.691,0,4.93,4.93,0,0,0-.6.23,3.03,3.03,0,0,0-1.214,1.107c-.886,1.169-1,3.3-.284,5.422s1.772,4.084,1.577,5.759a2.658,2.658,0,0,1-.78,1.772C204.593,143.4,204.309,143.4,204.309,143.367Z" transform="translate(-84.474 -105.765)" fill="#fff"/>
        <path id="Path_93592" data-name="Path 93592" d="M225.16,138.493c0-.044.159-.213.5-.47a2.63,2.63,0,0,0,1.072-1.2,3.819,3.819,0,0,0-.753-2.286c-.505-.833-1.231-1.648-1.94-2.658a5.316,5.316,0,0,1-1.285-3.216,4.767,4.767,0,0,1,1.232-2.552c1.045-1.178,1.834-1.71,1.9-1.648a14.975,14.975,0,0,1-1.48,1.967,4.626,4.626,0,0,0-.966,2.277,4.989,4.989,0,0,0,1.205,2.738c1.338,1.772,2.95,3.6,2.6,5.484a2.578,2.578,0,0,1-1.426,1.3C225.417,138.458,225.186,138.537,225.16,138.493Z" transform="translate(-86.728 -105.277)" fill="#fff"/>
        <path id="Path_93593" data-name="Path 93593" d="M244.74,139.463c-.044-.106.815-.284,1.294-1.4a3.437,3.437,0,0,0,.186-2.011,15.833,15.833,0,0,0-.824-2.543,7.025,7.025,0,0,1-.558-2.809,3.544,3.544,0,0,1,.992-2.179c.886-1.054,1.914-1.072,1.887-.939a4.307,4.307,0,0,0-1.48,1.267,3.313,3.313,0,0,0-.718,1.878,7.482,7.482,0,0,0,.567,2.534,12.528,12.528,0,0,1,.806,2.658,3.686,3.686,0,0,1-.39,2.357,2.409,2.409,0,0,1-1.178,1.1A1.181,1.181,0,0,1,244.74,139.463Z" transform="translate(-89.236 -105.627)" fill="#fff"/>
        <path id="Path_93594" data-name="Path 93594" d="M244.733,141.4a11.057,11.057,0,0,1-2.047-.346c-1.3-.292-3.2-.62-5.546-.966a61.683,61.683,0,0,0-18.455.275,92.267,92.267,0,0,0-17.79,5.174l-5.236,2.091a10.574,10.574,0,0,1-1.949.7,10.627,10.627,0,0,1,1.834-.966c1.2-.585,2.959-1.391,5.156-2.312a83.02,83.02,0,0,1,17.861-5.422,57.475,57.475,0,0,1,18.658-.062,53.554,53.554,0,0,1,5.528,1.2A11.369,11.369,0,0,1,244.733,141.4Z" transform="translate(-83.416 -106.916)" fill="#263238"/>
        <path id="Path_93595" data-name="Path 93595" d="M200.08,149.971h.186l.54-.106.886-.177,1.2-.195a33.5,33.5,0,0,1,7.734-.195,46.654,46.654,0,0,1,11.2,2.454c2.056.691,4.155,1.559,6.317,2.507s4.368,2,6.547,3.225c8.86,4.74,14.822,12.226,16.922,18.4a26.129,26.129,0,0,1,1.435,7.584,14.947,14.947,0,0,1,0,2.109v.549a.75.75,0,0,0,0,.186.518.518,0,0,0,0-.186v-.549c0-.479.071-1.2.053-2.118a25.439,25.439,0,0,0-1.32-7.672c-2.047-6.282-8.089-13.892-17-18.676-2.2-1.223-4.43-2.277-6.583-3.234s-4.288-1.772-6.361-2.5a46.134,46.134,0,0,0-11.2-2.392,31.994,31.994,0,0,0-7.779.337l-1.2.23-.886.221-.532.142Q200.08,149.958,200.08,149.971Z" transform="translate(-84.143 -108.063)" fill="#263238"/>
        <path id="Path_93596" data-name="Path 93596" d="M233.711,158.5a4.742,4.742,0,0,0-.585-.1,14.877,14.877,0,0,0-1.692-.133,23.6,23.6,0,0,0-6.2.691,42.941,42.941,0,0,0-17.879,9.808,65.569,65.569,0,0,0-7.646,8.328,77.989,77.989,0,0,0-5.369,7.513,42.541,42.541,0,0,0-2.95,5.484c-.284.673-.5,1.205-.62,1.568a2.576,2.576,0,0,0-.168.567,4.106,4.106,0,0,0,.248-.532q.221-.549.691-1.542a49.614,49.614,0,0,1,3.057-5.387,85.3,85.3,0,0,1,5.413-7.424,67.735,67.735,0,0,1,7.628-8.257,43.784,43.784,0,0,1,17.666-9.834,25.535,25.535,0,0,1,6.113-.824,12.384,12.384,0,0,1,1.683.062A3.067,3.067,0,0,0,233.711,158.5Z" transform="translate(-83.062 -109.132)" fill="#263238"/>
        <path id="Path_93597" data-name="Path 93597" d="M69.22,450.147s5.422-1.772,8.86-2.782c1.923-.558,9.878-4.076,14.716-4.988,4.04-.762,15.23-6.476,16.966-7.646s8.594-39.381,8.594-39.381l25.87,3.9s-13.794,36.856-14.663,40.373-4.146,12.616-4.146,12.616H69.22Z" transform="translate(-69.22 -136.169)" fill="#9b6e65"/>
        <path id="Path_93598" data-name="Path 93598" d="M120.35,457.157c0-.08.886-.15,2.1-.682a8.39,8.39,0,0,0,5.209-8.337c-.08-1.355-.39-2.162-.31-2.188s.133.177.266.549a7.04,7.04,0,0,1,.372,1.613,8.2,8.2,0,0,1-5.413,8.673,7.009,7.009,0,0,1-1.612.372A1.389,1.389,0,0,1,120.35,457.157Z" transform="translate(-75.051 -141.939)" fill="#704c45"/>
        <path id="Path_93599" data-name="Path 93599" d="M112.9,455.144a3.289,3.289,0,0,1-.523.23,10.1,10.1,0,0,1-1.595.416,36.926,36.926,0,0,1-6.06.133,14.173,14.173,0,0,0-4.075.487c-1.426.425-2.835,1.2-4.43,1.772a14.654,14.654,0,0,1-10.888-.833l-.549-.266.585-.159.523-.151a19.62,19.62,0,0,0,5.209-2.366,33.928,33.928,0,0,0,4.191-3.367,21.447,21.447,0,0,1,8.036-4.43,48.153,48.153,0,0,1,6.016-1.435L111,444.9a2.8,2.8,0,0,1,.576-.062,2.153,2.153,0,0,1-.567.15l-1.639.363a55.877,55.877,0,0,0-5.954,1.568,21.521,21.521,0,0,0-7.85,4.43,33.4,33.4,0,0,1-4.226,3.429,20.243,20.243,0,0,1-5.316,2.428l-.532.151v-.425a14.388,14.388,0,0,0,10.57.833c1.586-.505,3.012-1.285,4.483-1.71a14.538,14.538,0,0,1,4.2-.452,41.045,41.045,0,0,0,6.025,0C112.156,455.418,112.883,455.091,112.9,455.144Z" transform="translate(-70.994 -141.812)" fill="#704c45"/>
      </g>
      <g id="freepik--character-4--inject-27" transform="translate(349.408 165.463)">
        <path id="Path_93600" data-name="Path 93600" d="M543.91,381.772l-15.035,34.792L514.93,461.376l135.118.638-2.3-84.875-66.412-6.769Z" transform="translate(-413.65 -164.644)" fill="#263238"/>
        <path id="Path_93601" data-name="Path 93601" d="M458.641,389.27s-10.88,4.137-19.394,6.645-23.709,11.89-23.709,11.89-15.469,13.936-14.911,15.779,2.392,2.729,4.74.842,13.945-8.736,13.945-8.736.744,3.881,3.251,4.324a6.744,6.744,0,0,0,3.827-.177s1.028,3.641,2.835,4.828a10.42,10.42,0,0,0,3.473,1.48,2.924,2.924,0,0,0,2.392,2.729,15.3,15.3,0,0,0,4.793.567s8.071-4.89,9.356-7.247,2.853-5.537,2.853-5.537l3.331-1.666,10.233-1.772Z" transform="translate(-400.613 -166.799)" fill="#c78976"/>
        <path id="Path_93602" data-name="Path 93602" d="M449.862,409.62a6.45,6.45,0,0,1-1,1.232,13.215,13.215,0,0,1-3.6,2.525,18.114,18.114,0,0,1-6.441,1.772,14.043,14.043,0,0,1-4.058-.168,10.631,10.631,0,0,1-4.12-1.692l.266-.363a28.536,28.536,0,0,1,2.853,2.419,10.075,10.075,0,0,1,1.285,1.506,5.03,5.03,0,0,1,.78,1.9,5.829,5.829,0,0,1-1.108,4.634l-.106.133-.16-.062a21.817,21.817,0,0,1-4.341-2.428c-1.311-.886-2.516-1.843-3.65-2.738s-2.179-1.772-3.18-2.569a3.951,3.951,0,0,1-1.187-3.34,5.537,5.537,0,0,1,.461-1.488c.186-.452.372-.886.567-1.249.381-.753.753-1.382,1.072-1.887a9.451,9.451,0,0,1,.788-1.108,2.241,2.241,0,0,1,.31-.363,2.106,2.106,0,0,1-.239.408c-.168.257-.416.647-.718,1.151a21.113,21.113,0,0,0-1,1.9c-.186.381-.363.8-.532,1.24a5.087,5.087,0,0,0-.408,1.426,3.632,3.632,0,0,0,1.125,3.048c.957.78,2.073,1.621,3.189,2.507s2.339,1.816,3.641,2.7a21.818,21.818,0,0,0,4.27,2.357l-.266.08a5.4,5.4,0,0,0,1.019-4.27,4.728,4.728,0,0,0-.709-1.728,9.988,9.988,0,0,0-1.223-1.435,26.669,26.669,0,0,0-2.8-2.383l.266-.363a10.027,10.027,0,0,0,3.934,1.639,13.651,13.651,0,0,0,3.952.2,18.288,18.288,0,0,0,6.343-1.683,13.737,13.737,0,0,0,3.615-2.392C449.472,410.054,449.818,409.576,449.862,409.62Z" transform="translate(-403.06 -168.739)" fill="#925b4c"/>
        <path id="Path_93603" data-name="Path 93603" d="M437,422.148a8.089,8.089,0,0,1,1.329-.532,9.744,9.744,0,0,0,2.888-1.7,3.075,3.075,0,0,0,.886-1.488,1.975,1.975,0,0,0-1.2-2.25.821.821,0,0,1,.408,0,1.575,1.575,0,0,1,.886.691,2.268,2.268,0,0,1,.346,1.621,3.243,3.243,0,0,1-1.01,1.772,7.971,7.971,0,0,1-3.1,1.683A3.2,3.2,0,0,1,437,422.148Z" transform="translate(-404.763 -169.865)" fill="#925b4c"/>
        <path id="Path_93604" data-name="Path 93604" d="M439.57,428.7a19,19,0,0,1,1.958-1.276c.611-.39,1.32-.886,2.082-1.435a15.948,15.948,0,0,0,2.3-2,3.151,3.151,0,0,0,.7-1.311,2.036,2.036,0,0,0-.168-1.32,2.861,2.861,0,0,0-1.772-1.48,4.861,4.861,0,0,0-1.648-.2,2.352,2.352,0,0,1-.629,0,1.577,1.577,0,0,1,.62-.177,4.432,4.432,0,0,1,1.772.062,3.207,3.207,0,0,1,2.073,1.612,2.568,2.568,0,0,1,.222,1.6,3.608,3.608,0,0,1-.788,1.515,14.1,14.1,0,0,1-2.41,2.038c-.789.558-1.524,1.019-2.153,1.382A8.455,8.455,0,0,1,439.57,428.7Z" transform="translate(-405.056 -170.238)" fill="#925b4c"/>
        <path id="Path_93605" data-name="Path 93605" d="M451.123,428.479a7.83,7.83,0,0,0,.381-1.2,2.6,2.6,0,0,0-3.712-2.862c-.709.31-1,.735-1.063.682s.168-.549.886-.974a2.844,2.844,0,0,1,4.191,3.216C451.61,428.178,451.15,428.514,451.123,428.479Z" transform="translate(-405.871 -170.728)" fill="#925b4c"/>
        <path id="Path_93606" data-name="Path 93606" d="M520.779,442.27l-2.844,4.191h-21.2l-27,10.88h69.743c.594-.735,2.41-3.544,2.41-3.544Z" transform="translate(-408.495 -172.843)" fill="#c78976"/>
        <path id="Path_93607" data-name="Path 93607" d="M617.281,288.844c-15.23-24.639-47.957-54.744-50.73-56.135s-47.514-4.2-47.514-4.2L483.7,253.583l-11.73,17.533c-1.6,4.988-4.43,12.669-3.136,17.719l1.09,8.647,36.856,23.788,18.331,10.7,10.206,14.477-.815,24.249,14.441-2.746s22.238,2.2,43.554,2.72,50.633-6.246,50.633-6.246S634.265,316.335,617.281,288.844Z" transform="translate(-408.356 -148.466)" fill="#d13c32"/>
        <path id="Path_93608" data-name="Path 93608" d="M538.741,272.342l12.51,69.406L525.31,418.3l25.941,14.175s18.534-32.621,26.88-52.352,11.385-30.752,11.385-30.752,0-75.014-2.658-83.661-11.465-25.791-20.732-24.86S534.949,251.292,538.741,272.342Z" transform="translate(-414.833 -149.87)" fill="#d13c32"/>
        <path id="Path_93609" data-name="Path 93609" d="M469.056,306.4l22.353,54.735a22.639,22.639,0,0,0-2.658,6.441L460.87,381.353l8.186,26.357s34.783-11.518,39.709-14.175,19.137-12.776,21.6-20.989-11.19-37.308-11.19-37.308Z" transform="translate(-407.485 -157.348)" fill="#d13c32"/>
        <path id="Path_93610" data-name="Path 93610" d="M527.07,341.3a2.655,2.655,0,0,1-.478-.239l-1.32-.735c-1.143-.656-2.791-1.612-4.81-2.835s-4.43-2.658-6.964-4.43c-1.284-.886-2.658-1.843-3.942-2.915l-4.04-3.34-14.1-11.819-4.235-3.624-1.143-1a2.243,2.243,0,0,1-.372-.372,1.867,1.867,0,0,1,.434.3l1.187.886c1.072.886,2.543,2.064,4.341,3.544,3.668,3.039,8.665,7.159,14.175,11.713l4.031,3.358c1.311,1.054,2.658,2.02,3.9,2.906,2.552,1.772,4.908,3.287,6.9,4.545l4.722,2.95,1.276.815A2.083,2.083,0,0,1,527.07,341.3Z" transform="translate(-410.312 -157.758)" fill="#263238"/>
        <path id="Path_93611" data-name="Path 93611" d="M529.8,232.13a12.48,12.48,0,0,1,1.71,2.578,18.606,18.606,0,0,1,1.984,8.151,22.083,22.083,0,0,1-.7,5.794,24.61,24.61,0,0,1-2.658,6.2,33.594,33.594,0,0,1-10.773,10.773,28.565,28.565,0,0,1-14.423,4.8,19.023,19.023,0,0,1-11.846-3.544,15.813,15.813,0,0,1-5.316-6.468,9.756,9.756,0,0,1-.47-1.24,5.333,5.333,0,0,1-.248-.939c-.053-.23-.089-.425-.124-.585a.615.615,0,0,1,0-.2,26.619,26.619,0,0,0,1.028,2.9,15.947,15.947,0,0,0,5.316,6.281,18.8,18.8,0,0,0,11.633,3.411,28.352,28.352,0,0,0,14.176-4.758,33.567,33.567,0,0,0,10.631-10.632,24.511,24.511,0,0,0,2.658-6.042,22.167,22.167,0,0,0,.735-5.688,18.708,18.708,0,0,0-1.825-8.08,11.447,11.447,0,0,0-.611-1.161c-.186-.328-.355-.611-.505-.824l-.328-.5C529.828,232.2,529.793,232.139,529.8,232.13Z" transform="translate(-410.457 -148.879)" fill="#263238"/>
        <path id="Path_93612" data-name="Path 93612" d="M523.95,267.5c-.124.044-.771-1.391-1.861-2.968s-2.2-2.7-2.1-2.8A10.321,10.321,0,0,1,523.95,267.5Z" transform="translate(-414.226 -152.255)" fill="#263238"/>
        <path id="Path_93613" data-name="Path 93613" d="M533.171,258.9a20.783,20.783,0,0,0-2.968-2.171,21.608,21.608,0,0,0-3.473-1.205A7.088,7.088,0,0,1,533.171,258.9Z" transform="translate(-414.995 -151.546)" fill="#263238"/>
        <path id="Path_93614" data-name="Path 93614" d="M538.418,248.579c-.044.124-1.347-.275-2.986-.5a26.252,26.252,0,0,1-3.012-.346,6.2,6.2,0,0,1,3.074-.115A6.327,6.327,0,0,1,538.418,248.579Z" transform="translate(-415.644 -150.63)" fill="#263238"/>
        <path id="Path_93615" data-name="Path 93615" d="M537.606,236.353a17.823,17.823,0,0,1-2.658.744,19.817,19.817,0,0,1-2.658.78,5.65,5.65,0,0,1,2.543-1.223,5.784,5.784,0,0,1,2.773-.3Z" transform="translate(-415.63 -149.355)" fill="#263238"/>
        <path id="Path_93616" data-name="Path 93616" d="M508.249,273.5a4.588,4.588,0,0,1-.691-2.835,4.677,4.677,0,0,1,.718-2.835c.133.044-.257,1.276-.257,2.835S508.373,273.456,508.249,273.5Z" transform="translate(-412.807 -152.95)" fill="#263238"/>
        <path id="Path_93617" data-name="Path 93617" d="M492.21,270.634a5.733,5.733,0,0,1,1.276-1.843c.8-.939,1.533-1.63,1.621-1.542a5.885,5.885,0,0,1-1.267,1.843C493.043,270.049,492.308,270.713,492.21,270.634Z" transform="translate(-411.059 -152.883)" fill="#263238"/>
        <path id="Path_93618" data-name="Path 93618" d="M586.778,268.91a1.081,1.081,0,0,0,.106.372,9.344,9.344,0,0,1,.248,1.116c.2.992.372,2.49.567,4.43.372,3.9.709,9.63.984,16.948.549,14.627.886,35.571.992,60.795v.053c-1.869,6.352-4.226,12.855-6.831,19.571s-5.431,13.635-8.78,20.572c-6.645,13.9-14.371,28.289-22.636,43.014l-.115.2-.195-.115-2.4-1.3-23.549-12.855-.168-.089.062-.186,25.994-76.547v.089c-3.783-21.175-6.884-38.531-9.037-50.6-1.073-6.025-1.9-10.729-2.463-13.936-.275-1.595-.488-2.817-.629-3.65s-.2-1.249-.2-1.249.1.425.257,1.24.381,2.047.683,3.641c.585,3.207,1.453,7.9,2.56,13.919,2.188,12.058,5.316,29.4,9.2,50.571v.089c-7.344,21.7-16.2,47.913-25.9,76.583l-.107-.275,23.514,12.846,2.4,1.311-.31.089c8.257-14.725,15.947-29.1,22.637-42.978,3.34-6.928,6.2-13.848,8.788-20.537s4.979-13.21,6.848-19.491v.053c0-25.223-.345-46.159-.824-60.786-.248-7.318-.55-13.05-.886-16.94-.177-1.949-.337-3.437-.514-4.43a10.875,10.875,0,0,0-.213-1.125,3.894,3.894,0,0,1-.071-.416Z" transform="translate(-414.798 -153.073)" fill="#263238"/>
        <path id="Path_93619" data-name="Path 93619" d="M572.09,247.2a35.414,35.414,0,0,0-4.2-1.772,20.953,20.953,0,0,0-20.528,4.208,36.928,36.928,0,0,0-3.163,3.287,4.819,4.819,0,0,1,.673-1.037,18.616,18.616,0,0,1,2.268-2.5A20.466,20.466,0,0,1,568,245.115a18.174,18.174,0,0,1,3.065,1.409,4.965,4.965,0,0,1,1.028.673Z" transform="translate(-416.988 -150.222)" fill="#263238"/>
        <g id="Group_125275" data-name="Group 125275" transform="translate(165.637 142.176)" opacity="0.3">
          <path id="Path_93620" data-name="Path 93620" d="M587.57,391.728c.141-.372.274-.744.416-1.108l-.231.16Z" transform="translate(-587.57 -309.129)"/>
          <path id="Path_93621" data-name="Path 93621" d="M601.62,332.431c-1.116-11.376-2.587-22.752-5.546-33.791-2.507,19.163,2.41,38.823-.886,57.871-1.4,8.124-4.262,15.947-7.167,23.62,7.247-4.74,11.615-13.032,13.343-21.529S602.479,341.149,601.62,332.431Z" transform="translate(-587.621 -298.64)"/>
        </g>
        <g id="Group_125276" data-name="Group 125276" transform="translate(82.976 158.522)" opacity="0.3">
          <path id="Path_93622" data-name="Path 93622" d="M525.04,340.311,494.27,317.09c.346,8.656,6.928,15.761,13.777,21.077s16.151,11.429,22.637,17.17C528.583,350.553,527.193,345.1,525.04,340.311Z" transform="translate(-494.27 -317.09)"/>
        </g>
        <path id="Path_93623" data-name="Path 93623" d="M535.9,295.37a5.246,5.246,0,0,1-.5.585c-.337.372-.886.886-1.515,1.6a36.97,36.97,0,0,1-6.2,5.236,18.153,18.153,0,0,1-5.121,2.321,13.032,13.032,0,0,1-6.45,0,24.112,24.112,0,0,1-6.476-2.995c-2.1-1.285-4.173-2.782-6.468-3.978A16.773,16.773,0,0,0,496.037,296a10.471,10.471,0,0,0-6.485,2.117,51.1,51.1,0,0,0-4.846,4.164,19.954,19.954,0,0,1-4.563,3.287,8.369,8.369,0,0,1-4.527.948,6.822,6.822,0,0,1-3.322-1.108,4.654,4.654,0,0,1-1.533-1.595,3.054,3.054,0,0,1-.31-.709s.124.239.39.656a4.812,4.812,0,0,0,1.551,1.5,6.811,6.811,0,0,0,3.242,1,8.222,8.222,0,0,0,4.368-.983,19.957,19.957,0,0,0,4.43-3.278,51.328,51.328,0,0,1,4.855-4.226,13.194,13.194,0,0,1,3.11-1.657,10.169,10.169,0,0,1,3.632-.567,17.12,17.12,0,0,1,7.336,2.188c2.339,1.214,4.43,2.72,6.494,4A23.713,23.713,0,0,0,516.2,304.7a11.256,11.256,0,0,0,3.216.416,12.651,12.651,0,0,0,3.039-.354,17.962,17.962,0,0,0,5.041-2.224,39.128,39.128,0,0,0,6.2-5.094l1.568-1.533A4.424,4.424,0,0,1,535.9,295.37Z" transform="translate(-408.577 -156.091)" fill="#fff"/>
        <path id="Path_93624" data-name="Path 93624" d="M589.2,288.292a2.271,2.271,0,0,1-.371.354,5.248,5.248,0,0,1-1.267.735,8.292,8.292,0,0,1-5.315.159c-4.616-1.063-8.709-6.7-15.611-7.974a24.587,24.587,0,0,0-4.943-.629,26.1,26.1,0,0,0-4.634.354,24.8,24.8,0,0,0-7.442,2.5,26.8,26.8,0,0,0-5.848,4.306,2.23,2.23,0,0,1,.328-.39l1-1.063c.487-.407,1.063-.939,1.772-1.48l1.187-.833a15.392,15.392,0,0,1,1.4-.824,24.429,24.429,0,0,1,7.522-2.658,26.1,26.1,0,0,1,4.714-.39,23.777,23.777,0,0,1,5.041.629,23.2,23.2,0,0,1,4.793,1.674c.718.407,1.444.771,2.109,1.187s1.294.886,1.905,1.311c2.4,1.772,4.616,3.34,6.786,3.942a8.362,8.362,0,0,0,5.183,0A7.765,7.765,0,0,0,589.2,288.292Z" transform="translate(-416.939 -154.39)" fill="#fff"/>
        <path id="Path_93625" data-name="Path 93625" d="M618.339,275.269c0,.044-.407.23-1.063.735a8.566,8.566,0,0,0-2.206,2.658,17.952,17.952,0,0,0-1.674,4.908,33.288,33.288,0,0,1-1.692,6.255,10.63,10.63,0,0,1-4.271,4.864,11.843,11.843,0,0,1-5.023,1.692,10.081,10.081,0,0,1-3.544-.275,5.161,5.161,0,0,1-.886-.31c-.212-.08-.319-.124-.31-.142s.452.115,1.267.275a10.862,10.862,0,0,0,3.491.133,11.936,11.936,0,0,0,4.837-1.772,10.4,10.4,0,0,0,4.067-4.687,36.063,36.063,0,0,0,1.7-6.158,17.517,17.517,0,0,1,1.771-4.979,8.032,8.032,0,0,1,2.384-2.658,4.431,4.431,0,0,1,.841-.478A2.8,2.8,0,0,1,618.339,275.269Z" transform="translate(-423.085 -153.798)" fill="#fff"/>
        <path id="Path_93626" data-name="Path 93626" d="M501.753,324.79a3.655,3.655,0,0,1-.177.939,7.485,7.485,0,0,1-.31,1.081,14.625,14.625,0,0,1-.54,1.391,13.933,13.933,0,0,1-.824,1.612,17.332,17.332,0,0,1-1.116,1.772,19.36,19.36,0,0,1-7.265,6.042,18.009,18.009,0,0,1-3.677,1.267,12.021,12.021,0,0,1-1.471.257,6.813,6.813,0,0,1-1.116.089,4.208,4.208,0,0,1-.957,0c0-.1,1.364-.106,3.464-.647a19.168,19.168,0,0,0,3.544-1.329,21.64,21.64,0,0,0,3.9-2.543,21.4,21.4,0,0,0,3.207-3.375,18.8,18.8,0,0,0,1.134-1.692,13.162,13.162,0,0,0,.886-1.559C501.346,326.1,501.638,324.764,501.753,324.79Z" transform="translate(-410.157 -159.446)" fill="#fff"/>
        <path id="Path_93627" data-name="Path 93627" d="M656.8,405.769a8.277,8.277,0,0,1-1.453.257,13.41,13.41,0,0,1-1.728.177,20.6,20.6,0,0,1-2.295.071,23.746,23.746,0,0,1-2.773-.133c-1-.062-2.055-.257-3.172-.425a38.9,38.9,0,0,1-7.017-2.091,37.914,37.914,0,0,1-6.432-3.5c-.886-.664-1.772-1.267-2.543-1.94a24.213,24.213,0,0,1-2.056-1.869c-.629-.576-1.117-1.178-1.568-1.674a12.809,12.809,0,0,1-1.09-1.347,8.8,8.8,0,0,1-.886-1.2,7.8,7.8,0,0,1,.983,1.09,14.786,14.786,0,0,0,1.152,1.285c.461.478.966,1.063,1.595,1.612a26.137,26.137,0,0,0,2.082,1.816c.744.647,1.63,1.24,2.534,1.887a40.175,40.175,0,0,0,6.37,3.42,39.466,39.466,0,0,0,6.919,2.091c1.1.186,2.135.4,3.127.47a26.317,26.317,0,0,0,2.747.195c.886.053,1.6,0,2.277,0a15.207,15.207,0,0,0,1.72-.1A10.026,10.026,0,0,1,656.8,405.769Z" transform="translate(-426.064 -167.12)" fill="#455a64"/>
        <path id="Path_93628" data-name="Path 93628" d="M580.879,452.966c-.124,0,1.772-8.807,4.243-19.615s4.563-19.544,4.687-19.491-1.772,8.815-4.244,19.624S580.986,453.029,580.879,452.966Z" transform="translate(-421.17 -169.603)" fill="#455a64"/>
        <path id="Path_93629" data-name="Path 93629" d="M522.094,232.614h0a10.241,10.241,0,0,0-.886-4.979l-26.889-58.863c-6.264-16.9-21.325-27.341-38.043-20.607l-1.515.718a32.222,32.222,0,0,0-16.4,40.542c5.511,14.618,11.792,30.69,15.451,38.2,7.575,15.549,24.364,10.631,24.364,10.631l3.136,5.989s3.278,11.278,17.294,9.7c10.782-1.223,18.756-11.686,21.874-16.461a10.165,10.165,0,0,0,1.613-4.873Z" transform="translate(-404.68 -139.068)" fill="#c78976"/>
        <path id="Path_93630" data-name="Path 93630" d="M483.42,248.073A41.914,41.914,0,0,0,501.077,232.4s.5,13.529-15.779,19.491Z" transform="translate(-410.056 -148.91)" fill="#925b4c"/>
        <path id="Path_93631" data-name="Path 93631" d="M449.978,207.845a2.463,2.463,0,0,0,3.216,1.24,2.365,2.365,0,0,0,1.355-3.1,2.471,2.471,0,0,0-3.216-1.24,2.357,2.357,0,0,0-1.355,3.1Z" transform="translate(-406.223 -145.733)" fill="#263238"/>
        <path id="Path_93632" data-name="Path 93632" d="M446.484,201.158c.416.168,1.515-1.887,3.925-3.012s4.731-.762,4.855-1.178c.071-.195-.461-.585-1.5-.78a6.777,6.777,0,0,0-4.058.576,6.583,6.583,0,0,0-2.95,2.773C446.289,200.441,446.289,201.1,446.484,201.158Z" transform="translate(-405.83 -144.77)" fill="#263238"/>
        <path id="Path_93633" data-name="Path 93633" d="M474.848,196.295a2.463,2.463,0,0,0,3.216,1.24,2.356,2.356,0,0,0,1.356-3.1,2.463,2.463,0,0,0-3.216-1.24,2.365,2.365,0,0,0-1.355,3.1Z" transform="translate(-409.059 -144.416)" fill="#263238"/>
        <path id="Path_93634" data-name="Path 93634" d="M473.394,189.077c.407.16,1.515-1.9,3.916-3.021s4.74-.753,4.864-1.178c.062-.186-.461-.585-1.5-.78a6.778,6.778,0,0,0-4.058.585,6.476,6.476,0,0,0-2.95,2.764C473.2,188.369,473.19,189.007,473.394,189.077Z" transform="translate(-408.899 -143.391)" fill="#263238"/>
        <path id="Path_93635" data-name="Path 93635" d="M471.967,211.851c-.053-.142-1.666.3-4.235,1.134-.647.23-1.285.381-1.586,0a3.463,3.463,0,0,1-.452-2.011c-.124-1.772-.248-3.6-.39-5.528-.62-7.85-1.382-14.175-1.692-14.175s-.071,6.405.549,14.246q.248,2.9.487,5.528a3.951,3.951,0,0,0,.815,2.56,1.7,1.7,0,0,0,1.436.416,4.43,4.43,0,0,0,1.107-.346C470.506,212.693,472.02,211.993,471.967,211.851Z" transform="translate(-407.782 -144.22)" fill="#263238"/>
        <path id="Path_93636" data-name="Path 93636" d="M481.331,212.6c-.4.168.824,2.773-.531,5.679s-4.271,3.934-4.12,4.306c0,.186.886.213,2.046-.31a7.159,7.159,0,0,0,3.544-3.437,6.282,6.282,0,0,0,.283-4.687C482.1,213.015,481.5,212.5,481.331,212.6Z" transform="translate(-409.287 -146.65)" fill="#263238"/>
        <path id="Path_93637" data-name="Path 93637" d="M467.679,178.783c.54.54,2.8-.886,5.777-1.9s5.626-1.293,5.723-2.064c0-.354-.656-.78-1.869-.983a10.57,10.57,0,0,0-8.762,3.012C467.705,177.765,467.431,178.518,467.679,178.783Z" transform="translate(-408.251 -142.223)" fill="#263238"/>
        <path id="Path_93638" data-name="Path 93638" d="M443.76,192.834c.682.346,2.073-1,4.049-1.967s3.854-1.373,3.969-2.126c0-.354-.487-.78-1.462-.948a6.266,6.266,0,0,0-3.739.673,6.2,6.2,0,0,0-2.729,2.658C443.414,191.984,443.45,192.657,443.76,192.834Z" transform="translate(-405.507 -143.817)" fill="#263238"/>
        <path id="Path_93639" data-name="Path 93639" d="M436.232,181.157s-.5-11.739,3.145-16.257c4.43-5.466,9.834-.354,14.566-4.43s8.939-9.329,16.5-7.743c8.266,1.728,6.937,6.308,10.631,13.077,14.813,27.412,23.708,32.94,18.907,19-.523-1.524,2.959-4.58.664-10.995-2.986-8.319-7.238-18.127-11.677-22.929-3.748-4.058-7.974-6.06-14.583-7.389-10.383-2.091-20.988,2.764-27.81,6.866S429.791,169.2,436.232,181.157Z" transform="translate(-404.438 -138.713)" fill="#263238"/>
        <path id="Path_93640" data-name="Path 93640" d="M507.011,189.345a4.7,4.7,0,0,1,2.658-6.264c3.048-1.1,7.088-.974,9.746,5.147,4.7,10.853-7.167,13.343-7.318,13.041S508.942,193.9,507.011,189.345Z" transform="translate(-412.703 -143.225)" fill="#c78976"/>
        <path id="Path_93641" data-name="Path 93641" d="M513.117,196.672c0-.053.239.053.629.062a2.135,2.135,0,0,0,1.426-.585c.956-.886,1.134-3.163.336-5.139a6.743,6.743,0,0,0-1.7-2.481,2.373,2.373,0,0,0-2.046-.833,1.046,1.046,0,0,0-.886,1c0,.372.151.558.1.6s-.31-.089-.416-.567a1.319,1.319,0,0,1,.133-.886,1.525,1.525,0,0,1,.886-.727,2.889,2.889,0,0,1,2.711.824,7.094,7.094,0,0,1,1.967,2.738c.886,2.215.646,4.749-.727,5.883a2.231,2.231,0,0,1-1.851.47C513.25,196.929,513.082,196.752,513.117,196.672Z" transform="translate(-413.148 -143.739)" fill="#925b4c"/>
        <path id="Path_93642" data-name="Path 93642" d="M489.048,163.658a11.165,11.165,0,0,1-3.544,4.235c-1.6.957-3.969.886-5.032-.629-.478-.682-.7-1.63-1.462-1.976-.886-.416-1.887.31-2.738.833a7.549,7.549,0,0,1-9.391-1.55c-.239,1.559-2.109,2.383-3.677,2.18a16.064,16.064,0,0,1-4.377-1.772c-1.444-.656-3.225-.975-4.545-.106-.735.487-1.249,1.311-2.082,1.613-1.462.54-2.924-.78-3.792-2.073s-1.772-2.844-3.349-3.039-2.658.886-3.881,1.7-3.012,1.285-3.942.177a2.825,2.825,0,0,1-.434-2.162,7.655,7.655,0,0,1,6.937-6.485,10.375,10.375,0,0,1,16.39-9.958,10.534,10.534,0,0,1,16.833-3.721,7.628,7.628,0,0,1,12.519,6.37c2.445.186,4.988,1.32,6.078,3.544s0,5.413-2.445,5.839a4.226,4.226,0,0,1-4.811,6.937" transform="translate(-404.734 -138.163)" fill="#263238"/>
        <path id="Path_93643" data-name="Path 93643" d="M445.43,160.073a.368.368,0,0,0,.1.195,4.2,4.2,0,0,0,.336.54,7.231,7.231,0,0,0,1.772,1.692,8.374,8.374,0,0,0,3.544,1.409,7.859,7.859,0,0,0,4.97-.815l-.292-.151a4.289,4.289,0,0,0,1.6,2.853,12.35,12.35,0,0,0,3.074,1.772,8.86,8.86,0,0,0,1.772.664,4.127,4.127,0,0,0,1.993-.177,4.306,4.306,0,0,0,2.9-2.862l-.452.071a8.86,8.86,0,0,0,6.016,3.943,6.441,6.441,0,0,0,4.058-.505,11.776,11.776,0,0,0,3.1-2.392h-.346a9.327,9.327,0,0,0,4.093,2.1,4.926,4.926,0,0,0,4.2-.744,6.486,6.486,0,0,0,2.357-6.751l-.186.23a6.121,6.121,0,0,0,3.933-1.2,6.706,6.706,0,0,0,2.02-2.348,5.6,5.6,0,0,0,.576-1.878,2.411,2.411,0,0,0,0-.673,6.85,6.85,0,0,1-.762,2.454,6.593,6.593,0,0,1-2.011,2.215,5.856,5.856,0,0,1-3.739,1.063H489.8l.071.248a6.149,6.149,0,0,1-2.294,6.29,4.5,4.5,0,0,1-3.836.638,8.858,8.858,0,0,1-3.854-2.011l-.177-.159-.168.168a11.171,11.171,0,0,1-2.968,2.286,5.955,5.955,0,0,1-3.748.461,8.415,8.415,0,0,1-5.688-3.712l-.3-.47-.151.549a3.836,3.836,0,0,1-2.525,2.516,3.651,3.651,0,0,1-1.772.168,7.981,7.981,0,0,1-1.665-.62,11.961,11.961,0,0,1-2.986-1.666,3.914,3.914,0,0,1-1.488-2.569v-.292l-.257.142a7.54,7.54,0,0,1-4.731.886,8.408,8.408,0,0,1-3.491-1.276A8.941,8.941,0,0,1,445.43,160.073Z" transform="translate(-405.724 -140.089)" fill="#455a64"/>
        <path id="Path_93644" data-name="Path 93644" d="M459.422,204.048a21.77,21.77,0,0,0-.655-2.791,11.651,11.651,0,0,0-4.7-6.007,11.487,11.487,0,0,0-10.959-.824,10.572,10.572,0,0,0-2.782,1.772,10.746,10.746,0,0,0-2.242,2.6,11.42,11.42,0,0,0,.966,13.511,10.956,10.956,0,0,0,2.6,2.25,10.448,10.448,0,0,0,2.994,1.355,11.518,11.518,0,0,0,14.53-9,22.705,22.705,0,0,0,.257-2.853,6.27,6.27,0,0,1,.062.744,5.329,5.329,0,0,1,0,.886,7.506,7.506,0,0,1-.133,1.231,11.864,11.864,0,0,1-14.822,9.418,11,11,0,0,1-3.119-1.391,11.2,11.2,0,0,1-2.658-2.33,11.81,11.81,0,0,1-1.01-14.043,11.051,11.051,0,0,1,2.339-2.658,11.333,11.333,0,0,1,2.888-1.825,11.9,11.9,0,0,1,6.2-.93,11.729,11.729,0,0,1,5.121,1.878,11.605,11.605,0,0,1,4.7,6.2,7.689,7.689,0,0,1,.3,1.2,4.979,4.979,0,0,1,.142.886,5.917,5.917,0,0,1-.009.718Z" transform="translate(-404.637 -144.425)" fill="#263238"/>
        <path id="Path_93645" data-name="Path 93645" d="M490.487,189.259a20.186,20.186,0,0,0-.647-2.791,11.65,11.65,0,0,0-4.7-6.007,11.484,11.484,0,1,0-9.427,20.669,11.551,11.551,0,0,0,14.53-9,19.593,19.593,0,0,0,.248-2.853,3.4,3.4,0,0,1,.062.744,4.368,4.368,0,0,1,0,.886,8.383,8.383,0,0,1-.133,1.231,11.579,11.579,0,0,1-3.756,6.831,11.784,11.784,0,0,1-11.066,2.552,11.936,11.936,0,0,1-5.821-3.73,11.85,11.85,0,1,1,20.253-11.385,7.957,7.957,0,0,1,.3,1.2,5.083,5.083,0,0,1,.133.886A4.371,4.371,0,0,1,490.487,189.259Z" transform="translate(-408.175 -142.731)" fill="#263238"/>
        <path id="Path_93646" data-name="Path 93646" d="M466.653,195.392a8.052,8.052,0,0,0-6.5,3.154,3.008,3.008,0,0,1,.523-1.019,6.1,6.1,0,0,1,4.855-2.357A2.084,2.084,0,0,1,466.653,195.392Z" transform="translate(-407.403 -144.664)" fill="#263238"/>
        <path id="Path_93647" data-name="Path 93647" d="M504.871,186.537a39.973,39.973,0,0,1-6.051.381,38.283,38.283,0,0,1-6.06-.08A79.736,79.736,0,0,1,504.871,186.537Z" transform="translate(-411.122 -143.668)" fill="#263238"/>
      </g>
      <g id="freepik--Device--inject-27" transform="translate(231.523 374.787)">
        <path id="Path_93648" data-name="Path 93648" d="M401.138,453.21h53.548a2.658,2.658,0,0,1,2.658,2.658h0a2.658,2.658,0,0,1-2.658,2.658H401.138a2.658,2.658,0,0,1-2.658-2.658h0a2.658,2.658,0,0,1,2.658-2.658Z" transform="translate(-298.328 -383.414)" fill="#e0e0e0"/>
        <path id="Path_93649" data-name="Path 93649" d="M396.788,449.569H295.5l-10-68.432a5.839,5.839,0,0,1,5.767-6.707l88.933.718c2.879,0,5.635,1.391,6.069,4.244Z" transform="translate(-285.437 -374.43)" fill="#e0e0e0"/>
        <path id="Path_93650" data-name="Path 93650" d="M351.315,415.2a5.573,5.573,0,1,1-5.564-5.564A5.572,5.572,0,0,1,351.315,415.2Z" transform="translate(-291.678 -378.445)" fill="#fff"/>
        <path id="Path_93651" data-name="Path 93651" d="M404.582,449.071c-.124,0-2.95-16.488-6.317-36.856s-6-36.918-5.865-36.945,2.95,16.488,6.317,36.865S404.705,449.044,404.582,449.071Z" transform="translate(-297.634 -374.526)" fill="#263238"/>
      </g>
    </g>
  </g>
</svg>
